<?xml version="1.0" encoding="UTF-8" standalone="no"?>
<!-- Created with Inkscape (http://www.inkscape.org/) -->

<svg
   version="1.1"
   id="svg2"
   xml:space="preserve"
   width="470.66666"
   height="281.33334"
   viewBox="0 0 470.66666 281.33334"
   sodipodi:docname="50-birthhump_total.svg"
   inkscape:version="1.1.2 (0a00cf5339, 2022-02-04)"
   xmlns:inkscape="http://www.inkscape.org/namespaces/inkscape"
   xmlns:sodipodi="http://sodipodi.sourceforge.net/DTD/sodipodi-0.dtd"
   xmlns="http://www.w3.org/2000/svg"
   xmlns:svg="http://www.w3.org/2000/svg"><defs
     id="defs6"><clipPath
       clipPathUnits="userSpaceOnUse"
       id="clipPath84"><path
         d="m 23.4,20.59 h 329.8 v 188.5 H 23.4 Z"
         id="path82" /></clipPath></defs><sodipodi:namedview
     id="namedview4"
     pagecolor="#ffffff"
     bordercolor="#666666"
     borderopacity="1.0"
     inkscape:pageshadow="2"
     inkscape:pageopacity="0.0"
     inkscape:pagecheckerboard="0"
     showgrid="false"
     inkscape:zoom="3.0959715"
     inkscape:cx="177.32721"
     inkscape:cy="140.66667"
     inkscape:window-width="3440"
     inkscape:window-height="1412"
     inkscape:window-x="0"
     inkscape:window-y="0"
     inkscape:window-maximized="1"
     inkscape:current-layer="g8" /><g
     id="g8"
     inkscape:groupmode="layer"
     inkscape:label="50-birthhump_cod_joint"
     transform="matrix(1.3333333,0,0,-1.3333333,0,281.33333)"><g
       id="g10" /><g
       id="g12" /><g
       id="g14" /><g
       id="g16" /><g
       id="g18" /><g
       id="g20" /><g
       id="g22" /><g
       id="g24" /><g
       id="g26" /><g
       id="g28" /><g
       id="g30" /><g
       id="g32" /><g
       id="g34" /><g
       id="g36" /><g
       id="g38" /><g
       id="g40" /><g
       id="g42" /><g
       id="g44" /><g
       id="g46" /><g
       id="g48" /><g
       id="g50" /><g
       id="g52" /><g
       id="g54" /><g
       id="g56" /><g
       id="g58" /><g
       id="g60" /><g
       id="g62" /><g
       id="g64" /><g
       id="g66" /><g
       id="g68" /><g
       id="g70" /><g
       id="g72" /><g
       id="g74" /><g
       id="g76" /><g
       id="g78"><g
         id="g80"
         clip-path="url(#clipPath84)"><path
           id="path86"
           style="fill:#3a3a3e;fill-opacity:1;fill-rule:nonzero;stroke:none;stroke-width:1.33333"
           d="M 153.69336 2.5605469 L 153.56055 2.5742188 L 153.42578 2.5996094 L 153.29297 2.6132812 L 153.16016 2.6542969 L 153.02734 2.6933594 L 152.89258 2.7324219 L 152.75977 2.8007812 L 152.62695 2.8535156 L 152.49414 2.90625 L 152.35938 2.9863281 L 152.22656 3.0664062 L 152.09375 3.1328125 L 151.96094 3.2402344 L 151.82617 3.3339844 L 151.69336 3.4257812 L 151.56055 3.5332031 L 151.42578 3.6542969 L 151.29297 3.7597656 L 151.16016 3.8925781 L 151.02734 4.0273438 L 150.89258 4.1464844 L 150.75977 4.2929688 L 150.62695 4.453125 L 150.49414 4.5996094 L 150.35938 4.7597656 L 150.22656 4.9199219 L 150.09375 5.09375 L 149.96094 5.2675781 L 149.82617 5.453125 L 149.69336 5.640625 L 149.56055 5.8398438 L 149.42578 6.0390625 L 149.29297 6.2402344 L 149.16016 6.453125 L 149.02734 6.6660156 L 148.89258 6.8808594 L 148.75977 7.1191406 L 148.62695 7.3457031 L 148.49414 7.5859375 L 148.35938 7.8398438 L 148.22656 8.0800781 L 148.09375 8.3339844 L 147.96094 8.5996094 L 147.82617 8.8671875 L 147.69336 9.1328125 L 147.56055 9.4140625 L 147.42578 9.6933594 L 147.29297 9.9863281 L 147.16016 10.279297 L 147.02734 10.574219 L 146.89258 10.880859 L 146.75977 11.1875 L 146.62695 11.505859 L 146.49414 11.826172 L 146.35938 12.146484 L 146.22656 12.480469 L 146.09375 12.8125 L 145.96094 13.160156 L 145.82617 13.505859 L 145.69336 13.839844 L 145.56055 14.212891 L 145.42578 14.574219 L 145.29297 14.933594 L 145.16016 15.306641 L 145.02734 15.679688 L 144.89258 16.052734 L 144.75977 16.439453 L 144.62695 16.839844 L 144.49414 17.226562 L 144.35938 17.626953 L 144.22656 18.039062 L 144.09375 18.439453 L 143.96094 18.853516 L 143.82617 19.279297 L 143.69336 19.693359 L 143.56055 20.132812 L 143.42578 20.560547 L 143.29297 21 L 143.16016 21.439453 L 143.02734 21.892578 L 142.89258 22.333984 L 142.75977 22.800781 L 142.62695 23.253906 L 142.49414 23.720703 L 142.35938 24.1875 L 142.22656 24.666016 L 142.09375 25.132812 L 141.96094 25.626953 L 141.82617 26.107422 L 141.69336 26.599609 L 141.56055 27.09375 L 141.42578 27.585938 L 141.29297 28.09375 L 141.16016 28.599609 L 141.02734 29.107422 L 140.89258 29.626953 L 140.75977 30.146484 L 140.62695 30.666016 L 140.49414 31.1875 L 140.35938 31.720703 L 140.22656 32.253906 L 140.09375 32.787109 L 139.96094 33.333984 L 139.82617 33.880859 L 139.69336 34.425781 L 139.56055 34.972656 L 139.42578 35.533203 L 139.29297 36.09375 L 139.16016 36.654297 L 139.02734 37.226562 L 138.89258 37.787109 L 138.75977 38.359375 L 138.62695 38.947266 L 138.49414 39.519531 L 138.35938 40.107422 L 138.22656 40.693359 L 138.09375 41.279297 L 137.96094 41.867188 L 137.82617 42.466797 L 137.69336 43.066406 L 137.56055 43.666016 L 137.42578 44.267578 L 137.29297 44.880859 L 137.16016 45.494141 L 137.02734 46.107422 L 136.89258 46.720703 L 136.75977 47.333984 L 136.62695 47.960938 L 136.49414 48.574219 L 136.35938 49.212891 L 136.22656 49.839844 L 136.09375 50.466797 L 135.96094 51.107422 L 135.82617 51.732422 L 135.69336 52.373047 L 135.56055 53.027344 L 135.42578 53.666016 L 135.29297 54.306641 L 135.16016 54.960938 L 135.02734 55.613281 L 134.89258 56.267578 L 134.75977 56.919922 L 134.62695 57.574219 L 134.49414 58.240234 L 134.35938 58.892578 L 134.22656 59.560547 L 134.09375 60.226562 L 133.96094 60.892578 L 133.82617 61.560547 L 133.69336 62.240234 L 133.56055 62.90625 L 133.42578 63.585938 L 133.29297 64.253906 L 133.16016 64.933594 L 133.02734 65.626953 L 132.89258 66.306641 L 132.75977 66.986328 L 132.62695 67.666016 L 132.49414 68.359375 L 132.35938 69.039062 L 132.22656 69.732422 L 132.09375 70.425781 L 131.96094 71.119141 L 131.82617 71.8125 L 131.69336 72.505859 L 131.56055 73.199219 L 131.42578 73.892578 L 131.29297 74.599609 L 131.16016 75.292969 L 131.02734 76 L 130.89258 76.693359 L 130.75977 77.400391 L 130.62695 78.107422 L 130.49414 78.8125 L 130.35938 79.519531 L 130.22656 80.226562 L 130.09375 80.933594 L 129.96094 81.640625 L 129.82617 82.345703 L 129.69336 83.052734 L 129.56055 83.773438 L 129.42578 84.480469 L 129.29297 85.1875 L 129.16016 85.90625 L 129.02734 86.613281 L 128.89258 87.333984 L 128.75977 88.039062 L 128.62695 88.759766 L 128.49414 89.466797 L 128.35938 90.1875 L 128.22656 90.90625 L 128.09375 91.613281 L 127.96094 92.333984 L 127.82617 93.052734 L 127.69336 93.773438 L 127.56055 94.480469 L 127.42578 95.199219 L 127.29297 95.919922 L 127.16016 96.640625 L 127.02734 97.359375 L 126.89258 98.066406 L 126.75977 98.787109 L 126.62695 99.505859 L 126.49414 100.22656 L 126.35938 100.94727 L 126.22656 101.66602 L 126.09375 102.37305 L 125.96094 103.09375 L 125.82617 103.8125 L 125.69336 104.5332 L 125.56055 105.24023 L 125.42578 105.96094 L 125.29297 106.67969 L 125.16016 107.38672 L 125.02734 108.10742 L 124.89258 108.82617 L 124.75977 109.5332 L 124.62695 110.25391 L 124.49414 110.96094 L 124.35938 111.66602 L 124.22656 112.38672 L 124.09375 113.09375 L 123.96094 113.80078 L 123.82617 114.51953 L 123.69336 115.22656 L 123.56055 115.93359 L 123.42578 116.64062 L 123.29297 117.3457 L 123.16016 118.05273 L 123.02734 118.75977 L 122.89258 119.4668 L 122.75977 120.17383 L 122.62695 120.86719 L 122.49414 121.57422 L 122.35938 122.2793 L 122.22656 122.97266 L 122.09375 123.67969 L 121.96094 124.37305 L 121.82617 125.06641 L 121.69336 125.75977 L 121.56055 126.45312 L 121.42578 127.14648 L 121.29297 127.83984 L 121.16016 128.5332 L 121.02734 129.22656 L 120.89258 129.91992 L 120.75977 130.59961 L 120.62695 131.29297 L 120.49414 131.97266 L 120.35938 132.6543 L 120.22656 133.33398 L 120.09375 134.02734 L 119.96094 134.69336 L 119.82617 135.37305 L 119.69336 136.05273 L 119.56055 136.73242 L 119.42578 137.40039 L 119.29297 138.08008 L 119.16016 138.74609 L 119.02734 139.41406 L 118.89258 140.08008 L 118.75977 140.74609 L 118.62695 141.41406 L 118.49414 142.08008 L 118.35938 142.73242 L 118.22656 143.40039 L 118.09375 144.05273 L 117.96094 144.70703 L 117.82617 145.35938 L 117.69336 146.01367 L 117.56055 146.66602 L 117.42578 147.32031 L 117.29297 147.96094 L 117.16016 148.61328 L 117.02734 149.25391 L 116.89258 149.89258 L 116.75977 150.5332 L 116.62695 151.17383 L 116.49414 151.8125 L 116.35938 152.43945 L 116.22656 153.08008 L 116.09375 153.70703 L 115.96094 154.33398 L 115.82617 154.96094 L 115.69336 155.58594 L 115.56055 156.21289 L 115.42578 156.82617 L 115.29297 157.45312 L 115.16016 158.06641 L 115.02734 158.67969 L 114.89258 159.29297 L 114.75977 159.89258 L 114.62695 160.50586 L 114.49414 161.11914 L 114.35938 161.7207 L 114.22656 162.32031 L 114.09375 162.91992 L 113.96094 163.51953 L 113.82617 164.10742 L 113.69336 164.70703 L 113.56055 165.29297 L 113.42578 165.88086 L 113.29297 166.4668 L 113.16016 167.05273 L 113.02734 167.64062 L 112.89258 168.21289 L 112.75977 168.78711 L 112.62695 169.35938 L 112.49414 169.93359 L 112.35938 170.50586 L 112.22656 171.08008 L 112.09375 171.64062 L 111.96094 172.19922 L 111.82617 172.75977 L 111.70703 173.32031 L 111.57422 173.88086 L 111.43945 174.43945 L 111.30664 174.98633 L 111.17383 175.5332 L 111.03906 176.08008 L 110.90625 176.62695 L 110.77344 177.17383 L 110.64062 177.70703 L 110.50586 178.24023 L 110.37305 178.77344 L 110.24023 179.30664 L 110.10742 179.83984 L 109.97266 180.37305 L 109.83984 180.89258 L 109.70703 181.41406 L 109.57422 181.93359 L 109.43945 182.45312 L 109.30664 182.97266 L 109.17383 183.48047 L 109.03906 183.98633 L 108.90625 184.50586 L 108.77344 185 L 108.64062 185.50586 L 108.50586 186.01367 L 108.37305 186.50586 L 108.24023 187 L 108.10742 187.49414 L 107.97266 187.98633 L 107.83984 188.4668 L 107.70703 188.96094 L 107.57422 189.43945 L 107.43945 189.91992 L 107.30664 190.40039 L 107.17383 190.86719 L 107.03906 191.3457 L 106.90625 191.8125 L 106.77344 192.2793 L 106.64062 192.74609 L 106.50586 193.21289 L 106.37305 193.66602 L 106.24023 194.11914 L 106.10742 194.58594 L 105.97266 195.02734 L 105.83984 195.48047 L 105.70703 195.93359 L 105.57422 196.37305 L 105.43945 196.8125 L 105.30664 197.25391 L 105.17383 197.69336 L 105.03906 198.13281 L 104.90625 198.56055 L 104.77344 198.98633 L 104.64062 199.41406 L 104.50586 199.83984 L 104.37305 200.26758 L 104.24023 200.67969 L 104.10742 201.10742 L 103.97266 201.51953 L 103.83984 201.93359 L 103.70703 202.3457 L 103.57422 202.74609 L 103.43945 203.14648 L 103.30664 203.56055 L 103.17383 203.96094 L 103.03906 204.3457 L 102.90625 204.74609 L 102.77344 205.13281 L 102.64062 205.5332 L 102.50586 205.91992 L 102.37305 206.30664 L 102.24023 206.67969 L 102.10742 207.06641 L 101.97266 207.43945 L 101.83984 207.8125 L 101.70703 208.19922 L 101.57422 208.56055 L 101.43945 208.93359 L 101.30664 209.29297 L 101.17383 209.66602 L 101.03906 210.02734 L 100.90625 210.38672 L 100.77344 210.73242 L 100.64062 211.09375 L 100.50586 211.43945 L 100.37305 211.78711 L 100.24023 212.13281 L 100.10742 212.48047 L 99.972656 212.82617 L 99.839844 213.16016 L 99.707031 213.50586 L 99.574219 213.83984 L 99.439453 214.17383 L 99.306641 214.50586 L 99.173828 214.82617 L 99.039062 215.16016 L 98.90625 215.48047 L 98.773438 215.80078 L 98.640625 216.11914 L 98.505859 216.43945 L 98.373047 216.74609 L 98.240234 217.06641 L 98.107422 217.37305 L 97.972656 217.67969 L 97.839844 217.98633 L 97.707031 218.29297 L 97.574219 218.58594 L 97.439453 218.89258 L 97.306641 219.1875 L 97.173828 219.48047 L 97.039062 219.77344 L 96.90625 220.06641 L 96.773438 220.3457 L 96.640625 220.64062 L 96.505859 220.91992 L 96.373047 221.19922 L 96.240234 221.48047 L 96.107422 221.75977 L 95.972656 222.03906 L 95.839844 222.30664 L 95.707031 222.58594 L 95.574219 222.85352 L 95.439453 223.11914 L 95.306641 223.38672 L 95.173828 223.64062 L 95.039062 223.90625 L 94.90625 224.16016 L 94.773438 224.42578 L 94.640625 224.67969 L 94.505859 224.93359 L 94.373047 225.1875 L 94.240234 225.42578 L 94.107422 225.67969 L 93.972656 225.91992 L 93.839844 226.16016 L 93.707031 226.41406 L 93.574219 226.64062 L 93.439453 226.88086 L 93.306641 227.11914 L 93.173828 227.3457 L 93.039062 227.58594 L 92.90625 227.8125 L 92.773438 228.03906 L 92.640625 228.26758 L 92.505859 228.49414 L 92.373047 228.7207 L 92.240234 228.93359 L 92.107422 229.16016 L 91.972656 229.37305 L 91.839844 229.58594 L 91.707031 229.80078 L 91.574219 230.01367 L 91.439453 230.22656 L 91.306641 230.42578 L 91.173828 230.64062 L 91.039062 230.83984 L 90.90625 231.03906 L 90.773438 231.24023 L 90.640625 231.43945 L 90.505859 231.64062 L 90.373047 231.83984 L 90.240234 232.02734 L 90.107422 232.22656 L 89.972656 232.41406 L 89.839844 232.61328 L 89.707031 232.80078 L 89.574219 232.98633 L 89.439453 233.16016 L 89.306641 233.3457 L 89.173828 233.5332 L 89.039062 233.70703 L 88.90625 233.89258 L 88.773438 234.06641 L 88.640625 234.24023 L 88.505859 234.41406 L 88.373047 234.58594 L 88.240234 234.75977 L 88.107422 234.93359 L 87.972656 235.09375 L 87.839844 235.26758 L 87.707031 235.42578 L 87.574219 235.58594 L 87.439453 235.75977 L 87.306641 235.91992 L 87.173828 236.06641 L 87.039062 236.22656 L 86.90625 236.38672 L 86.773438 236.54688 L 86.640625 236.69336 L 86.505859 236.85352 L 86.373047 237 L 86.240234 237.14648 L 86.107422 237.29297 L 85.972656 237.43945 L 85.839844 237.58594 L 85.707031 237.73242 L 85.574219 237.88086 L 85.439453 238.01367 L 85.306641 238.16016 L 85.173828 238.29297 L 85.039062 238.43945 L 84.90625 238.57422 L 84.773438 238.70703 L 84.640625 238.83984 L 84.505859 238.97266 L 84.373047 239.10742 L 84.240234 239.24023 L 84.107422 239.35938 L 83.972656 239.49414 L 83.839844 239.61328 L 83.707031 239.74609 L 83.574219 239.86719 L 83.439453 239.98633 L 83.306641 240.11914 L 83.173828 240.24023 L 83.039062 240.35938 L 82.90625 240.4668 L 82.773438 240.58594 L 82.640625 240.70703 L 82.505859 240.82617 L 82.373047 240.93359 L 82.240234 241.05273 L 82.107422 241.16016 L 81.972656 241.26758 L 81.839844 241.38672 L 81.707031 241.49414 L 81.574219 241.59961 L 81.439453 241.70703 L 81.306641 241.8125 L 81.173828 241.91992 L 81.039062 242.02734 L 80.90625 242.11914 L 80.773438 242.22656 L 80.640625 242.33398 L 80.505859 242.42578 L 80.373047 242.5332 L 80.240234 242.62695 L 80.107422 242.7207 L 79.972656 242.8125 L 79.839844 242.91992 L 79.707031 243.01367 L 79.574219 243.10742 L 79.439453 243.19922 L 79.306641 243.29297 L 79.173828 243.37305 L 79.039062 243.4668 L 78.90625 243.56055 L 78.773438 243.64062 L 78.640625 243.73242 L 78.505859 243.8125 L 78.373047 243.90625 L 78.240234 243.98633 L 78.107422 244.08008 L 77.972656 244.16016 L 77.839844 244.24023 L 77.707031 244.32031 L 77.574219 244.40039 L 77.439453 244.48047 L 77.306641 244.56055 L 77.173828 244.64062 L 77.039062 244.7207 L 76.90625 244.80078 L 76.773438 244.86719 L 76.640625 244.94727 L 76.505859 245.02734 L 76.373047 245.09375 L 76.240234 245.17383 L 76.107422 245.24023 L 75.972656 245.32031 L 75.839844 245.38672 L 75.707031 245.45312 L 75.574219 245.5332 L 75.439453 245.59961 L 75.306641 245.66602 L 75.173828 245.73242 L 75.039062 245.80078 L 74.90625 245.86719 L 74.773438 245.93359 L 74.640625 246 L 74.505859 246.06641 L 74.373047 246.13281 L 74.240234 246.1875 L 74.107422 246.25391 L 73.972656 246.32031 L 73.839844 246.37305 L 73.707031 246.43945 L 73.574219 246.49414 L 73.439453 246.56055 L 73.306641 246.61328 L 73.173828 246.67969 L 73.039062 246.73242 L 72.90625 246.80078 L 72.773438 246.85352 L 72.640625 246.90625 L 72.505859 246.96094 L 72.373047 247.01367 L 72.240234 247.08008 L 72.107422 247.13281 L 71.972656 247.1875 L 71.839844 247.24023 L 71.707031 247.29297 L 71.574219 247.3457 L 71.439453 247.38672 L 71.306641 247.43945 L 71.173828 247.49414 L 71.039062 247.54688 L 70.90625 247.59961 L 70.773438 247.64062 L 70.640625 247.69336 L 70.505859 247.74609 L 70.373047 247.78711 L 70.240234 247.83984 L 70.107422 247.88086 L 69.972656 247.93359 L 69.839844 247.97266 L 69.707031 248.02734 L 69.574219 248.06641 L 69.439453 248.10742 L 69.306641 248.16016 L 69.173828 248.19922 L 69.039062 248.24023 L 68.90625 248.29297 L 68.773438 248.33398 L 68.640625 248.37305 L 68.505859 248.41406 L 68.373047 248.45312 L 68.240234 248.49414 L 68.107422 248.5332 L 67.972656 248.57422 L 67.839844 248.61328 L 67.707031 248.6543 L 67.574219 248.69336 L 67.439453 248.73242 L 67.306641 248.77344 L 67.173828 248.8125 L 67.039062 248.85352 L 66.90625 248.89258 L 66.773438 248.91992 L 66.640625 248.96094 L 66.505859 249 L 66.373047 249.03906 L 66.240234 249.06641 L 66.107422 249.10742 L 65.972656 249.14648 L 65.839844 249.17383 L 65.707031 249.21289 L 65.574219 249.24023 L 65.439453 249.2793 L 65.306641 249.30664 L 65.173828 249.3457 L 65.039062 249.37305 L 64.90625 249.41406 L 64.773438 249.43945 L 64.640625 249.48047 L 64.505859 249.50586 L 64.373047 249.5332 L 64.240234 249.57422 L 64.107422 249.59961 L 63.972656 249.62695 L 63.839844 249.66602 L 63.707031 249.69336 L 63.574219 249.7207 L 63.439453 249.74609 L 63.306641 249.78711 L 63.173828 249.8125 L 63.039062 249.83984 L 62.90625 249.86719 L 62.773438 249.89258 L 62.640625 249.91992 L 62.519531 249.94727 L 62.386719 249.97266 L 62.253906 250 L 62.119141 250.02734 L 61.986328 250.05273 L 61.853516 250.08008 L 61.720703 250.10742 L 61.585938 250.13281 L 61.453125 250.16016 L 61.320312 250.1875 L 61.1875 250.21289 L 61.052734 250.24023 L 60.919922 250.26758 L 60.787109 250.29297 L 60.654297 250.32031 L 60.519531 250.33398 L 60.386719 250.35938 L 60.253906 250.38672 L 60.119141 250.41406 L 59.986328 250.43945 L 59.853516 250.45312 L 59.720703 250.48047 L 59.585938 250.50586 L 59.453125 250.5332 L 59.320312 250.54688 L 59.1875 250.57422 L 59.052734 250.59961 L 58.919922 250.61328 L 58.787109 250.64062 L 58.654297 250.6543 L 58.519531 250.67969 L 58.386719 250.70703 L 58.253906 250.7207 L 58.119141 250.74609 L 57.986328 250.75977 L 57.853516 250.78711 L 57.720703 250.80078 L 57.585938 250.82617 L 57.453125 250.83984 L 57.320312 250.86719 L 57.1875 250.88086 L 57.052734 250.90625 L 56.919922 250.91992 L 56.787109 250.94727 L 56.654297 250.96094 L 56.519531 250.98633 L 56.386719 251 L 56.253906 251.02734 L 56.119141 251.03906 L 55.986328 251.05273 L 55.853516 251.08008 L 55.720703 251.09375 L 55.585938 251.10742 L 55.453125 251.13281 L 55.320312 251.14648 L 55.1875 251.16016 L 55.052734 251.1875 L 54.919922 251.19922 L 54.787109 251.21289 L 54.654297 251.24023 L 54.519531 251.25391 L 54.386719 251.26758 L 54.253906 251.2793 L 54.119141 251.30664 L 53.986328 251.32031 L 53.853516 251.33398 L 53.720703 251.3457 L 53.585938 251.37305 L 53.453125 251.38672 L 53.320312 251.40039 L 53.1875 251.41406 L 53.052734 251.42578 L 52.919922 251.43945 L 52.787109 251.4668 L 52.654297 251.48047 L 52.519531 251.49414 L 52.386719 251.50586 L 52.253906 251.51953 L 52.119141 251.5332 L 51.986328 251.54688 L 51.853516 251.56055 L 51.720703 251.57422 L 51.585938 251.59961 L 51.453125 251.61328 L 51.320312 251.62695 L 51.320312 251.64062 L 51.1875 253.88086 L 51.320312 253.88086 L 51.453125 253.88086 L 51.585938 253.88086 L 51.720703 253.88086 L 51.853516 253.88086 L 51.986328 253.88086 L 52.119141 253.88086 L 52.253906 253.88086 L 52.386719 253.88086 L 52.519531 253.88086 L 52.654297 253.88086 L 52.787109 253.88086 L 52.919922 253.88086 L 53.052734 253.88086 L 53.1875 253.88086 L 53.320312 253.88086 L 53.453125 253.88086 L 53.585938 253.88086 L 53.720703 253.88086 L 53.853516 253.88086 L 53.986328 253.88086 L 54.119141 253.88086 L 54.253906 253.88086 L 54.386719 253.88086 L 54.519531 253.88086 L 54.654297 253.88086 L 54.787109 253.88086 L 54.919922 253.88086 L 55.052734 253.88086 L 55.1875 253.88086 L 55.320312 253.88086 L 55.453125 253.88086 L 55.585938 253.88086 L 55.720703 253.88086 L 55.853516 253.88086 L 55.986328 253.88086 L 56.119141 253.88086 L 56.253906 253.88086 L 56.386719 253.88086 L 56.519531 253.88086 L 56.654297 253.88086 L 56.787109 253.88086 L 56.919922 253.88086 L 57.052734 253.88086 L 57.1875 253.88086 L 57.320312 253.88086 L 57.453125 253.88086 L 57.585938 253.88086 L 57.720703 253.88086 L 57.853516 253.88086 L 57.986328 253.88086 L 58.119141 253.88086 L 58.253906 253.88086 L 58.386719 253.88086 L 58.519531 253.88086 L 58.654297 253.88086 L 58.787109 253.88086 L 58.919922 253.88086 L 59.052734 253.88086 L 59.1875 253.88086 L 59.320312 253.88086 L 59.453125 253.88086 L 59.585938 253.88086 L 59.720703 253.88086 L 59.853516 253.88086 L 59.986328 253.88086 L 60.119141 253.88086 L 60.253906 253.88086 L 60.386719 253.88086 L 60.519531 253.88086 L 60.654297 253.88086 L 60.787109 253.88086 L 60.919922 253.88086 L 61.052734 253.88086 L 61.1875 253.88086 L 61.320312 253.88086 L 61.453125 253.88086 L 61.585938 253.88086 L 61.720703 253.88086 L 61.853516 253.88086 L 61.986328 253.88086 L 62.119141 253.88086 L 62.253906 253.88086 L 62.386719 253.88086 L 62.519531 253.88086 L 62.640625 253.88086 L 62.773438 253.88086 L 62.90625 253.88086 L 63.039062 253.88086 L 63.173828 253.88086 L 63.306641 253.88086 L 63.439453 253.88086 L 63.574219 253.88086 L 63.707031 253.88086 L 63.839844 253.88086 L 63.972656 253.88086 L 64.107422 253.88086 L 64.240234 253.88086 L 64.373047 253.88086 L 64.505859 253.88086 L 64.640625 253.88086 L 64.773438 253.88086 L 64.90625 253.88086 L 65.039062 253.88086 L 65.173828 253.88086 L 65.306641 253.88086 L 65.439453 253.88086 L 65.574219 253.88086 L 65.707031 253.88086 L 65.839844 253.88086 L 65.972656 253.88086 L 66.107422 253.88086 L 66.240234 253.88086 L 66.373047 253.88086 L 66.505859 253.88086 L 66.640625 253.88086 L 66.773438 253.88086 L 66.90625 253.88086 L 67.039062 253.88086 L 67.173828 253.88086 L 67.306641 253.88086 L 67.439453 253.88086 L 67.574219 253.88086 L 67.707031 253.88086 L 67.839844 253.88086 L 67.972656 253.88086 L 68.107422 253.88086 L 68.240234 253.88086 L 68.373047 253.88086 L 68.505859 253.88086 L 68.640625 253.88086 L 68.773438 253.88086 L 68.90625 253.88086 L 69.039062 253.88086 L 69.173828 253.88086 L 69.306641 253.88086 L 69.439453 253.88086 L 69.574219 253.88086 L 69.707031 253.88086 L 69.839844 253.88086 L 69.972656 253.88086 L 70.107422 253.88086 L 70.240234 253.88086 L 70.373047 253.88086 L 70.505859 253.88086 L 70.640625 253.88086 L 70.773438 253.88086 L 70.90625 253.88086 L 71.039062 253.88086 L 71.173828 253.88086 L 71.306641 253.88086 L 71.439453 253.88086 L 71.574219 253.88086 L 71.707031 253.88086 L 71.839844 253.88086 L 71.972656 253.88086 L 72.107422 253.88086 L 72.240234 253.88086 L 72.373047 253.88086 L 72.505859 253.88086 L 72.640625 253.88086 L 72.773438 253.88086 L 72.90625 253.88086 L 73.039062 253.88086 L 73.173828 253.88086 L 73.306641 253.88086 L 73.439453 253.88086 L 73.574219 253.88086 L 73.707031 253.88086 L 73.839844 253.88086 L 73.972656 253.88086 L 74.107422 253.88086 L 74.240234 253.88086 L 74.373047 253.88086 L 74.505859 253.88086 L 74.640625 253.88086 L 74.773438 253.88086 L 74.90625 253.88086 L 75.039062 253.88086 L 75.173828 253.88086 L 75.306641 253.88086 L 75.439453 253.88086 L 75.574219 253.88086 L 75.707031 253.88086 L 75.839844 253.88086 L 75.972656 253.88086 L 76.107422 253.88086 L 76.240234 253.88086 L 76.373047 253.88086 L 76.505859 253.88086 L 76.640625 253.88086 L 76.773438 253.88086 L 76.90625 253.88086 L 77.039062 253.88086 L 77.173828 253.88086 L 77.306641 253.88086 L 77.439453 253.88086 L 77.574219 253.88086 L 77.707031 253.88086 L 77.839844 253.88086 L 77.972656 253.88086 L 78.107422 253.88086 L 78.240234 253.88086 L 78.373047 253.88086 L 78.505859 253.88086 L 78.640625 253.88086 L 78.773438 253.88086 L 78.90625 253.88086 L 79.039062 253.88086 L 79.173828 253.88086 L 79.306641 253.88086 L 79.439453 253.88086 L 79.574219 253.88086 L 79.707031 253.88086 L 79.839844 253.88086 L 79.972656 253.88086 L 80.107422 253.88086 L 80.240234 253.88086 L 80.373047 253.88086 L 80.505859 253.88086 L 80.640625 253.88086 L 80.773438 253.88086 L 80.90625 253.88086 L 81.039062 253.88086 L 81.173828 253.88086 L 81.306641 253.88086 L 81.439453 253.88086 L 81.574219 253.88086 L 81.707031 253.88086 L 81.839844 253.88086 L 81.972656 253.88086 L 82.107422 253.88086 L 82.240234 253.88086 L 82.373047 253.88086 L 82.505859 253.88086 L 82.640625 253.88086 L 82.773438 253.88086 L 82.90625 253.88086 L 83.039062 253.88086 L 83.173828 253.88086 L 83.306641 253.88086 L 83.439453 253.88086 L 83.574219 253.88086 L 83.707031 253.88086 L 83.839844 253.88086 L 83.972656 253.88086 L 84.107422 253.88086 L 84.240234 253.88086 L 84.373047 253.88086 L 84.505859 253.88086 L 84.640625 253.88086 L 84.773438 253.88086 L 84.90625 253.88086 L 85.039062 253.88086 L 85.173828 253.88086 L 85.306641 253.88086 L 85.439453 253.88086 L 85.574219 253.88086 L 85.707031 253.88086 L 85.839844 253.88086 L 85.972656 253.88086 L 86.107422 253.88086 L 86.240234 253.88086 L 86.373047 253.88086 L 86.505859 253.88086 L 86.640625 253.88086 L 86.773438 253.88086 L 86.90625 253.88086 L 87.039062 253.88086 L 87.173828 253.88086 L 87.306641 253.88086 L 87.439453 253.88086 L 87.574219 253.88086 L 87.707031 253.88086 L 87.839844 253.88086 L 87.972656 253.88086 L 88.107422 253.88086 L 88.240234 253.88086 L 88.373047 253.88086 L 88.505859 253.88086 L 88.640625 253.88086 L 88.773438 253.88086 L 88.90625 253.88086 L 89.039062 253.88086 L 89.173828 253.88086 L 89.306641 253.88086 L 89.439453 253.88086 L 89.574219 253.88086 L 89.707031 253.88086 L 89.839844 253.88086 L 89.972656 253.88086 L 90.107422 253.88086 L 90.240234 253.88086 L 90.373047 253.88086 L 90.505859 253.88086 L 90.640625 253.88086 L 90.773438 253.88086 L 90.90625 253.88086 L 91.039062 253.88086 L 91.173828 253.88086 L 91.306641 253.88086 L 91.439453 253.88086 L 91.574219 253.88086 L 91.707031 253.88086 L 91.839844 253.88086 L 91.972656 253.88086 L 92.107422 253.88086 L 92.240234 253.88086 L 92.373047 253.88086 L 92.505859 253.88086 L 92.640625 253.88086 L 92.773438 253.88086 L 92.90625 253.88086 L 93.039062 253.88086 L 93.173828 253.88086 L 93.306641 253.88086 L 93.439453 253.88086 L 93.574219 253.88086 L 93.707031 253.88086 L 93.839844 253.88086 L 93.972656 253.88086 L 94.107422 253.88086 L 94.240234 253.88086 L 94.373047 253.88086 L 94.505859 253.88086 L 94.640625 253.88086 L 94.773438 253.88086 L 94.90625 253.88086 L 95.039062 253.88086 L 95.173828 253.88086 L 95.306641 253.88086 L 95.439453 253.88086 L 95.574219 253.88086 L 95.707031 253.88086 L 95.839844 253.88086 L 95.972656 253.88086 L 96.107422 253.88086 L 96.240234 253.88086 L 96.373047 253.88086 L 96.505859 253.88086 L 96.640625 253.88086 L 96.773438 253.88086 L 96.90625 253.88086 L 97.039062 253.88086 L 97.173828 253.88086 L 97.306641 253.88086 L 97.439453 253.88086 L 97.574219 253.88086 L 97.707031 253.88086 L 97.839844 253.88086 L 97.972656 253.88086 L 98.107422 253.88086 L 98.240234 253.88086 L 98.373047 253.88086 L 98.505859 253.88086 L 98.640625 253.88086 L 98.773438 253.88086 L 98.90625 253.88086 L 99.039062 253.88086 L 99.173828 253.88086 L 99.306641 253.88086 L 99.439453 253.88086 L 99.574219 253.88086 L 99.707031 253.88086 L 99.839844 253.88086 L 99.972656 253.88086 L 100.10742 253.88086 L 100.24023 253.88086 L 100.37305 253.88086 L 100.50586 253.88086 L 100.64062 253.88086 L 100.77344 253.88086 L 100.90625 253.88086 L 101.03906 253.88086 L 101.17383 253.88086 L 101.30664 253.88086 L 101.43945 253.88086 L 101.57422 253.88086 L 101.70703 253.88086 L 101.83984 253.88086 L 101.97266 253.88086 L 102.10742 253.88086 L 102.24023 253.88086 L 102.37305 253.88086 L 102.50586 253.88086 L 102.64062 253.88086 L 102.77344 253.88086 L 102.90625 253.88086 L 103.03906 253.88086 L 103.17383 253.88086 L 103.30664 253.88086 L 103.43945 253.88086 L 103.57422 253.88086 L 103.70703 253.88086 L 103.83984 253.88086 L 103.97266 253.88086 L 104.10742 253.88086 L 104.24023 253.88086 L 104.37305 253.88086 L 104.50586 253.88086 L 104.64062 253.88086 L 104.77344 253.88086 L 104.90625 253.88086 L 105.03906 253.88086 L 105.17383 253.88086 L 105.30664 253.88086 L 105.43945 253.88086 L 105.57422 253.88086 L 105.70703 253.88086 L 105.83984 253.88086 L 105.97266 253.88086 L 106.10742 253.88086 L 106.24023 253.88086 L 106.37305 253.88086 L 106.50586 253.88086 L 106.64062 253.88086 L 106.77344 253.88086 L 106.90625 253.88086 L 107.03906 253.88086 L 107.17383 253.88086 L 107.30664 253.88086 L 107.43945 253.88086 L 107.57422 253.88086 L 107.70703 253.88086 L 107.83984 253.88086 L 107.97266 253.88086 L 108.10742 253.88086 L 108.24023 253.88086 L 108.37305 253.88086 L 108.50586 253.88086 L 108.64062 253.88086 L 108.77344 253.88086 L 108.90625 253.88086 L 109.03906 253.88086 L 109.17383 253.88086 L 109.30664 253.88086 L 109.43945 253.88086 L 109.57422 253.88086 L 109.70703 253.88086 L 109.83984 253.88086 L 109.97266 253.88086 L 110.10742 253.88086 L 110.24023 253.88086 L 110.37305 253.88086 L 110.50586 253.88086 L 110.64062 253.88086 L 110.77344 253.88086 L 110.90625 253.88086 L 111.03906 253.88086 L 111.17383 253.88086 L 111.30664 253.88086 L 111.43945 253.88086 L 111.57422 253.88086 L 111.70703 253.88086 L 111.82617 253.88086 L 111.96094 253.88086 L 112.09375 253.88086 L 112.22656 253.88086 L 112.35938 253.88086 L 112.49414 253.88086 L 112.62695 253.88086 L 112.75977 253.88086 L 112.89258 253.88086 L 113.02734 253.88086 L 113.16016 253.88086 L 113.29297 253.88086 L 113.42578 253.88086 L 113.56055 253.88086 L 113.69336 253.88086 L 113.82617 253.88086 L 113.96094 253.88086 L 114.09375 253.88086 L 114.22656 253.88086 L 114.35938 253.88086 L 114.49414 253.88086 L 114.62695 253.88086 L 114.75977 253.88086 L 114.89258 253.88086 L 115.02734 253.88086 L 115.16016 253.88086 L 115.29297 253.88086 L 115.42578 253.88086 L 115.56055 253.88086 L 115.69336 253.88086 L 115.82617 253.88086 L 115.96094 253.88086 L 116.09375 253.88086 L 116.22656 253.88086 L 116.35938 253.88086 L 116.49414 253.88086 L 116.62695 253.88086 L 116.75977 253.88086 L 116.89258 253.88086 L 117.02734 253.88086 L 117.16016 253.88086 L 117.29297 253.88086 L 117.42578 253.88086 L 117.56055 253.88086 L 117.69336 253.88086 L 117.82617 253.88086 L 117.96094 253.88086 L 118.09375 253.88086 L 118.22656 253.88086 L 118.35938 253.88086 L 118.49414 253.88086 L 118.62695 253.88086 L 118.75977 253.88086 L 118.89258 253.88086 L 119.02734 253.88086 L 119.16016 253.88086 L 119.29297 253.88086 L 119.42578 253.88086 L 119.56055 253.88086 L 119.69336 253.88086 L 119.82617 253.88086 L 119.96094 253.88086 L 120.09375 253.88086 L 120.22656 253.88086 L 120.35938 253.88086 L 120.49414 253.88086 L 120.62695 253.88086 L 120.75977 253.88086 L 120.89258 253.88086 L 121.02734 253.88086 L 121.16016 253.88086 L 121.29297 253.88086 L 121.42578 253.88086 L 121.56055 253.88086 L 121.69336 253.88086 L 121.82617 253.88086 L 121.96094 253.88086 L 122.09375 253.88086 L 122.22656 253.88086 L 122.35938 253.88086 L 122.49414 253.88086 L 122.62695 253.88086 L 122.75977 253.88086 L 122.89258 253.88086 L 123.02734 253.88086 L 123.16016 253.88086 L 123.29297 253.88086 L 123.42578 253.88086 L 123.56055 253.88086 L 123.69336 253.88086 L 123.82617 253.88086 L 123.96094 253.88086 L 124.09375 253.88086 L 124.22656 253.88086 L 124.35938 253.88086 L 124.49414 253.88086 L 124.62695 253.88086 L 124.75977 253.88086 L 124.89258 253.88086 L 125.02734 253.88086 L 125.16016 253.88086 L 125.29297 253.88086 L 125.42578 253.88086 L 125.56055 253.88086 L 125.69336 253.88086 L 125.82617 253.88086 L 125.96094 253.88086 L 126.09375 253.88086 L 126.22656 253.88086 L 126.35938 253.88086 L 126.49414 253.88086 L 126.62695 253.88086 L 126.75977 253.88086 L 126.89258 253.88086 L 127.02734 253.88086 L 127.16016 253.88086 L 127.29297 253.88086 L 127.42578 253.88086 L 127.56055 253.88086 L 127.69336 253.88086 L 127.82617 253.88086 L 127.96094 253.88086 L 128.09375 253.88086 L 128.22656 253.88086 L 128.35938 253.88086 L 128.49414 253.88086 L 128.62695 253.88086 L 128.75977 253.88086 L 128.89258 253.88086 L 129.02734 253.88086 L 129.16016 253.88086 L 129.29297 253.88086 L 129.42578 253.88086 L 129.56055 253.88086 L 129.69336 253.88086 L 129.82617 253.88086 L 129.96094 253.88086 L 130.09375 253.88086 L 130.22656 253.88086 L 130.35938 253.88086 L 130.49414 253.88086 L 130.62695 253.88086 L 130.75977 253.88086 L 130.89258 253.88086 L 131.02734 253.88086 L 131.16016 253.88086 L 131.29297 253.88086 L 131.42578 253.88086 L 131.56055 253.88086 L 131.69336 253.88086 L 131.82617 253.88086 L 131.96094 253.88086 L 132.09375 253.88086 L 132.22656 253.88086 L 132.35938 253.88086 L 132.49414 253.88086 L 132.62695 253.88086 L 132.75977 253.88086 L 132.89258 253.88086 L 133.02734 253.88086 L 133.16016 253.88086 L 133.29297 253.88086 L 133.42578 253.88086 L 133.56055 253.88086 L 133.69336 253.88086 L 133.82617 253.88086 L 133.96094 253.88086 L 134.09375 253.88086 L 134.22656 253.88086 L 134.35938 253.88086 L 134.49414 253.88086 L 134.62695 253.88086 L 134.75977 253.88086 L 134.89258 253.88086 L 135.02734 253.88086 L 135.16016 253.88086 L 135.29297 253.88086 L 135.42578 253.88086 L 135.56055 253.88086 L 135.69336 253.88086 L 135.82617 253.88086 L 135.96094 253.88086 L 136.09375 253.88086 L 136.22656 253.88086 L 136.35938 253.88086 L 136.49414 253.88086 L 136.62695 253.88086 L 136.75977 253.88086 L 136.89258 253.88086 L 137.02734 253.88086 L 137.16016 253.88086 L 137.29297 253.88086 L 137.42578 253.88086 L 137.56055 253.88086 L 137.69336 253.88086 L 137.82617 253.88086 L 137.96094 253.88086 L 138.09375 253.88086 L 138.22656 253.88086 L 138.35938 253.88086 L 138.49414 253.88086 L 138.62695 253.88086 L 138.75977 253.88086 L 138.89258 253.88086 L 139.02734 253.88086 L 139.16016 253.88086 L 139.29297 253.88086 L 139.42578 253.88086 L 139.56055 253.88086 L 139.69336 253.88086 L 139.82617 253.88086 L 139.96094 253.88086 L 140.09375 253.88086 L 140.22656 253.88086 L 140.35938 253.88086 L 140.49414 253.88086 L 140.62695 253.88086 L 140.75977 253.88086 L 140.89258 253.88086 L 141.02734 253.88086 L 141.16016 253.88086 L 141.29297 253.88086 L 141.42578 253.88086 L 141.56055 253.88086 L 141.69336 253.88086 L 141.82617 253.88086 L 141.96094 253.88086 L 142.09375 253.88086 L 142.22656 253.88086 L 142.35938 253.88086 L 142.49414 253.88086 L 142.62695 253.88086 L 142.75977 253.88086 L 142.89258 253.88086 L 143.02734 253.88086 L 143.16016 253.88086 L 143.29297 253.88086 L 143.42578 253.88086 L 143.56055 253.88086 L 143.69336 253.88086 L 143.82617 253.88086 L 143.96094 253.88086 L 144.09375 253.88086 L 144.22656 253.88086 L 144.35938 253.88086 L 144.49414 253.88086 L 144.62695 253.88086 L 144.75977 253.88086 L 144.89258 253.88086 L 145.02734 253.88086 L 145.16016 253.88086 L 145.29297 253.88086 L 145.42578 253.88086 L 145.56055 253.88086 L 145.69336 253.88086 L 145.82617 253.88086 L 145.96094 253.88086 L 146.09375 253.88086 L 146.22656 253.88086 L 146.35938 253.88086 L 146.49414 253.88086 L 146.62695 253.88086 L 146.75977 253.88086 L 146.89258 253.88086 L 147.02734 253.88086 L 147.16016 253.88086 L 147.29297 253.88086 L 147.42578 253.88086 L 147.56055 253.88086 L 147.69336 253.88086 L 147.82617 253.88086 L 147.96094 253.88086 L 148.09375 253.88086 L 148.22656 253.88086 L 148.35938 253.88086 L 148.49414 253.88086 L 148.62695 253.88086 L 148.75977 253.88086 L 148.89258 253.88086 L 149.02734 253.88086 L 149.16016 253.88086 L 149.29297 253.88086 L 149.42578 253.88086 L 149.56055 253.88086 L 149.69336 253.88086 L 149.82617 253.88086 L 149.96094 253.88086 L 150.09375 253.88086 L 150.22656 253.88086 L 150.35938 253.88086 L 150.49414 253.88086 L 150.62695 253.88086 L 150.75977 253.88086 L 150.89258 253.88086 L 151.02734 253.88086 L 151.16016 253.88086 L 151.29297 253.88086 L 151.42578 253.88086 L 151.56055 253.88086 L 151.69336 253.88086 L 151.82617 253.88086 L 151.96094 253.88086 L 152.09375 253.88086 L 152.22656 253.88086 L 152.35938 253.88086 L 152.49414 253.88086 L 152.62695 253.88086 L 152.75977 253.88086 L 152.89258 253.88086 L 153.02734 253.88086 L 153.16016 253.88086 L 153.29297 253.88086 L 153.42578 253.88086 L 153.56055 253.88086 L 153.69336 253.88086 L 153.82617 253.88086 L 153.96094 253.88086 L 154.09375 253.88086 L 154.22656 253.88086 L 154.35938 253.88086 L 154.49414 253.88086 L 154.62695 253.88086 L 154.75977 253.88086 L 154.89258 253.88086 L 155.02734 253.88086 L 155.16016 253.88086 L 155.29297 253.88086 L 155.42578 253.88086 L 155.56055 253.88086 L 155.69336 253.88086 L 155.82617 253.88086 L 155.96094 253.88086 L 156.09375 253.88086 L 156.22656 253.88086 L 156.35938 253.88086 L 156.49414 253.88086 L 156.62695 253.88086 L 156.75977 253.88086 L 156.89258 253.88086 L 157.02734 253.88086 L 157.16016 253.88086 L 157.29297 253.88086 L 157.42578 253.88086 L 157.56055 253.88086 L 157.69336 253.88086 L 157.82617 253.88086 L 157.96094 253.88086 L 158.09375 253.88086 L 158.22656 253.88086 L 158.35938 253.88086 L 158.49414 253.88086 L 158.62695 253.88086 L 158.75977 253.88086 L 158.89258 253.88086 L 159.02734 253.88086 L 159.16016 253.88086 L 159.29297 253.88086 L 159.42578 253.88086 L 159.56055 253.88086 L 159.69336 253.88086 L 159.82617 253.88086 L 159.96094 253.88086 L 160.09375 253.88086 L 160.22656 253.88086 L 160.35938 253.88086 L 160.49414 253.88086 L 160.62695 253.88086 L 160.75977 253.88086 L 160.88086 253.88086 L 161.01367 253.88086 L 161.14648 253.88086 L 161.2793 253.88086 L 161.41406 253.88086 L 161.54688 253.88086 L 161.67969 253.88086 L 161.8125 253.88086 L 161.94727 253.88086 L 162.08008 253.88086 L 162.21289 253.88086 L 162.3457 253.88086 L 162.48047 253.88086 L 162.61328 253.88086 L 162.74609 253.88086 L 162.88086 253.88086 L 163.01367 253.88086 L 163.14648 253.88086 L 163.2793 253.88086 L 163.41406 253.88086 L 163.54688 253.88086 L 163.67969 253.88086 L 163.8125 253.88086 L 163.94727 253.88086 L 164.08008 253.88086 L 164.21289 253.88086 L 164.3457 253.88086 L 164.48047 253.88086 L 164.61328 253.88086 L 164.74609 253.88086 L 164.88086 253.88086 L 165.01367 253.88086 L 165.14648 253.88086 L 165.2793 253.88086 L 165.41406 253.88086 L 165.54688 253.88086 L 165.67969 253.88086 L 165.8125 253.88086 L 165.94727 253.88086 L 166.08008 253.88086 L 166.21289 253.88086 L 166.3457 253.88086 L 166.48047 253.88086 L 166.61328 253.88086 L 166.74609 253.88086 L 166.88086 253.88086 L 167.01367 253.88086 L 167.14648 253.88086 L 167.2793 253.88086 L 167.41406 253.88086 L 167.54688 253.88086 L 167.67969 253.88086 L 167.8125 253.88086 L 167.94727 253.88086 L 168.08008 253.88086 L 168.21289 253.88086 L 168.3457 253.88086 L 168.48047 253.88086 L 168.61328 253.88086 L 168.74609 253.88086 L 168.88086 253.88086 L 169.01367 253.88086 L 169.14648 253.88086 L 169.2793 253.88086 L 169.41406 253.88086 L 169.54688 253.88086 L 169.67969 253.88086 L 169.8125 253.88086 L 169.94727 253.88086 L 170.08008 253.88086 L 170.21289 253.88086 L 170.3457 253.88086 L 170.48047 253.88086 L 170.61328 253.88086 L 170.74609 253.88086 L 170.88086 253.88086 L 171.01367 253.88086 L 171.14648 253.88086 L 171.2793 253.88086 L 171.41406 253.88086 L 171.54688 253.88086 L 171.67969 253.88086 L 171.8125 253.88086 L 171.94727 253.88086 L 172.08008 253.88086 L 172.21289 253.88086 L 172.3457 253.88086 L 172.48047 253.88086 L 172.61328 253.88086 L 172.74609 253.88086 L 172.88086 253.88086 L 173.01367 253.88086 L 173.14648 253.88086 L 173.2793 253.88086 L 173.41406 253.88086 L 173.54688 253.88086 L 173.67969 253.88086 L 173.8125 253.88086 L 173.94727 253.88086 L 174.08008 253.88086 L 174.21289 253.88086 L 174.3457 253.88086 L 174.48047 253.88086 L 174.61328 253.88086 L 174.74609 253.88086 L 174.88086 253.88086 L 175.01367 253.88086 L 175.14648 253.88086 L 175.2793 253.88086 L 175.41406 253.88086 L 175.54688 253.88086 L 175.67969 253.88086 L 175.8125 253.88086 L 175.94727 253.88086 L 176.08008 253.88086 L 176.21289 253.88086 L 176.3457 253.88086 L 176.48047 253.88086 L 176.61328 253.88086 L 176.74609 253.88086 L 176.88086 253.88086 L 177.01367 253.88086 L 177.14648 253.88086 L 177.2793 253.88086 L 177.41406 253.88086 L 177.54688 253.88086 L 177.67969 253.88086 L 177.8125 253.88086 L 177.94727 253.88086 L 178.08008 253.88086 L 178.21289 253.88086 L 178.3457 253.88086 L 178.48047 253.88086 L 178.61328 253.88086 L 178.74609 253.88086 L 178.88086 253.88086 L 179.01367 253.88086 L 179.14648 253.88086 L 179.2793 253.88086 L 179.41406 253.88086 L 179.54688 253.88086 L 179.67969 253.88086 L 179.8125 253.88086 L 179.94727 253.88086 L 180.08008 253.88086 L 180.21289 253.88086 L 180.3457 253.88086 L 180.48047 253.88086 L 180.61328 253.88086 L 180.74609 253.88086 L 180.88086 253.88086 L 181.01367 253.88086 L 181.14648 253.88086 L 181.2793 253.88086 L 181.41406 253.88086 L 181.54688 253.88086 L 181.67969 253.88086 L 181.8125 253.88086 L 181.94727 253.88086 L 182.08008 253.88086 L 182.21289 253.88086 L 182.3457 253.88086 L 182.48047 253.88086 L 182.61328 253.88086 L 182.74609 253.88086 L 182.88086 253.88086 L 183.01367 253.88086 L 183.14648 253.88086 L 183.2793 253.88086 L 183.41406 253.88086 L 183.54688 253.88086 L 183.67969 253.88086 L 183.8125 253.88086 L 183.94727 253.88086 L 184.08008 253.88086 L 184.21289 253.88086 L 184.3457 253.88086 L 184.48047 253.88086 L 184.61328 253.88086 L 184.74609 253.88086 L 184.88086 253.88086 L 185.01367 253.88086 L 185.14648 253.88086 L 185.2793 253.88086 L 185.41406 253.88086 L 185.54688 253.88086 L 185.67969 253.88086 L 185.8125 253.88086 L 185.94727 253.88086 L 186.08008 253.88086 L 186.21289 253.88086 L 186.3457 253.88086 L 186.48047 253.88086 L 186.61328 253.88086 L 186.74609 253.88086 L 186.88086 253.88086 L 187.01367 253.88086 L 187.14648 253.88086 L 187.2793 253.88086 L 187.41406 253.88086 L 187.54688 253.88086 L 187.67969 253.88086 L 187.8125 253.88086 L 187.94727 253.88086 L 188.08008 253.88086 L 188.21289 253.88086 L 188.3457 253.88086 L 188.48047 253.88086 L 188.61328 253.88086 L 188.74609 253.88086 L 188.88086 253.88086 L 189.01367 253.88086 L 189.14648 253.88086 L 189.2793 253.88086 L 189.41406 253.88086 L 189.54688 253.88086 L 189.67969 253.88086 L 189.8125 253.88086 L 189.94727 253.88086 L 190.08008 253.88086 L 190.21289 253.88086 L 190.3457 253.88086 L 190.48047 253.88086 L 190.61328 253.88086 L 190.74609 253.88086 L 190.88086 253.88086 L 191.01367 253.88086 L 191.14648 253.88086 L 191.2793 253.88086 L 191.41406 253.88086 L 191.54688 253.88086 L 191.67969 253.88086 L 191.8125 253.88086 L 191.94727 253.88086 L 192.08008 253.88086 L 192.21289 253.88086 L 192.3457 253.88086 L 192.48047 253.88086 L 192.61328 253.88086 L 192.74609 253.88086 L 192.88086 253.88086 L 193.01367 253.88086 L 193.14648 253.88086 L 193.2793 253.88086 L 193.41406 253.88086 L 193.54688 253.88086 L 193.67969 253.88086 L 193.8125 253.88086 L 193.94727 253.88086 L 194.08008 253.88086 L 194.21289 253.88086 L 194.3457 253.88086 L 194.48047 253.88086 L 194.61328 253.88086 L 194.74609 253.88086 L 194.88086 253.88086 L 195.01367 253.88086 L 195.14648 253.88086 L 195.2793 253.88086 L 195.41406 253.88086 L 195.54688 253.88086 L 195.67969 253.88086 L 195.8125 253.88086 L 195.94727 253.88086 L 196.08008 253.88086 L 196.21289 253.88086 L 196.3457 253.88086 L 196.48047 253.88086 L 196.61328 253.88086 L 196.74609 253.88086 L 196.88086 253.88086 L 197.01367 253.88086 L 197.14648 253.88086 L 197.2793 253.88086 L 197.41406 253.88086 L 197.54688 253.88086 L 197.67969 253.88086 L 197.8125 253.88086 L 197.94727 253.88086 L 198.08008 253.88086 L 198.21289 253.88086 L 198.3457 253.88086 L 198.48047 253.88086 L 198.61328 253.88086 L 198.74609 253.88086 L 198.88086 253.88086 L 199.01367 253.88086 L 199.14648 253.88086 L 199.2793 253.88086 L 199.41406 253.88086 L 199.54688 253.88086 L 199.67969 253.88086 L 199.8125 253.88086 L 199.94727 253.88086 L 200.08008 253.88086 L 200.21289 253.88086 L 200.3457 253.88086 L 200.48047 253.88086 L 200.61328 253.88086 L 200.74609 253.88086 L 200.88086 253.88086 L 201.01367 253.88086 L 201.14648 253.88086 L 201.2793 253.88086 L 201.41406 253.88086 L 201.54688 253.88086 L 201.67969 253.88086 L 201.8125 253.88086 L 201.94727 253.88086 L 202.08008 253.88086 L 202.21289 253.88086 L 202.3457 253.88086 L 202.48047 253.88086 L 202.61328 253.88086 L 202.74609 253.88086 L 202.88086 253.88086 L 203.01367 253.88086 L 203.14648 253.88086 L 203.2793 253.88086 L 203.41406 253.88086 L 203.54688 253.88086 L 203.67969 253.88086 L 203.8125 253.88086 L 203.94727 253.88086 L 204.08008 253.88086 L 204.21289 253.88086 L 204.3457 253.88086 L 204.48047 253.88086 L 204.61328 253.88086 L 204.74609 253.88086 L 204.88086 253.88086 L 205.01367 253.88086 L 205.14648 253.88086 L 205.2793 253.88086 L 205.41406 253.88086 L 205.54688 253.88086 L 205.67969 253.88086 L 205.8125 253.88086 L 205.94727 253.88086 L 206.08008 253.88086 L 206.21289 253.88086 L 206.3457 253.88086 L 206.48047 253.88086 L 206.61328 253.88086 L 206.74609 253.88086 L 206.88086 253.88086 L 207.01367 253.88086 L 207.14648 253.88086 L 207.2793 253.88086 L 207.41406 253.88086 L 207.54688 253.88086 L 207.67969 253.88086 L 207.8125 253.88086 L 207.94727 253.88086 L 208.08008 253.88086 L 208.21289 253.88086 L 208.3457 253.88086 L 208.48047 253.88086 L 208.61328 253.88086 L 208.74609 253.88086 L 208.88086 253.88086 L 209.01367 253.88086 L 209.14648 253.88086 L 209.2793 253.88086 L 209.41406 253.88086 L 209.54688 253.88086 L 209.67969 253.88086 L 209.8125 253.88086 L 209.94727 253.88086 L 210.06641 253.88086 L 210.19922 253.88086 L 210.33398 253.88086 L 210.4668 253.88086 L 210.59961 253.88086 L 210.73242 253.88086 L 210.86719 253.88086 L 211 253.88086 L 211.13281 253.88086 L 211.26758 253.88086 L 211.40039 253.88086 L 211.5332 253.88086 L 211.66602 253.88086 L 211.80078 253.88086 L 211.93359 253.88086 L 212.06641 253.88086 L 212.19922 253.88086 L 212.33398 253.88086 L 212.4668 253.88086 L 212.59961 253.88086 L 212.73242 253.88086 L 212.86719 253.88086 L 213 253.88086 L 213.13281 253.88086 L 213.26758 253.88086 L 213.40039 253.88086 L 213.5332 253.88086 L 213.66602 253.88086 L 213.80078 253.88086 L 213.93359 253.88086 L 214.06641 253.88086 L 214.19922 253.88086 L 214.33398 253.88086 L 214.4668 253.88086 L 214.59961 253.88086 L 214.73242 253.88086 L 214.86719 253.88086 L 215 253.88086 L 215.13281 253.88086 L 215.26758 253.88086 L 215.40039 253.88086 L 215.5332 253.88086 L 215.66602 253.88086 L 215.80078 253.88086 L 215.93359 253.88086 L 216.06641 253.88086 L 216.19922 253.88086 L 216.33398 253.88086 L 216.4668 253.88086 L 216.59961 253.88086 L 216.73242 253.88086 L 216.86719 253.88086 L 217 253.88086 L 217.13281 253.88086 L 217.26758 253.88086 L 217.40039 253.88086 L 217.5332 253.88086 L 217.66602 253.88086 L 217.80078 253.88086 L 217.93359 253.88086 L 218.06641 253.88086 L 218.19922 253.88086 L 218.33398 253.88086 L 218.4668 253.88086 L 218.59961 253.88086 L 218.73242 253.88086 L 218.86719 253.88086 L 219 253.88086 L 219.13281 253.88086 L 219.26758 253.88086 L 219.40039 253.88086 L 219.5332 253.88086 L 219.66602 253.88086 L 219.80078 253.88086 L 219.93359 253.88086 L 220.06641 253.88086 L 220.19922 253.88086 L 220.33398 253.88086 L 220.4668 253.88086 L 220.59961 253.88086 L 220.73242 253.88086 L 220.86719 253.88086 L 221 253.88086 L 221.13281 253.88086 L 221.26758 253.88086 L 221.40039 253.88086 L 221.5332 253.88086 L 221.66602 253.88086 L 221.80078 253.88086 L 221.93359 253.88086 L 222.06641 253.88086 L 222.19922 253.88086 L 222.33398 253.88086 L 222.4668 253.88086 L 222.59961 253.88086 L 222.73242 253.88086 L 222.86719 253.88086 L 223 253.88086 L 223.13281 253.88086 L 223.26758 253.88086 L 223.40039 253.88086 L 223.5332 253.88086 L 223.66602 253.88086 L 223.80078 253.88086 L 223.93359 253.88086 L 224.06641 253.88086 L 224.19922 253.88086 L 224.33398 253.88086 L 224.4668 253.88086 L 224.59961 253.88086 L 224.73242 253.88086 L 224.86719 253.88086 L 225 253.88086 L 225.13281 253.88086 L 225.26758 253.88086 L 225.40039 253.88086 L 225.5332 253.88086 L 225.66602 253.88086 L 225.80078 253.88086 L 225.93359 253.88086 L 226.06641 253.88086 L 226.19922 253.88086 L 226.33398 253.88086 L 226.4668 253.88086 L 226.59961 253.88086 L 226.73242 253.88086 L 226.86719 253.88086 L 227 253.88086 L 227.13281 253.88086 L 227.26758 253.88086 L 227.40039 253.88086 L 227.5332 253.88086 L 227.66602 253.88086 L 227.80078 253.88086 L 227.93359 253.88086 L 228.06641 253.88086 L 228.19922 253.88086 L 228.33398 253.88086 L 228.4668 253.88086 L 228.59961 253.88086 L 228.73242 253.88086 L 228.86719 253.88086 L 229 253.88086 L 229.13281 253.88086 L 229.26758 253.88086 L 229.40039 253.88086 L 229.5332 253.88086 L 229.66602 253.88086 L 229.80078 253.88086 L 229.93359 253.88086 L 230.06641 253.88086 L 230.19922 253.88086 L 230.33398 253.88086 L 230.4668 253.88086 L 230.59961 253.88086 L 230.73242 253.88086 L 230.86719 253.88086 L 231 253.88086 L 231.13281 253.88086 L 231.26758 253.88086 L 231.40039 253.88086 L 231.5332 253.88086 L 231.66602 253.88086 L 231.80078 253.88086 L 231.93359 253.88086 L 232.06641 253.88086 L 232.19922 253.88086 L 232.33398 253.88086 L 232.4668 253.88086 L 232.59961 253.88086 L 232.73242 253.88086 L 232.86719 253.88086 L 233 253.88086 L 233.13281 253.88086 L 233.26758 253.88086 L 233.40039 253.88086 L 233.5332 253.88086 L 233.66602 253.88086 L 233.80078 253.88086 L 233.93359 253.88086 L 234.06641 253.88086 L 234.19922 253.88086 L 234.33398 253.88086 L 234.4668 253.88086 L 234.59961 253.88086 L 234.73242 253.88086 L 234.86719 253.88086 L 235 253.88086 L 235.13281 253.88086 L 235.26758 253.88086 L 235.40039 253.88086 L 235.5332 253.88086 L 235.66602 253.88086 L 235.80078 253.88086 L 235.93359 253.88086 L 236.06641 253.88086 L 236.19922 253.88086 L 236.33398 253.88086 L 236.4668 253.88086 L 236.59961 253.88086 L 236.73242 253.88086 L 236.86719 253.88086 L 237 253.88086 L 237.13281 253.88086 L 237.26758 253.88086 L 237.40039 253.88086 L 237.5332 253.88086 L 237.66602 253.88086 L 237.80078 253.88086 L 237.93359 253.88086 L 238.06641 253.88086 L 238.19922 253.88086 L 238.33398 253.88086 L 238.4668 253.88086 L 238.59961 253.88086 L 238.73242 253.88086 L 238.86719 253.88086 L 239 253.88086 L 239.13281 253.88086 L 239.26758 253.88086 L 239.40039 253.88086 L 239.5332 253.88086 L 239.66602 253.88086 L 239.80078 253.88086 L 239.93359 253.88086 L 240.06641 253.88086 L 240.19922 253.88086 L 240.33398 253.88086 L 240.4668 253.88086 L 240.59961 253.88086 L 240.73242 253.88086 L 240.86719 253.88086 L 241 253.88086 L 241.13281 253.88086 L 241.26758 253.88086 L 241.40039 253.88086 L 241.5332 253.88086 L 241.66602 253.88086 L 241.80078 253.88086 L 241.93359 253.88086 L 242.06641 253.88086 L 242.19922 253.88086 L 242.33398 253.88086 L 242.4668 253.88086 L 242.59961 253.88086 L 242.73242 253.88086 L 242.86719 253.88086 L 243 253.88086 L 243.13281 253.88086 L 243.26758 253.88086 L 243.40039 253.88086 L 243.5332 253.88086 L 243.66602 253.88086 L 243.80078 253.88086 L 243.93359 253.88086 L 244.06641 253.88086 L 244.19922 253.88086 L 244.33398 253.88086 L 244.4668 253.88086 L 244.59961 253.88086 L 244.73242 253.88086 L 244.86719 253.88086 L 245 253.88086 L 245.13281 253.88086 L 245.26758 253.88086 L 245.40039 253.88086 L 245.5332 253.88086 L 245.66602 253.88086 L 245.80078 253.88086 L 245.93359 253.88086 L 246.06641 253.88086 L 246.19922 253.88086 L 246.33398 253.88086 L 246.4668 253.88086 L 246.59961 253.88086 L 246.73242 253.88086 L 246.86719 253.88086 L 247 253.88086 L 247.13281 253.88086 L 247.26758 253.88086 L 247.40039 253.88086 L 247.5332 253.88086 L 247.66602 253.88086 L 247.80078 253.88086 L 247.93359 253.88086 L 248.06641 253.88086 L 248.19922 253.88086 L 248.33398 253.88086 L 248.4668 253.88086 L 248.59961 253.88086 L 248.73242 253.88086 L 248.86719 253.88086 L 249 253.88086 L 249.13281 253.88086 L 249.26758 253.88086 L 249.40039 253.88086 L 249.5332 253.88086 L 249.66602 253.88086 L 249.80078 253.88086 L 249.93359 253.88086 L 250.06641 253.88086 L 250.19922 253.88086 L 250.33398 253.88086 L 250.4668 253.88086 L 250.59961 253.88086 L 250.73242 253.88086 L 250.86719 253.88086 L 251 253.88086 L 251.13281 253.88086 L 251.26758 253.88086 L 251.40039 253.88086 L 251.5332 253.88086 L 251.66602 253.88086 L 251.80078 253.88086 L 251.93359 253.88086 L 252.06641 253.88086 L 252.19922 253.88086 L 252.33398 253.88086 L 252.4668 253.88086 L 252.59961 253.88086 L 252.73242 253.88086 L 252.86719 253.88086 L 253 253.88086 L 253.13281 253.88086 L 253.26758 253.88086 L 253.40039 253.88086 L 253.5332 253.88086 L 253.66602 253.88086 L 253.80078 253.88086 L 253.93359 253.88086 L 254.06641 253.88086 L 254.19922 253.88086 L 254.33398 253.88086 L 254.4668 253.88086 L 254.59961 253.88086 L 254.73242 253.88086 L 254.86719 253.88086 L 255 253.88086 L 255.13281 253.88086 L 255.26758 253.88086 L 255.40039 253.88086 L 255.5332 253.88086 L 255.66602 253.88086 L 255.80078 253.88086 L 255.93359 253.88086 L 256.06641 253.88086 L 256.19922 253.88086 L 256.33398 253.88086 L 256.4668 253.88086 L 256.59961 253.88086 L 256.73242 253.88086 L 256.86719 253.88086 L 257 253.88086 L 257.13281 253.88086 L 257.26758 253.88086 L 257.40039 253.88086 L 257.5332 253.88086 L 257.66602 253.88086 L 257.80078 253.88086 L 257.93359 253.88086 L 258.06641 253.88086 L 258.19922 253.88086 L 258.33398 253.88086 L 258.4668 253.88086 L 258.59961 253.88086 L 258.73242 253.88086 L 258.86719 253.88086 L 259 253.88086 L 259.11914 253.88086 L 259.25391 253.88086 L 259.38672 253.88086 L 259.51953 253.88086 L 259.6543 253.88086 L 259.78711 253.88086 L 259.91992 253.88086 L 260.05273 253.88086 L 260.1875 253.88086 L 260.32031 253.88086 L 260.45312 253.88086 L 260.58594 253.88086 L 260.7207 253.88086 L 260.85352 253.88086 L 260.98633 253.88086 L 261.11914 253.88086 L 261.25391 253.88086 L 261.38672 253.88086 L 261.51953 253.88086 L 261.6543 253.88086 L 261.78711 253.88086 L 261.91992 253.88086 L 262.05273 253.88086 L 262.1875 253.88086 L 262.32031 253.88086 L 262.45312 253.88086 L 262.58594 253.88086 L 262.7207 253.88086 L 262.85352 253.88086 L 262.98633 253.88086 L 263.11914 253.88086 L 263.25391 253.88086 L 263.38672 253.88086 L 263.51953 253.88086 L 263.6543 253.88086 L 263.78711 253.88086 L 263.91992 253.88086 L 264.05273 253.88086 L 264.1875 253.88086 L 264.32031 253.88086 L 264.45312 253.88086 L 264.58594 253.88086 L 264.7207 253.88086 L 264.85352 253.88086 L 264.98633 253.88086 L 265.11914 253.88086 L 265.25391 253.88086 L 265.38672 253.88086 L 265.51953 253.88086 L 265.6543 253.88086 L 265.78711 253.88086 L 265.91992 253.88086 L 266.05273 253.88086 L 266.1875 253.88086 L 266.32031 253.88086 L 266.45312 253.88086 L 266.58594 253.88086 L 266.7207 253.88086 L 266.85352 253.88086 L 266.98633 253.88086 L 267.11914 253.88086 L 267.25391 253.88086 L 267.38672 253.88086 L 267.51953 253.88086 L 267.6543 253.88086 L 267.78711 253.88086 L 267.91992 253.88086 L 268.05273 253.88086 L 268.1875 253.88086 L 268.32031 253.88086 L 268.45312 253.88086 L 268.58594 253.88086 L 268.7207 253.88086 L 268.85352 253.88086 L 268.98633 253.88086 L 269.11914 253.88086 L 269.25391 253.88086 L 269.38672 253.88086 L 269.51953 253.88086 L 269.6543 253.88086 L 269.78711 253.88086 L 269.91992 253.88086 L 270.05273 253.88086 L 270.1875 253.88086 L 270.32031 253.88086 L 270.45312 253.88086 L 270.58594 253.88086 L 270.7207 253.88086 L 270.85352 253.88086 L 270.98633 253.88086 L 271.11914 253.88086 L 271.25391 253.88086 L 271.38672 253.88086 L 271.51953 253.88086 L 271.6543 253.88086 L 271.78711 253.88086 L 271.91992 253.88086 L 272.05273 253.88086 L 272.1875 253.88086 L 272.32031 253.88086 L 272.45312 253.88086 L 272.58594 253.88086 L 272.7207 253.88086 L 272.85352 253.88086 L 272.98633 253.88086 L 273.11914 253.88086 L 273.25391 253.88086 L 273.38672 253.88086 L 273.51953 253.88086 L 273.6543 253.88086 L 273.78711 253.88086 L 273.91992 253.88086 L 274.05273 253.88086 L 274.1875 253.88086 L 274.32031 253.88086 L 274.45312 253.88086 L 274.58594 253.88086 L 274.7207 253.88086 L 274.85352 253.88086 L 274.98633 253.88086 L 275.11914 253.88086 L 275.25391 253.88086 L 275.38672 253.88086 L 275.51953 253.88086 L 275.6543 253.88086 L 275.78711 253.88086 L 275.91992 253.88086 L 276.05273 253.88086 L 276.1875 253.88086 L 276.32031 253.88086 L 276.45312 253.88086 L 276.58594 253.88086 L 276.7207 253.88086 L 276.85352 253.88086 L 276.98633 253.88086 L 277.11914 253.88086 L 277.25391 253.88086 L 277.38672 253.88086 L 277.51953 253.88086 L 277.6543 253.88086 L 277.78711 253.88086 L 277.91992 253.88086 L 278.05273 253.88086 L 278.1875 253.88086 L 278.32031 253.88086 L 278.45312 253.88086 L 278.58594 253.88086 L 278.7207 253.88086 L 278.85352 253.88086 L 278.98633 253.88086 L 279.11914 253.88086 L 279.25391 253.88086 L 279.38672 253.88086 L 279.51953 253.88086 L 279.6543 253.88086 L 279.78711 253.88086 L 279.91992 253.88086 L 280.05273 253.88086 L 280.1875 253.88086 L 280.32031 253.88086 L 280.45312 253.88086 L 280.58594 253.88086 L 280.7207 253.88086 L 280.85352 253.88086 L 280.98633 253.88086 L 281.11914 253.88086 L 281.25391 253.88086 L 281.38672 253.88086 L 281.51953 253.88086 L 281.6543 253.88086 L 281.78711 253.88086 L 281.91992 253.88086 L 282.05273 253.88086 L 282.1875 253.88086 L 282.32031 253.88086 L 282.45312 253.88086 L 282.58594 253.88086 L 282.7207 253.88086 L 282.85352 253.88086 L 282.98633 253.88086 L 283.11914 253.88086 L 283.25391 253.88086 L 283.38672 253.88086 L 283.51953 253.88086 L 283.6543 253.88086 L 283.78711 253.88086 L 283.91992 253.88086 L 284.05273 253.88086 L 284.1875 253.88086 L 284.32031 253.88086 L 284.45312 253.88086 L 284.58594 253.88086 L 284.7207 253.88086 L 284.85352 253.88086 L 284.98633 253.88086 L 285.11914 253.88086 L 285.25391 253.88086 L 285.38672 253.88086 L 285.51953 253.88086 L 285.6543 253.88086 L 285.78711 253.88086 L 285.91992 253.88086 L 286.05273 253.88086 L 286.1875 253.88086 L 286.32031 253.88086 L 286.45312 253.88086 L 286.58594 253.88086 L 286.7207 253.88086 L 286.85352 253.88086 L 286.98633 253.88086 L 287.11914 253.88086 L 287.25391 253.88086 L 287.38672 253.88086 L 287.51953 253.88086 L 287.6543 253.88086 L 287.78711 253.88086 L 287.91992 253.88086 L 288.05273 253.88086 L 288.1875 253.88086 L 288.32031 253.88086 L 288.45312 253.88086 L 288.58594 253.88086 L 288.7207 253.88086 L 288.85352 253.88086 L 288.98633 253.88086 L 289.11914 253.88086 L 289.25391 253.88086 L 289.38672 253.88086 L 289.51953 253.88086 L 289.6543 253.88086 L 289.78711 253.88086 L 289.91992 253.88086 L 290.05273 253.88086 L 290.1875 253.88086 L 290.32031 253.88086 L 290.45312 253.88086 L 290.58594 253.88086 L 290.7207 253.88086 L 290.85352 253.88086 L 290.98633 253.88086 L 291.11914 253.88086 L 291.25391 253.88086 L 291.38672 253.88086 L 291.51953 253.88086 L 291.6543 253.88086 L 291.78711 253.88086 L 291.91992 253.88086 L 292.05273 253.88086 L 292.1875 253.88086 L 292.32031 253.88086 L 292.45312 253.88086 L 292.58594 253.88086 L 292.7207 253.88086 L 292.85352 253.88086 L 292.98633 253.88086 L 293.11914 253.88086 L 293.25391 253.88086 L 293.38672 253.88086 L 293.51953 253.88086 L 293.6543 253.88086 L 293.78711 253.88086 L 293.91992 253.88086 L 294.05273 253.88086 L 294.1875 253.88086 L 294.32031 253.88086 L 294.45312 253.88086 L 294.58594 253.88086 L 294.7207 253.88086 L 294.85352 253.88086 L 294.98633 253.88086 L 295.11914 253.88086 L 295.25391 253.88086 L 295.38672 253.88086 L 295.51953 253.88086 L 295.6543 253.88086 L 295.78711 253.88086 L 295.6543 253.86719 L 295.51953 253.86719 L 295.38672 253.86719 L 295.25391 253.86719 L 295.11914 253.86719 L 294.98633 253.86719 L 294.85352 253.86719 L 294.7207 253.86719 L 294.58594 253.86719 L 294.45312 253.86719 L 294.32031 253.86719 L 294.1875 253.86719 L 294.05273 253.86719 L 293.91992 253.86719 L 293.78711 253.86719 L 293.6543 253.86719 L 293.51953 253.86719 L 293.38672 253.86719 L 293.25391 253.86719 L 293.11914 253.86719 L 292.98633 253.86719 L 292.85352 253.86719 L 292.7207 253.86719 L 292.58594 253.86719 L 292.45312 253.86719 L 292.32031 253.86719 L 292.1875 253.86719 L 292.05273 253.86719 L 291.91992 253.86719 L 291.78711 253.86719 L 291.6543 253.86719 L 291.51953 253.86719 L 291.38672 253.86719 L 291.25391 253.86719 L 291.11914 253.86719 L 290.98633 253.86719 L 290.85352 253.86719 L 290.7207 253.86719 L 290.58594 253.86719 L 290.45312 253.86719 L 290.32031 253.86719 L 290.1875 253.86719 L 290.05273 253.86719 L 289.91992 253.86719 L 289.78711 253.86719 L 289.6543 253.86719 L 289.51953 253.86719 L 289.38672 253.86719 L 289.25391 253.86719 L 289.11914 253.86719 L 288.98633 253.86719 L 288.85352 253.86719 L 288.7207 253.86719 L 288.58594 253.86719 L 288.45312 253.86719 L 288.32031 253.86719 L 288.1875 253.86719 L 288.05273 253.86719 L 287.91992 253.86719 L 287.78711 253.86719 L 287.6543 253.86719 L 287.51953 253.86719 L 287.38672 253.86719 L 287.25391 253.86719 L 287.11914 253.86719 L 286.98633 253.86719 L 286.85352 253.86719 L 286.7207 253.86719 L 286.58594 253.86719 L 286.45312 253.86719 L 286.32031 253.86719 L 286.1875 253.86719 L 286.05273 253.85352 L 285.91992 253.85352 L 285.78711 253.85352 L 285.6543 253.85352 L 285.51953 253.85352 L 285.38672 253.85352 L 285.25391 253.85352 L 285.11914 253.85352 L 284.98633 253.85352 L 284.85352 253.85352 L 284.7207 253.85352 L 284.58594 253.85352 L 284.45312 253.85352 L 284.32031 253.85352 L 284.1875 253.85352 L 284.05273 253.85352 L 283.91992 253.85352 L 283.78711 253.85352 L 283.6543 253.85352 L 283.51953 253.85352 L 283.38672 253.85352 L 283.25391 253.85352 L 283.11914 253.85352 L 282.98633 253.85352 L 282.85352 253.85352 L 282.7207 253.85352 L 282.58594 253.85352 L 282.45312 253.85352 L 282.32031 253.85352 L 282.1875 253.85352 L 282.05273 253.85352 L 281.91992 253.85352 L 281.78711 253.85352 L 281.6543 253.85352 L 281.51953 253.85352 L 281.38672 253.85352 L 281.25391 253.85352 L 281.11914 253.85352 L 280.98633 253.85352 L 280.85352 253.83984 L 280.7207 253.83984 L 280.58594 253.83984 L 280.45312 253.83984 L 280.32031 253.83984 L 280.1875 253.83984 L 280.05273 253.83984 L 279.91992 253.83984 L 279.78711 253.83984 L 279.6543 253.83984 L 279.51953 253.83984 L 279.38672 253.83984 L 279.25391 253.83984 L 279.11914 253.83984 L 278.98633 253.83984 L 278.85352 253.83984 L 278.7207 253.83984 L 278.58594 253.83984 L 278.45312 253.83984 L 278.32031 253.83984 L 278.1875 253.83984 L 278.05273 253.83984 L 277.91992 253.83984 L 277.78711 253.83984 L 277.6543 253.83984 L 277.51953 253.83984 L 277.38672 253.82617 L 277.25391 253.82617 L 277.11914 253.82617 L 276.98633 253.82617 L 276.85352 253.82617 L 276.7207 253.82617 L 276.58594 253.82617 L 276.45312 253.82617 L 276.32031 253.82617 L 276.1875 253.82617 L 276.05273 253.82617 L 275.91992 253.82617 L 275.78711 253.82617 L 275.6543 253.82617 L 275.51953 253.82617 L 275.38672 253.82617 L 275.25391 253.82617 L 275.11914 253.82617 L 274.98633 253.82617 L 274.85352 253.82617 L 274.7207 253.82617 L 274.58594 253.8125 L 274.45312 253.8125 L 274.32031 253.8125 L 274.1875 253.8125 L 274.05273 253.8125 L 273.91992 253.8125 L 273.78711 253.8125 L 273.6543 253.8125 L 273.51953 253.8125 L 273.38672 253.8125 L 273.25391 253.8125 L 273.11914 253.8125 L 272.98633 253.8125 L 272.85352 253.8125 L 272.7207 253.8125 L 272.58594 253.8125 L 272.45312 253.80078 L 272.32031 253.80078 L 272.1875 253.80078 L 272.05273 253.80078 L 271.91992 253.80078 L 271.78711 253.80078 L 271.6543 253.80078 L 271.51953 253.80078 L 271.38672 253.80078 L 271.25391 253.80078 L 271.11914 253.80078 L 270.98633 253.80078 L 270.85352 253.80078 L 270.7207 253.80078 L 270.58594 253.78711 L 270.45312 253.78711 L 270.32031 253.78711 L 270.1875 253.78711 L 270.05273 253.78711 L 269.91992 253.78711 L 269.78711 253.78711 L 269.6543 253.78711 L 269.51953 253.78711 L 269.38672 253.78711 L 269.25391 253.78711 L 269.11914 253.78711 L 268.98633 253.77344 L 268.85352 253.77344 L 268.7207 253.77344 L 268.58594 253.77344 L 268.45312 253.77344 L 268.32031 253.77344 L 268.1875 253.77344 L 268.05273 253.77344 L 267.91992 253.77344 L 267.78711 253.77344 L 267.6543 253.75977 L 267.51953 253.75977 L 267.38672 253.75977 L 267.25391 253.75977 L 267.11914 253.75977 L 266.98633 253.75977 L 266.85352 253.75977 L 266.7207 253.75977 L 266.58594 253.75977 L 266.45312 253.74609 L 266.32031 253.74609 L 266.1875 253.74609 L 266.05273 253.74609 L 265.91992 253.74609 L 265.78711 253.74609 L 265.6543 253.74609 L 265.51953 253.74609 L 265.38672 253.73242 L 265.25391 253.73242 L 265.11914 253.73242 L 264.98633 253.73242 L 264.85352 253.73242 L 264.7207 253.73242 L 264.58594 253.73242 L 264.45312 253.73242 L 264.32031 253.7207 L 264.1875 253.7207 L 264.05273 253.7207 L 263.91992 253.7207 L 263.78711 253.7207 L 263.6543 253.7207 L 263.51953 253.70703 L 263.38672 253.70703 L 263.25391 253.70703 L 263.11914 253.70703 L 262.98633 253.70703 L 262.85352 253.70703 L 262.7207 253.70703 L 262.58594 253.69336 L 262.45312 253.69336 L 262.32031 253.69336 L 262.1875 253.69336 L 262.05273 253.69336 L 261.91992 253.69336 L 261.78711 253.67969 L 261.6543 253.67969 L 261.51953 253.67969 L 261.38672 253.67969 L 261.25391 253.67969 L 261.11914 253.66602 L 260.98633 253.66602 L 260.85352 253.66602 L 260.7207 253.66602 L 260.58594 253.66602 L 260.45312 253.6543 L 260.32031 253.6543 L 260.1875 253.6543 L 260.05273 253.6543 L 259.91992 253.6543 L 259.78711 253.64062 L 259.6543 253.64062 L 259.51953 253.64062 L 259.38672 253.64062 L 259.25391 253.64062 L 259.11914 253.62695 L 259 253.62695 L 258.86719 253.62695 L 258.73242 253.62695 L 258.59961 253.61328 L 258.4668 253.61328 L 258.33398 253.61328 L 258.19922 253.61328 L 258.06641 253.59961 L 257.93359 253.59961 L 257.80078 253.59961 L 257.66602 253.59961 L 257.5332 253.58594 L 257.40039 253.58594 L 257.26758 253.58594 L 257.13281 253.58594 L 257 253.57422 L 256.86719 253.57422 L 256.73242 253.57422 L 256.59961 253.56055 L 256.4668 253.56055 L 256.33398 253.56055 L 256.19922 253.56055 L 256.06641 253.54688 L 255.93359 253.54688 L 255.80078 253.54688 L 255.66602 253.5332 L 255.5332 253.5332 L 255.40039 253.5332 L 255.26758 253.51953 L 255.13281 253.51953 L 255 253.51953 L 254.86719 253.50586 L 254.73242 253.50586 L 254.59961 253.50586 L 254.4668 253.49414 L 254.33398 253.49414 L 254.19922 253.49414 L 254.06641 253.48047 L 253.93359 253.48047 L 253.80078 253.4668 L 253.66602 253.4668 L 253.5332 253.4668 L 253.40039 253.45312 L 253.26758 253.45312 L 253.13281 253.45312 L 253 253.43945 L 252.86719 253.43945 L 252.73242 253.42578 L 252.59961 253.42578 L 252.4668 253.42578 L 252.33398 253.41406 L 252.19922 253.41406 L 252.06641 253.40039 L 251.93359 253.40039 L 251.80078 253.38672 L 251.66602 253.38672 L 251.5332 253.37305 L 251.40039 253.37305 L 251.26758 253.37305 L 251.13281 253.35938 L 251 253.35938 L 250.86719 253.3457 L 250.73242 253.3457 L 250.59961 253.33398 L 250.4668 253.33398 L 250.33398 253.32031 L 250.19922 253.32031 L 250.06641 253.30664 L 249.93359 253.30664 L 249.80078 253.29297 L 249.66602 253.2793 L 249.5332 253.2793 L 249.40039 253.26758 L 249.26758 253.26758 L 249.13281 253.25391 L 249 253.25391 L 248.86719 253.24023 L 248.73242 253.22656 L 248.59961 253.22656 L 248.4668 253.21289 L 248.33398 253.21289 L 248.19922 253.19922 L 248.06641 253.1875 L 247.93359 253.1875 L 247.80078 253.17383 L 247.66602 253.16016 L 247.5332 253.16016 L 247.40039 253.14648 L 247.26758 253.13281 L 247.13281 253.13281 L 247 253.11914 L 246.86719 253.10742 L 246.73242 253.10742 L 246.59961 253.09375 L 246.4668 253.08008 L 246.33398 253.08008 L 246.19922 253.06641 L 246.06641 253.05273 L 245.93359 253.03906 L 245.80078 253.02734 L 245.66602 253.02734 L 245.5332 253.01367 L 245.40039 253 L 245.26758 252.98633 L 245.13281 252.97266 L 245 252.97266 L 244.86719 252.96094 L 244.73242 252.94727 L 244.59961 252.93359 L 244.4668 252.91992 L 244.33398 252.90625 L 244.19922 252.89258 L 244.06641 252.89258 L 243.93359 252.88086 L 243.80078 252.86719 L 243.66602 252.85352 L 243.5332 252.83984 L 243.40039 252.82617 L 243.26758 252.8125 L 243.13281 252.80078 L 243 252.78711 L 242.86719 252.77344 L 242.73242 252.75977 L 242.59961 252.74609 L 242.4668 252.73242 L 242.33398 252.7207 L 242.19922 252.70703 L 242.06641 252.69336 L 241.93359 252.67969 L 241.80078 252.66602 L 241.66602 252.64062 L 241.5332 252.62695 L 241.40039 252.61328 L 241.26758 252.59961 L 241.13281 252.58594 L 241 252.57422 L 240.86719 252.54688 L 240.73242 252.5332 L 240.59961 252.51953 L 240.4668 252.50586 L 240.33398 252.48047 L 240.19922 252.4668 L 240.06641 252.45312 L 239.93359 252.43945 L 239.80078 252.41406 L 239.66602 252.40039 L 239.5332 252.38672 L 239.40039 252.35938 L 239.26758 252.3457 L 239.13281 252.32031 L 239 252.30664 L 238.86719 252.29297 L 238.73242 252.26758 L 238.59961 252.25391 L 238.4668 252.22656 L 238.33398 252.21289 L 238.19922 252.1875 L 238.06641 252.17383 L 237.93359 252.14648 L 237.80078 252.13281 L 237.66602 252.10742 L 237.5332 252.08008 L 237.40039 252.06641 L 237.26758 252.03906 L 237.13281 252.01367 L 237 252 L 236.86719 251.97266 L 236.73242 251.94727 L 236.59961 251.93359 L 236.4668 251.90625 L 236.33398 251.88086 L 236.19922 251.85352 L 236.06641 251.82617 L 235.93359 251.8125 L 235.80078 251.78711 L 235.66602 251.75977 L 235.5332 251.73242 L 235.40039 251.70703 L 235.26758 251.67969 L 235.13281 251.6543 L 235 251.62695 L 234.86719 251.59961 L 234.73242 251.57422 L 234.59961 251.54688 L 234.4668 251.51953 L 234.33398 251.49414 L 234.19922 251.45312 L 234.06641 251.42578 L 233.93359 251.40039 L 233.80078 251.37305 L 233.66602 251.3457 L 233.5332 251.30664 L 233.40039 251.2793 L 233.26758 251.25391 L 233.13281 251.21289 L 233 251.1875 L 232.86719 251.16016 L 232.73242 251.11914 L 232.59961 251.09375 L 232.4668 251.05273 L 232.33398 251.02734 L 232.19922 250.98633 L 232.06641 250.96094 L 231.93359 250.91992 L 231.80078 250.88086 L 231.66602 250.85352 L 231.5332 250.8125 L 231.40039 250.77344 L 231.26758 250.73242 L 231.13281 250.70703 L 231 250.66602 L 230.86719 250.62695 L 230.73242 250.58594 L 230.59961 250.54688 L 230.4668 250.50586 L 230.33398 250.4668 L 230.19922 250.42578 L 230.06641 250.38672 L 229.93359 250.3457 L 229.80078 250.30664 L 229.66602 250.26758 L 229.5332 250.22656 L 229.40039 250.17383 L 229.26758 250.13281 L 229.13281 250.09375 L 229 250.03906 L 228.86719 250 L 228.73242 249.96094 L 228.59961 249.90625 L 228.4668 249.86719 L 228.33398 249.8125 L 228.19922 249.77344 L 228.06641 249.7207 L 227.93359 249.66602 L 227.80078 249.62695 L 227.66602 249.57422 L 227.5332 249.51953 L 227.40039 249.4668 L 227.26758 249.42578 L 227.13281 249.37305 L 227 249.32031 L 226.86719 249.26758 L 226.73242 249.21289 L 226.59961 249.16016 L 226.4668 249.10742 L 226.33398 249.03906 L 226.19922 248.98633 L 226.06641 248.93359 L 225.93359 248.88086 L 225.80078 248.8125 L 225.66602 248.75977 L 225.5332 248.69336 L 225.40039 248.64062 L 225.26758 248.58594 L 225.13281 248.51953 L 225 248.45312 L 224.86719 248.40039 L 224.73242 248.33398 L 224.59961 248.26758 L 224.4668 248.19922 L 224.33398 248.13281 L 224.19922 248.06641 L 224.06641 248 L 223.93359 247.93359 L 223.80078 247.86719 L 223.66602 247.80078 L 223.5332 247.73242 L 223.40039 247.66602 L 223.26758 247.58594 L 223.13281 247.51953 L 223 247.43945 L 222.86719 247.37305 L 222.73242 247.29297 L 222.59961 247.22656 L 222.4668 247.14648 L 222.33398 247.06641 L 222.19922 247 L 222.06641 246.91992 L 221.93359 246.83984 L 221.80078 246.75977 L 221.66602 246.67969 L 221.5332 246.59961 L 221.40039 246.50586 L 221.26758 246.42578 L 221.13281 246.3457 L 221 246.26758 L 220.86719 246.17383 L 220.73242 246.09375 L 220.59961 246 L 220.4668 245.90625 L 220.33398 245.82617 L 220.19922 245.73242 L 220.06641 245.64062 L 219.93359 245.54688 L 219.80078 245.45312 L 219.66602 245.35938 L 219.5332 245.26758 L 219.40039 245.17383 L 219.26758 245.06641 L 219.13281 244.97266 L 219 244.88086 L 218.86719 244.77344 L 218.73242 244.66602 L 218.59961 244.57422 L 218.4668 244.4668 L 218.33398 244.35938 L 218.19922 244.25391 L 218.06641 244.14648 L 217.93359 244.03906 L 217.80078 243.93359 L 217.66602 243.82617 L 217.5332 243.70703 L 217.40039 243.59961 L 217.26758 243.49414 L 217.13281 243.37305 L 217 243.25391 L 216.86719 243.14648 L 216.73242 243.02734 L 216.59961 242.90625 L 216.4668 242.78711 L 216.33398 242.66602 L 216.19922 242.5332 L 216.06641 242.41406 L 215.93359 242.29297 L 215.80078 242.16016 L 215.66602 242.03906 L 215.5332 241.90625 L 215.40039 241.77344 L 215.26758 241.64062 L 215.13281 241.50586 L 215 241.37305 L 214.86719 241.24023 L 214.73242 241.10742 L 214.59961 240.96094 L 214.4668 240.82617 L 214.33398 240.67969 L 214.19922 240.54688 L 214.06641 240.40039 L 213.93359 240.25391 L 213.80078 240.10742 L 213.66602 239.96094 L 213.5332 239.8125 L 213.40039 239.6543 L 213.26758 239.50586 L 213.13281 239.3457 L 213 239.19922 L 212.86719 239.03906 L 212.73242 238.88086 L 212.59961 238.7207 L 212.4668 238.56055 L 212.33398 238.40039 L 212.19922 238.22656 L 212.06641 238.06641 L 211.93359 237.89258 L 211.80078 237.7207 L 211.66602 237.56055 L 211.5332 237.38672 L 211.40039 237.21289 L 211.26758 237.03906 L 211.13281 236.85352 L 211 236.67969 L 210.86719 236.49414 L 210.73242 236.30664 L 210.59961 236.11914 L 210.4668 235.94727 L 210.33398 235.74609 L 210.19922 235.56055 L 210.06641 235.37305 L 209.94727 235.17383 L 209.8125 234.98633 L 209.67969 234.78711 L 209.54688 234.58594 L 209.41406 234.38672 L 209.2793 234.1875 L 209.14648 233.97266 L 209.01367 233.77344 L 208.88086 233.56055 L 208.74609 233.3457 L 208.61328 233.13281 L 208.48047 232.93359 L 208.3457 232.70703 L 208.21289 232.49414 L 208.08008 232.26758 L 207.94727 232.05273 L 207.8125 231.82617 L 207.67969 231.59961 L 207.54688 231.37305 L 207.41406 231.13281 L 207.2793 230.90625 L 207.14648 230.66602 L 207.01367 230.43945 L 206.88086 230.19922 L 206.74609 229.96094 L 206.61328 229.70703 L 206.48047 229.4668 L 206.3457 229.21289 L 206.21289 228.97266 L 206.08008 228.7207 L 205.94727 228.4668 L 205.8125 228.19922 L 205.67969 227.94727 L 205.54688 227.67969 L 205.41406 227.42578 L 205.2793 227.16016 L 205.14648 226.89258 L 205.01367 226.61328 L 204.88086 226.3457 L 204.74609 226.06641 L 204.61328 225.80078 L 204.48047 225.51953 L 204.3457 225.22656 L 204.21289 224.94727 L 204.08008 224.66602 L 203.94727 224.37305 L 203.8125 224.08008 L 203.67969 223.78711 L 203.54688 223.48047 L 203.41406 223.1875 L 203.2793 222.88086 L 203.14648 222.57422 L 203.01367 222.26758 L 202.88086 221.96094 L 202.74609 221.6543 L 202.61328 221.33398 L 202.48047 221.01367 L 202.3457 220.69336 L 202.21289 220.37305 L 202.08008 220.05273 L 201.94727 219.7207 L 201.8125 219.38672 L 201.67969 219.05273 L 201.54688 218.7207 L 201.41406 218.37305 L 201.2793 218.03906 L 201.14648 217.69336 L 201.01367 217.33398 L 200.88086 216.98633 L 200.74609 216.64062 L 200.61328 216.2793 L 200.48047 215.91992 L 200.3457 215.56055 L 200.21289 215.1875 L 200.08008 214.82617 L 199.94727 214.45312 L 199.8125 214.08008 L 199.67969 213.70703 L 199.54688 213.32031 L 199.41406 212.93359 L 199.2793 212.56055 L 199.14648 212.16016 L 199.01367 211.77344 L 198.88086 211.38672 L 198.74609 210.97266 L 198.61328 210.57422 L 198.48047 210.17383 L 198.3457 209.75977 L 198.21289 209.35938 L 198.08008 208.94727 L 197.94727 208.51953 L 197.8125 208.10742 L 197.67969 207.67969 L 197.54688 207.25391 L 197.41406 206.82617 L 197.2793 206.40039 L 197.14648 205.96094 L 197.01367 205.51953 L 196.88086 205.08008 L 196.74609 204.62695 L 196.61328 204.1875 L 196.48047 203.73242 L 196.3457 203.2793 L 196.21289 202.8125 L 196.08008 202.35938 L 195.94727 201.89258 L 195.8125 201.42578 L 195.67969 200.96094 L 195.54688 200.48047 L 195.41406 200 L 195.2793 199.51953 L 195.14648 199.02734 L 195.01367 198.54688 L 194.88086 198.05273 L 194.74609 197.56055 L 194.61328 197.05273 L 194.48047 196.56055 L 194.3457 196.05273 L 194.21289 195.5332 L 194.08008 195.02734 L 193.94727 194.50586 L 193.8125 193.98633 L 193.67969 193.4668 L 193.54688 192.94727 L 193.41406 192.41406 L 193.2793 191.88086 L 193.14648 191.3457 L 193.01367 190.80078 L 192.88086 190.26758 L 192.74609 189.70703 L 192.61328 189.16016 L 192.48047 188.61328 L 192.3457 188.05273 L 192.21289 187.49414 L 192.08008 186.93359 L 191.94727 186.35938 L 191.8125 185.78711 L 191.67969 185.21289 L 191.54688 184.62695 L 191.41406 184.05273 L 191.2793 183.4668 L 191.14648 182.86719 L 191.01367 182.2793 L 190.88086 181.69336 L 190.74609 181.08008 L 190.61328 180.48047 L 190.48047 179.88086 L 190.3457 179.26758 L 190.21289 178.6543 L 190.08008 178.03906 L 189.94727 177.41406 L 189.8125 176.78711 L 189.67969 176.16016 L 189.54688 175.5332 L 189.41406 174.89258 L 189.2793 174.26758 L 189.14648 173.61328 L 189.01367 172.97266 L 188.88086 172.32031 L 188.74609 171.66602 L 188.61328 171.01367 L 188.48047 170.35938 L 188.3457 169.69336 L 188.21289 169.02734 L 188.08008 168.35938 L 187.94727 167.67969 L 187.8125 167.01367 L 187.67969 166.33398 L 187.54688 165.6543 L 187.41406 164.96094 L 187.2793 164.2793 L 187.14648 163.58594 L 187.01367 162.88086 L 186.88086 162.1875 L 186.74609 161.48047 L 186.61328 160.77344 L 186.48047 160.06641 L 186.3457 159.35938 L 186.21289 158.64062 L 186.08008 157.91992 L 185.94727 157.19922 L 185.8125 156.4668 L 185.67969 155.74609 L 185.54688 155.01367 L 185.41406 154.2793 L 185.2793 153.5332 L 185.14648 152.80078 L 185.01367 152.05273 L 184.88086 151.30664 L 184.74609 150.54688 L 184.61328 149.80078 L 184.48047 149.03906 L 184.3457 148.2793 L 184.21289 147.51953 L 184.08008 146.74609 L 183.94727 145.98633 L 183.8125 145.21289 L 183.67969 144.43945 L 183.54688 143.6543 L 183.41406 142.88086 L 183.2793 142.09375 L 183.14648 141.30664 L 183.01367 140.51953 L 182.88086 139.7207 L 182.74609 138.91992 L 182.61328 138.13281 L 182.48047 137.33398 L 182.3457 136.51953 L 182.21289 135.7207 L 182.08008 134.90625 L 181.94727 134.09375 L 181.8125 133.2793 L 181.67969 132.4668 L 181.54688 131.6543 L 181.41406 130.82617 L 181.2793 130 L 181.14648 129.17383 L 181.01367 128.3457 L 180.88086 127.51953 L 180.74609 126.67969 L 180.61328 125.83984 L 180.48047 125 L 180.3457 124.16016 L 180.21289 123.30664 L 180.08008 122.4668 L 179.94727 121.61328 L 179.8125 120.75977 L 179.67969 119.90625 L 179.54688 119.03906 L 179.41406 118.17383 L 179.2793 117.30664 L 179.14648 116.43945 L 179.01367 115.56055 L 178.88086 114.69336 L 178.74609 113.8125 L 178.61328 112.93359 L 178.48047 112.03906 L 178.3457 111.16016 L 178.21289 110.2793 L 178.08008 109.38672 L 177.94727 108.50586 L 177.8125 107.61328 L 177.67969 106.73242 L 177.54688 105.83984 L 177.41406 104.96094 L 177.2793 104.08008 L 177.14648 103.19922 L 177.01367 102.32031 L 176.88086 101.43945 L 176.74609 100.56055 L 176.61328 99.679688 L 176.48047 98.800781 L 176.3457 97.919922 L 176.21289 97.039062 L 176.08008 96.160156 L 175.94727 95.279297 L 175.8125 94.400391 L 175.67969 93.519531 L 175.54688 92.626953 L 175.41406 91.732422 L 175.2793 90.853516 L 175.14648 89.960938 L 175.01367 89.066406 L 174.88086 88.173828 L 174.74609 87.279297 L 174.61328 86.386719 L 174.48047 85.494141 L 174.3457 84.585938 L 174.21289 83.693359 L 174.08008 82.800781 L 173.94727 81.90625 L 173.8125 81 L 173.67969 80.107422 L 173.54688 79.212891 L 173.41406 78.320312 L 173.2793 77.425781 L 173.14648 76.533203 L 173.01367 75.640625 L 172.88086 74.746094 L 172.74609 73.853516 L 172.61328 72.972656 L 172.48047 72.080078 L 172.3457 71.199219 L 172.21289 70.306641 L 172.08008 69.425781 L 171.94727 68.546875 L 171.8125 67.666016 L 171.67969 66.787109 L 171.54688 65.919922 L 171.41406 65.039062 L 171.2793 64.173828 L 171.14648 63.306641 L 171.01367 62.439453 L 170.88086 61.574219 L 170.74609 60.720703 L 170.61328 59.867188 L 170.48047 59.013672 L 170.3457 58.160156 L 170.21289 57.320312 L 170.08008 56.466797 L 169.94727 55.626953 L 169.8125 54.800781 L 169.67969 53.960938 L 169.54688 53.132812 L 169.41406 52.306641 L 169.2793 51.480469 L 169.14648 50.666016 L 169.01367 49.853516 L 168.88086 49.039062 L 168.74609 48.240234 L 168.61328 47.453125 L 168.48047 46.654297 L 168.3457 45.867188 L 168.21289 45.080078 L 168.08008 44.292969 L 167.94727 43.519531 L 167.8125 42.759766 L 167.67969 41.986328 L 167.54688 41.240234 L 167.41406 40.480469 L 167.2793 39.732422 L 167.14648 39 L 167.01367 38.267578 L 166.88086 37.533203 L 166.74609 36.8125 L 166.61328 36.09375 L 166.48047 35.386719 L 166.3457 34.679688 L 166.21289 33.986328 L 166.08008 33.292969 L 165.94727 32.613281 L 165.8125 31.933594 L 165.67969 31.253906 L 165.54688 30.599609 L 165.41406 29.947266 L 165.2793 29.292969 L 165.14648 28.654297 L 165.01367 28.027344 L 164.88086 27.386719 L 164.74609 26.773438 L 164.61328 26.160156 L 164.48047 25.546875 L 164.3457 24.960938 L 164.21289 24.373047 L 164.08008 23.787109 L 163.94727 23.212891 L 163.8125 22.654297 L 163.67969 22.080078 L 163.54688 21.546875 L 163.41406 21 L 163.2793 20.453125 L 163.14648 19.933594 L 163.01367 19.414062 L 162.88086 18.892578 L 162.74609 18.400391 L 162.61328 17.90625 L 162.48047 17.414062 L 162.3457 16.947266 L 162.21289 16.466797 L 162.08008 16 L 161.94727 15.560547 L 161.8125 15.107422 L 161.67969 14.666016 L 161.54688 14.240234 L 161.41406 13.8125 L 161.2793 13.400391 L 161.14648 13 L 161.01367 12.599609 L 160.88086 12.199219 L 160.75977 11.826172 L 160.62695 11.453125 L 160.49414 11.080078 L 160.35938 10.732422 L 160.22656 10.386719 L 160.09375 10.039062 L 159.96094 9.7207031 L 159.82617 9.3867188 L 159.69336 9.0664062 L 159.56055 8.7597656 L 159.42578 8.4667969 L 159.29297 8.1601562 L 159.16016 7.8925781 L 159.02734 7.6132812 L 158.89258 7.3339844 L 158.75977 7.0800781 L 158.62695 6.8261719 L 158.49414 6.5742188 L 158.35938 6.3457031 L 158.22656 6.1191406 L 158.09375 5.8808594 L 157.96094 5.6796875 L 157.82617 5.4667969 L 157.69336 5.2675781 L 157.56055 5.0800781 L 157.42578 4.8925781 L 157.29297 4.7070312 L 157.16016 4.546875 L 157.02734 4.3730469 L 156.89258 4.2128906 L 156.75977 4.0800781 L 156.62695 3.9335938 L 156.49414 3.7871094 L 156.35938 3.6660156 L 156.22656 3.546875 L 156.09375 3.4257812 L 155.96094 3.3339844 L 155.82617 3.2265625 L 155.69336 3.1328125 L 155.56055 3.0527344 L 155.42578 2.9726562 L 155.29297 2.8925781 L 155.16016 2.8398438 L 155.02734 2.7871094 L 154.89258 2.7207031 L 154.75977 2.6796875 L 154.62695 2.6542969 L 154.49414 2.6132812 L 154.35938 2.5859375 L 154.22656 2.5742188 L 154.09375 2.5605469 L 153.96094 2.5605469 L 153.82617 2.5605469 L 153.69336 2.5605469 z "
           transform="matrix(0.75000002,0,0,-0.75000002,0,211)" /><path
           d="m 23.4,20.59 h 329.8 v 188.5 H 23.4 Z"
           style="fill:none;stroke:#000000;stroke-width:0.78;stroke-linecap:round;stroke-linejoin:round;stroke-miterlimit:10;stroke-dasharray:none;stroke-opacity:1"
           id="path106" /></g></g><g
       id="g108" /><g
       id="g110" /><g
       id="g112" /><g
       id="g114" /><g
       id="g116" /><g
       id="g118" /><g
       id="g120" /><g
       id="g122" /><g
       id="g124" /><g
       id="g126" /><g
       id="g128" /><g
       id="g130" /><g
       id="g132" /><g
       id="g136" /><g
       id="g138" /><g
       id="g140"><text
         transform="matrix(1,0,0,-1,15.36,17.72)"
         style="font-variant:normal;font-weight:normal;font-size:8px;font-family:Roboto;-inkscape-font-specification:Roboto;writing-mode:lr-tb;fill:#000000;fill-opacity:1;fill-rule:nonzero;stroke:none;font-style:normal;font-stretch:normal"
         id="text144"><tspan
           x="0"
           y="0"
           id="tspan142"
           style="-inkscape-font-specification:Roboto;font-family:Roboto;font-weight:normal;font-style:normal;font-stretch:normal;font-variant:normal">0</tspan></text><text
         transform="matrix(1,0,0,-1,10.91,75.09)"
         style="font-variant:normal;font-weight:normal;font-size:8px;font-family:Roboto;-inkscape-font-specification:Roboto;writing-mode:lr-tb;fill:#000000;fill-opacity:1;fill-rule:nonzero;stroke:none;font-style:normal;font-stretch:normal"
         id="text148"><tspan
           x="0"
           y="0"
           sodipodi:role="line"
           id="tspan146">10</tspan></text><text
         transform="matrix(1,0,0,-1,10.91,132.46)"
         style="font-variant:normal;font-weight:normal;font-size:8px;font-family:Roboto;-inkscape-font-specification:Roboto;writing-mode:lr-tb;fill:#000000;fill-opacity:1;fill-rule:nonzero;stroke:none;font-style:normal;font-stretch:normal"
         id="text152"><tspan
           x="0"
           y="0"
           sodipodi:role="line"
           id="tspan150">20</tspan></text><text
         transform="matrix(1,0,0,-1,10.91,189.83)"
         style="font-variant:normal;font-weight:normal;font-size:8px;font-family:Roboto;-inkscape-font-specification:Roboto;writing-mode:lr-tb;fill:#000000;fill-opacity:1;fill-rule:nonzero;stroke:none;font-style:normal;font-stretch:normal"
         id="text156"><tspan
           x="0"
           y="0"
           sodipodi:role="line"
           id="tspan154">30</tspan></text></g><g
       id="g158" /><g
       id="g160" /><g
       id="g162"><path
         d="m 21.4,20.59 h 2"
         style="fill:none;stroke:#000000;stroke-width:0.32;stroke-linecap:square;stroke-linejoin:round;stroke-miterlimit:10;stroke-dasharray:none;stroke-opacity:1"
         id="path164" /><path
         d="m 21.4,77.96 h 2"
         style="fill:none;stroke:#000000;stroke-width:0.32;stroke-linecap:square;stroke-linejoin:round;stroke-miterlimit:10;stroke-dasharray:none;stroke-opacity:1"
         id="path166" /><path
         d="m 21.4,135.33 h 2"
         style="fill:none;stroke:#000000;stroke-width:0.32;stroke-linecap:square;stroke-linejoin:round;stroke-miterlimit:10;stroke-dasharray:none;stroke-opacity:1"
         id="path168" /><path
         d="m 21.4,192.7 h 2"
         style="fill:none;stroke:#000000;stroke-width:0.32;stroke-linecap:square;stroke-linejoin:round;stroke-miterlimit:10;stroke-dasharray:none;stroke-opacity:1"
         id="path170" /></g><g
       id="g172" /><g
       id="g174" /><g
       id="g176" /><g
       id="g178" /><g
       id="g180" /><g
       id="g182" /><g
       id="g184" /><g
       id="g186" /><g
       id="g190" /><g
       id="g192" /><g
       id="g194"><path
         d="m 38.49,18.59 v 2"
         style="fill:none;stroke:#000000;stroke-width:0.32;stroke-linecap:square;stroke-linejoin:round;stroke-miterlimit:10;stroke-dasharray:none;stroke-opacity:1"
         id="path196" /><path
         d="m 128.94,18.59 v 2"
         style="fill:none;stroke:#000000;stroke-width:0.32;stroke-linecap:square;stroke-linejoin:round;stroke-miterlimit:10;stroke-dasharray:none;stroke-opacity:1"
         id="path198" /><path
         d="m 332.45,18.59 v 2"
         style="fill:none;stroke:#000000;stroke-width:0.32;stroke-linecap:square;stroke-linejoin:round;stroke-miterlimit:10;stroke-dasharray:none;stroke-opacity:1"
         id="path200" /></g><g
       id="g202" /><g
       id="g204"><text
         transform="matrix(1,0,0,-1,34.04,11.26)"
         style="font-variant:normal;font-weight:normal;font-size:8px;font-family:Roboto;-inkscape-font-specification:Roboto;writing-mode:lr-tb;fill:#000000;fill-opacity:1;fill-rule:nonzero;stroke:none;font-style:normal;font-stretch:normal"
         id="text208"><tspan
           x="0"
           y="0"
           sodipodi:role="line"
           id="tspan206">24</tspan></text><text
         transform="matrix(1,0,0,-1,124.49,11.26)"
         style="font-variant:normal;font-weight:normal;font-size:8px;font-family:Roboto;-inkscape-font-specification:Roboto;writing-mode:lr-tb;fill:#000000;fill-opacity:1;fill-rule:nonzero;stroke:none;font-style:normal;font-stretch:normal"
         id="text212"><tspan
           x="0"
           y="0"
           sodipodi:role="line"
           id="tspan210">40</tspan></text><text
         transform="matrix(1,0,0,-1,328,11.26)"
         style="font-variant:normal;font-weight:normal;font-size:8px;font-family:Roboto;-inkscape-font-specification:Roboto;writing-mode:lr-tb;fill:#000000;fill-opacity:1;fill-rule:nonzero;stroke:none;font-style:normal;font-stretch:normal"
         id="text216"><tspan
           x="0"
           y="0"
           sodipodi:role="line"
           id="tspan214">76</tspan></text></g><g
       id="g218" /><g
       id="g220" /><g
       id="g222" /><g
       id="g224" /><g
       id="g226" /><g
       id="g228" /><g
       id="g230" /><g
       id="g232"><text
         transform="matrix(1,0,0,-1,154.17,1.76)"
         style="font-variant:normal;font-weight:normal;font-size:8px;font-family:Roboto;-inkscape-font-specification:Roboto;writing-mode:lr-tb;fill:#000000;fill-opacity:1;fill-rule:nonzero;stroke:none;font-style:normal;font-stretch:normal"
         id="text236"><tspan
           x="0"
           y="0"
           sodipodi:role="line"
           id="tspan234">Week of gestation</tspan></text></g><g
       id="g238" /><g
       id="g240" /><g
       id="g242"><text
         transform="matrix(0,1,1,0,7.16,32.42)"
         style="font-variant:normal;font-weight:normal;font-size:8px;font-family:Roboto;-inkscape-font-specification:Roboto;writing-mode:lr-tb;fill:#000000;fill-opacity:1;fill-rule:nonzero;stroke:none;font-style:normal;font-stretch:normal"
         id="text246"><tspan
           x="0"
           y="0"
           sodipodi:role="line"
           id="tspan244">Fetoinfant deaths per 100K personweeks</tspan></text></g><g
       id="g248" /><g
       id="g250" /><g
       id="g252" /><g
       id="g254" /><g
       id="g256" /><g
       id="g258" /><g
       id="g260" /><g
       id="g262" /><g
       id="g264" /><g
       id="g268" /><g
       id="g270" /><g
       id="g272" /><g
       id="g280" /><g
       id="g282" /><g
       id="g284" /><g
       id="g286" /><g
       id="g288" /><g
       id="g294" /><g
       id="g296" /><g
       id="g298" /><g
       id="g304" /><g
       id="g306" /><g
       id="g308" /><g
       id="g314" /><g
       id="g316" /><g
       id="g318" /><g
       id="g324" /><g
       id="g326" /><g
       id="g328" /><g
       id="g334" /><g
       id="g336" /><g
       id="g338" /><g
       id="g344" /><g
       id="g346" /><g
       id="g348" /><g
       id="g354" /><g
       id="g356" /><g
       id="g358" /><g
       id="g364" /><g
       id="g366" /><g
       id="g368" /><g
       id="g374" /><g
       id="g376" /><g
       id="g378" /><g
       id="g384" /><g
       id="g386" /><g
       id="g388" /><g
       id="g396" /><g
       id="g398" /><g
       id="g400" /><g
       id="g402" /><g
       id="g404" /><g
       id="g412" /><g
       id="g414" /><g
       id="g416" /><g
       id="g418" /><g
       id="g420" /><g
       id="g428" /><g
       id="g430" /><g
       id="g432" /><g
       id="g434" /><g
       id="g436" /><g
       id="g444" /><g
       id="g446" /><g
       id="g448" /><g
       id="g450" /><g
       id="g452" /><g
       id="g460" /><g
       id="g462" /><g
       id="g464" /><g
       id="g466" /><g
       id="g468" /><g
       id="g476" /><g
       id="g478" /><g
       id="g480" /><g
       id="g482" /><g
       id="g484" /><g
       id="g492" /><g
       id="g494" /><g
       id="g496" /><g
       id="g498" /><g
       id="g500" /><g
       id="g508" /><g
       id="g510" /><g
       id="g512" /><g
       id="g514" /><g
       id="g516" /><g
       id="g524" /><g
       id="g526" /><g
       id="g528" /><g
       id="g530" /><g
       id="g532" /><g
       id="g540" /><g
       id="g542" /><g
       id="g544" /><g
       id="g546" /><g
       id="g548" /><g
       id="g550" /><g
       id="g552" /><g
       id="g554" /><g
       id="g556" /><g
       id="g558" /><g
       id="g560" /><g
       id="g562" /><g
       id="g564" /><g
       id="g566" /><g
       id="g568" /><g
       id="g570" /><text
       xml:space="preserve"
       style="font-style:normal;font-weight:normal;font-size:8px;line-height:1.25;font-family:sans-serif;fill:#000000;fill-opacity:1;stroke:none;stroke-width:0.75"
       x="24.574432"
       y="-164.81464"
       id="text16066"
       transform="scale(1,-1)"><tspan
         sodipodi:role="line"
         id="tspan16064"
         style="font-style:normal;font-variant:normal;font-weight:normal;font-stretch:normal;font-size:8px;font-family:Roboto;-inkscape-font-specification:Roboto;stroke-width:0.75"
         x="24.574432"
         y="-164.81464">1:5 feto-infant deaths</tspan><tspan
         sodipodi:role="line"
         style="font-style:normal;font-variant:normal;font-weight:normal;font-stretch:normal;font-size:8px;font-family:Roboto;-inkscape-font-specification:Roboto;stroke-width:0.75"
         x="24.574432"
         y="-154.53659"
         id="tspan20592">due to &quot;birth hump&quot;</tspan></text><text
       xml:space="preserve"
       style="font-style:normal;font-weight:normal;font-size:8px;line-height:1.05;font-family:sans-serif;fill:#000000;fill-opacity:1;stroke:none;stroke-width:0.75"
       x="25.105431"
       y="-199.29971"
       id="text16066-2"
       transform="scale(1,-1)"><tspan
         sodipodi:role="line"
         style="font-style:normal;font-variant:normal;font-weight:normal;font-stretch:normal;font-size:8px;font-family:Roboto;-inkscape-font-specification:Roboto;stroke-width:0.75"
         x="25.105431"
         y="-199.29971"
         id="tspan26241">1:126 risk of feto-infant</tspan><tspan
         sodipodi:role="line"
         style="font-style:normal;font-variant:normal;font-weight:normal;font-stretch:normal;font-size:8px;font-family:Roboto;-inkscape-font-specification:Roboto;stroke-width:0.75"
         x="25.105431"
         y="-190.62167"
         id="tspan26243">death 1 year following</tspan><tspan
         sodipodi:role="line"
         style="font-style:normal;font-variant:normal;font-weight:normal;font-stretch:normal;font-size:8px;font-family:Roboto;-inkscape-font-specification:Roboto;stroke-width:0.75"
         x="25.105431"
         y="-181.94363"
         id="tspan32461">fetal viability</tspan></text></g></svg>
