<?xml version="1.0" encoding="UTF-8" standalone="no"?>
<!-- Created with Inkscape (http://www.inkscape.org/) -->

<svg
   version="1.1"
   id="svg2"
   xml:space="preserve"
   width="412.73541"
   height="300.98102"
   viewBox="0 0 412.73541 300.98101"
   sodipodi:docname="50-compression.pdf"
   inkscape:version="1.1.2 (0a00cf5339, 2022-02-04)"
   xmlns:inkscape="http://www.inkscape.org/namespaces/inkscape"
   xmlns:sodipodi="http://sodipodi.sourceforge.net/DTD/sodipodi-0.dtd"
   xmlns="http://www.w3.org/2000/svg"
   xmlns:svg="http://www.w3.org/2000/svg"><defs
     id="defs6"><clipPath
       clipPathUnits="userSpaceOnUse"
       id="clipPath40"><path
         d="m 23.4,20.59 h 259.16 v 188.5 H 23.4 Z"
         id="path38" /></clipPath></defs><sodipodi:namedview
     id="namedview4"
     pagecolor="#ffffff"
     bordercolor="#666666"
     borderopacity="1.0"
     inkscape:pageshadow="2"
     inkscape:pageopacity="0.0"
     inkscape:pagecheckerboard="0"
     showgrid="false"
     fit-margin-top="0"
     fit-margin-left="0"
     fit-margin-right="0"
     fit-margin-bottom="0"
     inkscape:zoom="1.5337677"
     inkscape:cx="361.85401"
     inkscape:cy="160.06335"
     inkscape:window-width="1920"
     inkscape:window-height="1052"
     inkscape:window-x="0"
     inkscape:window-y="0"
     inkscape:window-maximized="1"
     inkscape:current-layer="g8" /><g
     id="g8"
     inkscape:groupmode="layer"
     inkscape:label="50-compression"
     transform="matrix(1.3333333,0,0,-1.3333333,-1.4372916,301.05164)"><g
       id="g10" /><g
       id="g12" /><g
       id="g14" /><g
       id="g16" /><g
       id="g18" /><g
       id="g20" /><g
       id="g22" /><g
       id="g24" /><g
       id="g26" /><g
       id="g28" /><g
       id="g30" /><g
       id="g32" /><g
       id="g34"><g
         id="g36"
         clip-path="url(#clipPath40)"><path
           d="m 35.18,184.1 2.98,-1.96 2.98,-1.96 2.98,-1.96 2.99,-1.96 2.98,-1.96 2.98,-1.96 2.98,-1.97 2.98,-1.96 2.99,-1.96 2.98,-1.96 2.98,-1.96 2.98,-1.96 2.99,-1.96 2.98,-1.96 2.98,-1.97 2.98,-1.96 2.99,-1.96 2.98,-1.96 2.98,-1.96 2.98,-1.96 2.98,-1.96 2.99,-1.97 2.98,-1.96 2.98,-1.96 2.98,-1.96 2.99,-1.96 2.98,-1.96 2.98,-1.96 2.98,-1.97 2.99,-1.96 2.98,-1.96 2.98,-1.96 2.98,-1.96 2.98,-1.96 2.99,-1.96 2.98,-1.97 2.98,-1.96 2.98,-1.96 2.99,-1.96 2.98,-1.96 2.98,-1.96 2.98,-1.96 2.98,-1.97 2.99,-1.96 2.98,-1.96 2.98,-1.96 2.98,-1.96 2.99,-1.96 2.98,-1.96 2.98,-1.96 2.98,-1.97 2.99,-1.96 2.98,-1.96 2.98,-1.96 2.98,-1.96 2.98,-1.96 2.99,-1.96 2.98,-1.97 2.98,-1.96 2.98,-1.96 2.99,-1.96 2.98,-1.96 2.98,-1.96 2.98,-1.96 2.99,-1.97 2.98,-1.96 2.98,-1.96 2.98,-1.96 2.98,-1.96 2.99,-1.96 2.98,-1.96 2.98,-1.97 2.98,-1.96 2.99,-1.96 2.98,-1.96 2.98,-1.96 2.98,-1.96 2.99,-1.96 2.98,-1.96"
           style="fill:#e6e6e6;stroke:#cccccc;stroke-width:2.13;stroke-linecap:butt;stroke-linejoin:round;stroke-miterlimit:10;stroke-dasharray:none;stroke-opacity:1"
           id="path42" /><path
           d="m 60.46,162.61 c 0,1.08 0.88,1.96 1.95,1.96 1.08,0 1.96,-0.88 1.96,-1.96 0,-1.07 -0.88,-1.95 -1.96,-1.95 -1.07,0 -1.95,0.88 -1.95,1.95"
           style="fill:#000000;fill-opacity:1;fill-rule:nonzero;stroke:#000000;stroke-width:0.71;stroke-linecap:round;stroke-linejoin:round;stroke-miterlimit:10;stroke-dasharray:none;stroke-opacity:1"
           id="path44" /><path
           d="m 144.84,71.86 c 0,1.07 0.88,1.95 1.95,1.95 1.08,0 1.96,-0.88 1.96,-1.95 0,-1.08 -0.88,-1.96 -1.96,-1.96 -1.07,0 -1.95,0.88 -1.95,1.96"
           style="fill:#000000;fill-opacity:1;fill-rule:nonzero;stroke:#000000;stroke-width:0.71;stroke-linecap:round;stroke-linejoin:round;stroke-miterlimit:10;stroke-dasharray:none;stroke-opacity:1"
           id="path46" /><path
           d="m 51.99,186.25 c 0,1.07 0.88,1.95 1.96,1.95 1.07,0 1.95,-0.88 1.95,-1.95 0,-1.08 -0.88,-1.96 -1.95,-1.96 -1.08,0 -1.96,0.88 -1.96,1.96"
           style="fill:#000000;fill-opacity:1;fill-rule:nonzero;stroke:#000000;stroke-width:0.71;stroke-linecap:round;stroke-linejoin:round;stroke-miterlimit:10;stroke-dasharray:none;stroke-opacity:1"
           id="path48" /><path
           d="m 44.9,157.46 c 0,1.08 0.88,1.96 1.95,1.96 1.08,0 1.96,-0.88 1.96,-1.96 0,-1.07 -0.88,-1.95 -1.96,-1.95 -1.07,0 -1.95,0.88 -1.95,1.95"
           style="fill:#000000;fill-opacity:1;fill-rule:nonzero;stroke:#000000;stroke-width:0.71;stroke-linecap:round;stroke-linejoin:round;stroke-miterlimit:10;stroke-dasharray:none;stroke-opacity:1"
           id="path50" /><path
           d="m 48.62,200.52 c 0,1.07 0.88,1.95 1.95,1.95 1.08,0 1.96,-0.88 1.96,-1.95 0,-1.08 -0.88,-1.96 -1.96,-1.96 -1.07,0 -1.95,0.88 -1.95,1.96"
           style="fill:#000000;fill-opacity:1;fill-rule:nonzero;stroke:#000000;stroke-width:0.71;stroke-linecap:round;stroke-linejoin:round;stroke-miterlimit:10;stroke-dasharray:none;stroke-opacity:1"
           id="path52" /><path
           d="m 112.89,118.65 c 0,1.08 0.88,1.96 1.96,1.96 1.07,0 1.95,-0.88 1.95,-1.96 0,-1.07 -0.88,-1.95 -1.95,-1.95 -1.08,0 -1.96,0.88 -1.96,1.95"
           style="fill:#000000;fill-opacity:1;fill-rule:nonzero;stroke:#000000;stroke-width:0.71;stroke-linecap:round;stroke-linejoin:round;stroke-miterlimit:10;stroke-dasharray:none;stroke-opacity:1"
           id="path54" /><path
           d="m 34.359014,199.78218 c 0,1.39857 1.150231,2.54881 2.561879,2.54881 1.398577,0 2.548808,-1.15024 2.548808,-2.54881 0,-1.41165 -1.150231,-2.56188 -2.548808,-2.56188 -1.411648,0 -2.561879,1.15023 -2.561879,2.56188"
           style="fill:#00a8ff;fill-opacity:1;fill-rule:nonzero;stroke:#000000;stroke-width:0.928028;stroke-linecap:round;stroke-linejoin:round;stroke-miterlimit:10;stroke-dasharray:none;stroke-opacity:1"
           id="path56" /><path
           d="m 33.22,182.85 c 0,1.08 0.88,1.96 1.96,1.96 1.07,0 1.95,-0.88 1.95,-1.96 0,-1.07 -0.88,-1.95 -1.95,-1.95 -1.08,0 -1.96,0.88 -1.96,1.95"
           style="fill:#000000;fill-opacity:1;fill-rule:nonzero;stroke:#000000;stroke-width:0.71;stroke-linecap:round;stroke-linejoin:round;stroke-miterlimit:10;stroke-dasharray:none;stroke-opacity:1"
           id="path58" /><path
           d="m 77.51,145.14 c 0,1.08 0.88,1.96 1.95,1.96 1.08,0 1.96,-0.88 1.96,-1.96 0,-1.07 -0.88,-1.95 -1.96,-1.95 -1.07,0 -1.95,0.88 -1.95,1.95"
           style="fill:#000000;fill-opacity:1;fill-rule:nonzero;stroke:#000000;stroke-width:0.71;stroke-linecap:round;stroke-linejoin:round;stroke-miterlimit:10;stroke-dasharray:none;stroke-opacity:1"
           id="path60" /><path
           d="m 202.08,45.21 c 0,1.08 0.88,1.96 1.95,1.96 1.08,0 1.96,-0.88 1.96,-1.96 0,-1.07 -0.88,-1.95 -1.96,-1.95 -1.07,0 -1.95,0.88 -1.95,1.95"
           style="fill:#000000;fill-opacity:1;fill-rule:nonzero;stroke:#000000;stroke-width:0.71;stroke-linecap:round;stroke-linejoin:round;stroke-miterlimit:10;stroke-dasharray:none;stroke-opacity:1"
           id="path62" /><path
           d="m 108.92,107.3 c 0,1.08 0.88,1.96 1.95,1.96 1.08,0 1.96,-0.88 1.96,-1.96 0,-1.07 -0.88,-1.95 -1.96,-1.95 -1.07,0 -1.95,0.88 -1.95,1.95"
           style="fill:#000000;fill-opacity:1;fill-rule:nonzero;stroke:#000000;stroke-width:0.71;stroke-linecap:round;stroke-linejoin:round;stroke-miterlimit:10;stroke-dasharray:none;stroke-opacity:1"
           id="path64" /><path
           d="m 109.13,107 c 0,1.08 0.88,1.96 1.95,1.96 1.08,0 1.96,-0.88 1.96,-1.96 0,-1.07 -0.88,-1.95 -1.96,-1.95 -1.07,0 -1.95,0.88 -1.95,1.95"
           style="fill:#000000;fill-opacity:1;fill-rule:nonzero;stroke:#000000;stroke-width:0.71;stroke-linecap:round;stroke-linejoin:round;stroke-miterlimit:10;stroke-dasharray:none;stroke-opacity:1"
           id="path66" /><path
           d="m 100.19,190.48 c 0,1.08 0.88,1.96 1.96,1.96 1.07,0 1.95,-0.88 1.95,-1.96 0,-1.07 -0.88,-1.95 -1.95,-1.95 -1.08,0 -1.96,0.88 -1.96,1.95"
           style="fill:#000000;fill-opacity:1;fill-rule:nonzero;stroke:#000000;stroke-width:0.71;stroke-linecap:round;stroke-linejoin:round;stroke-miterlimit:10;stroke-dasharray:none;stroke-opacity:1"
           id="path68" /><path
           d="m 268.91925,63.625567 c 0,1.369151 1.12603,2.495182 2.50798,2.495182 1.36915,0 2.49518,-1.126031 2.49518,-2.495182 0,-1.381947 -1.12603,-2.507978 -2.49518,-2.507978 -1.38195,0 -2.50798,1.126031 -2.50798,2.507978"
           style="fill:#ff0000;fill-opacity:1;fill-rule:nonzero;stroke:#000000;stroke-width:0.908502;stroke-linecap:round;stroke-linejoin:round;stroke-miterlimit:10;stroke-dasharray:none;stroke-opacity:1"
           id="path70" /><path
           d="m 167.38,88.5 c 0,1.08 0.88,1.96 1.96,1.96 1.07,0 1.95,-0.88 1.95,-1.96 0,-1.07 -0.88,-1.95 -1.95,-1.95 -1.08,0 -1.96,0.88 -1.96,1.95"
           style="fill:#000000;fill-opacity:1;fill-rule:nonzero;stroke:#000000;stroke-width:0.71;stroke-linecap:round;stroke-linejoin:round;stroke-miterlimit:10;stroke-dasharray:none;stroke-opacity:1"
           id="path72" /><path
           d="m 147.53,140.23 c 0,1.08 0.88,1.96 1.96,1.96 1.07,0 1.95,-0.88 1.95,-1.96 0,-1.07 -0.88,-1.95 -1.95,-1.95 -1.08,0 -1.96,0.88 -1.96,1.95"
           style="fill:#000000;fill-opacity:1;fill-rule:nonzero;stroke:#000000;stroke-width:0.71;stroke-linecap:round;stroke-linejoin:round;stroke-miterlimit:10;stroke-dasharray:none;stroke-opacity:1"
           id="path74" /></g></g><g
       id="g76" /><g
       id="g78" /><g
       id="g80" /><g
       id="g82" /><g
       id="g84" /><g
       id="g86" /><g
       id="g88" /><g
       id="g90" /><g
       id="g92" /><g
       id="g94" /><g
       id="g96" /><g
       id="g98" /><g
       id="g100"><path
         d="M 23.4,20.59 V 209.08"
         style="fill:none;stroke:#000000;stroke-width:0.64;stroke-linecap:square;stroke-linejoin:round;stroke-miterlimit:10;stroke-dasharray:none;stroke-opacity:1"
         id="path102" /></g><g
       id="g104" /><g
       id="g106" /><g
       id="g108"><text
         transform="matrix(1,0,0,-1,10.91,49.05)"
         style="font-style:normal;font-variant:normal;font-weight:normal;font-stretch:normal;font-size:8px;font-family:Roboto;-inkscape-font-specification:Roboto;writing-mode:lr-tb;fill:#000000;fill-opacity:1;fill-rule:nonzero;stroke:none"
         id="text112"><tspan
           x="0"
           y="0"
           sodipodi:role="line"
           id="tspan110">10</tspan></text><text
         transform="matrix(1,0,0,-1,10.91,82.68)"
         style="font-style:normal;font-variant:normal;font-weight:normal;font-stretch:normal;font-size:8px;font-family:Roboto;-inkscape-font-specification:Roboto;writing-mode:lr-tb;fill:#000000;fill-opacity:1;fill-rule:nonzero;stroke:none"
         id="text116"><tspan
           x="0"
           y="0"
           sodipodi:role="line"
           id="tspan114">15</tspan></text><text
         transform="matrix(1,0,0,-1,10.91,116.3)"
         style="font-style:normal;font-variant:normal;font-weight:normal;font-stretch:normal;font-size:8px;font-family:Roboto;-inkscape-font-specification:Roboto;writing-mode:lr-tb;fill:#000000;fill-opacity:1;fill-rule:nonzero;stroke:none"
         id="text120"><tspan
           x="0"
           y="0"
           sodipodi:role="line"
           id="tspan118">20</tspan></text><text
         transform="matrix(1,0,0,-1,10.91,149.92)"
         style="font-style:normal;font-variant:normal;font-weight:normal;font-stretch:normal;font-size:8px;font-family:Roboto;-inkscape-font-specification:Roboto;writing-mode:lr-tb;fill:#000000;fill-opacity:1;fill-rule:nonzero;stroke:none"
         id="text124"><tspan
           x="0"
           y="0"
           sodipodi:role="line"
           id="tspan122">25</tspan></text><text
         transform="matrix(1,0,0,-1,10.91,183.55)"
         style="font-style:normal;font-variant:normal;font-weight:normal;font-stretch:normal;font-size:8px;font-family:Roboto;-inkscape-font-specification:Roboto;writing-mode:lr-tb;fill:#000000;fill-opacity:1;fill-rule:nonzero;stroke:none"
         id="text128"><tspan
           x="0"
           y="0"
           sodipodi:role="line"
           id="tspan126">30</tspan></text></g><g
       id="g130" /><g
       id="g132" /><g
       id="g134"><path
         d="m 21.4,51.93 h 2"
         style="fill:none;stroke:#000000;stroke-width:0.32;stroke-linecap:square;stroke-linejoin:round;stroke-miterlimit:10;stroke-dasharray:none;stroke-opacity:1"
         id="path136" /><path
         d="m 21.4,85.55 h 2"
         style="fill:none;stroke:#000000;stroke-width:0.32;stroke-linecap:square;stroke-linejoin:round;stroke-miterlimit:10;stroke-dasharray:none;stroke-opacity:1"
         id="path138" /><path
         d="m 21.4,119.17 h 2"
         style="fill:none;stroke:#000000;stroke-width:0.32;stroke-linecap:square;stroke-linejoin:round;stroke-miterlimit:10;stroke-dasharray:none;stroke-opacity:1"
         id="path140" /><path
         d="m 21.4,152.8 h 2"
         style="fill:none;stroke:#000000;stroke-width:0.32;stroke-linecap:square;stroke-linejoin:round;stroke-miterlimit:10;stroke-dasharray:none;stroke-opacity:1"
         id="path142" /><path
         d="m 21.4,186.42 h 2"
         style="fill:none;stroke:#000000;stroke-width:0.32;stroke-linecap:square;stroke-linejoin:round;stroke-miterlimit:10;stroke-dasharray:none;stroke-opacity:1"
         id="path144" /></g><g
       id="g146" /><g
       id="g148" /><g
       id="g150" /><g
       id="g152" /><g
       id="g154" /><g
       id="g156" /><g
       id="g158" /><g
       id="g160"><path
         d="M 23.4,20.59 H 282.56"
         style="fill:none;stroke:#000000;stroke-width:0.64;stroke-linecap:square;stroke-linejoin:round;stroke-miterlimit:10;stroke-dasharray:none;stroke-opacity:1"
         id="path162" /></g><g
       id="g164" /><g
       id="g166" /><g
       id="g168"><path
         d="m 57.8,18.59 v 2"
         style="fill:none;stroke:#000000;stroke-width:0.32;stroke-linecap:square;stroke-linejoin:round;stroke-miterlimit:10;stroke-dasharray:none;stroke-opacity:1"
         id="path170" /><path
         d="m 151.04,18.59 v 2"
         style="fill:none;stroke:#000000;stroke-width:0.32;stroke-linecap:square;stroke-linejoin:round;stroke-miterlimit:10;stroke-dasharray:none;stroke-opacity:1"
         id="path172" /><path
         d="m 244.27,18.59 v 2"
         style="fill:none;stroke:#000000;stroke-width:0.32;stroke-linecap:square;stroke-linejoin:round;stroke-miterlimit:10;stroke-dasharray:none;stroke-opacity:1"
         id="path174" /></g><g
       id="g176" /><g
       id="g178"><text
         transform="matrix(1,0,0,-1,52.24,11.26)"
         style="font-style:normal;font-variant:normal;font-weight:normal;font-stretch:normal;font-size:8px;font-family:Roboto;-inkscape-font-specification:Roboto;writing-mode:lr-tb;fill:#000000;fill-opacity:1;fill-rule:nonzero;stroke:none"
         id="text182"><tspan
           x="0"
           y="0"
           sodipodi:role="line"
           id="tspan180">0.5</tspan></text><text
         transform="matrix(1,0,0,-1,145.48,11.26)"
         style="font-style:normal;font-variant:normal;font-weight:normal;font-stretch:normal;font-size:8px;font-family:Roboto;-inkscape-font-specification:Roboto;writing-mode:lr-tb;fill:#000000;fill-opacity:1;fill-rule:nonzero;stroke:none"
         id="text186"><tspan
           x="0"
           y="0"
           sodipodi:role="line"
           id="tspan184">1.0</tspan></text><text
         transform="matrix(1,0,0,-1,238.71,11.26)"
         style="font-style:normal;font-variant:normal;font-weight:normal;font-stretch:normal;font-size:8px;font-family:Roboto;-inkscape-font-specification:Roboto;writing-mode:lr-tb;fill:#000000;fill-opacity:1;fill-rule:nonzero;stroke:none"
         id="text190"><tspan
           x="0"
           y="0"
           sodipodi:role="line"
           id="tspan188">1.5</tspan></text></g><g
       id="g192" /><g
       id="g194" /><g
       id="g196" /><g
       id="g198" /><g
       id="g200" /><g
       id="g202" /><g
       id="g204" /><g
       id="g206"><text
         transform="matrix(1,0,0,-1,90.87,1.76)"
         style="font-style:normal;font-variant:normal;font-weight:normal;font-stretch:normal;font-size:8px;font-family:Roboto;-inkscape-font-specification:Roboto;writing-mode:lr-tb;fill:#000000;fill-opacity:1;fill-rule:nonzero;stroke:none"
         id="text210"><tspan
           x="0"
           y="0"
           sodipodi:role="line"
           id="tspan208">% probability of feto infant death</tspan></text></g><g
       id="g212" /><g
       id="g214" /><g
       id="g216"><text
         transform="matrix(0,1,1,0,7.16,23.61)"
         style="font-style:normal;font-variant:normal;font-weight:normal;font-stretch:normal;font-size:8px;font-family:Roboto;-inkscape-font-specification:Roboto;writing-mode:lr-tb;fill:#000000;fill-opacity:1;fill-rule:nonzero;stroke:none"
         id="text220"><tspan
           x="0"
           y="0"
           sodipodi:role="line"
           id="tspan218">% feto−infant deaths contributed by birth−hump</tspan></text></g><g
       id="g222" /><g
       id="g224" /><g
       id="g226" /><g
       id="g228" /><g
       id="g230" /><g
       id="g232" /><g
       id="g234" /><g
       id="g236" /><g
       id="g238" /><g
       id="g240" /><g
       id="g242" /><g
       id="g244" /><g
       id="g246" /><text
       xml:space="preserve"
       style="font-size:8.00003px;line-height:1.25;font-family:Roboto;-inkscape-font-specification:Roboto;fill:#ff0000;stroke-width:0.75"
       x="271.03369"
       y="-80.463516"
       id="text21109"
       transform="scale(1,-1)"><tspan
         sodipodi:role="line"
         id="tspan21107"
         style="font-style:normal;font-variant:normal;font-weight:normal;font-stretch:normal;font-family:'Roboto Condensed';-inkscape-font-specification:'Roboto Condensed,  Bold';text-align:center;text-anchor:middle;fill:#ff0000;stroke-width:0.75"
         x="271.03369"
         y="-80.463516">Non-hispanic Black</tspan><tspan
         sodipodi:role="line"
         style="font-style:normal;font-variant:normal;font-weight:normal;font-stretch:normal;font-family:'Roboto Condensed';-inkscape-font-specification:'Roboto Condensed,  Bold';text-align:center;text-anchor:middle;fill:#ff0000;stroke-width:0.75"
         x="271.03369"
         y="-70.463478"
         id="tspan21595">primary education or less</tspan></text><text
       xml:space="preserve"
       style="font-size:8.00003px;line-height:1.25;font-family:Roboto;-inkscape-font-specification:Roboto;fill:#0082ff;fill-opacity:1;stroke-width:0.75"
       x="37.107674"
       y="-220.02309"
       id="text21109-0"
       transform="scale(1,-1)"><tspan
         sodipodi:role="line"
         id="tspan21107-6"
         style="font-style:normal;font-variant:normal;font-weight:normal;font-stretch:normal;font-family:'Roboto Condensed';-inkscape-font-specification:'Roboto Condensed,  Bold';text-align:center;text-anchor:middle;fill:#0082ff;fill-opacity:1;stroke-width:0.75"
         x="37.107674"
         y="-220.02309">Hispanic</tspan><tspan
         sodipodi:role="line"
         style="font-style:normal;font-variant:normal;font-weight:normal;font-stretch:normal;font-family:'Roboto Condensed';-inkscape-font-specification:'Roboto Condensed,  Bold';text-align:center;text-anchor:middle;fill:#0082ff;fill-opacity:1;stroke-width:0.75"
         x="37.107674"
         y="-210.02306"
         id="tspan21595-6">Bachelor and above</tspan></text></g></svg>
