<?xml version="1.0" encoding="UTF-8" standalone="no"?>
<!-- Created with Inkscape (http://www.inkscape.org/) -->

<svg
   sodipodi:docname="50-hzrd-total14.svg"
   viewBox="0 0 484.36637 232.37199"
   height="232.37199"
   width="484.36636"
   xml:space="preserve"
   id="svg2"
   version="1.1"
   inkscape:version="1.1.2 (0a00cf5339, 2022-02-04)"
   xmlns:inkscape="http://www.inkscape.org/namespaces/inkscape"
   xmlns:sodipodi="http://sodipodi.sourceforge.net/DTD/sodipodi-0.dtd"
   xmlns="http://www.w3.org/2000/svg"
   xmlns:svg="http://www.w3.org/2000/svg"><defs
     id="defs6" /><sodipodi:namedview
     id="namedview4"
     pagecolor="#ffffff"
     bordercolor="#eeeeee"
     borderopacity="1"
     inkscape:pageshadow="0"
     inkscape:pageopacity="1"
     inkscape:pagecheckerboard="0"
     showgrid="false"
     inkscape:zoom="2.0272583"
     inkscape:cx="393.14181"
     inkscape:cy="138.85749"
     inkscape:window-width="1920"
     inkscape:window-height="1052"
     inkscape:window-x="0"
     inkscape:window-y="0"
     inkscape:window-maximized="1"
     inkscape:current-layer="g8"
     fit-margin-top="0"
     fit-margin-left="0"
     fit-margin-right="0"
     fit-margin-bottom="0" /><g
     id="g8"
     inkscape:groupmode="layer"
     inkscape:label="50-hzrd-total14"
     transform="matrix(1.3333333,0,0,-1.3333333,13.006373,232.39333)"><g
       id="g10" /><g
       id="g12" /><g
       id="g14" /><g
       id="g16" /><g
       id="g18" /><g
       id="g20" /><g
       id="g22" /><g
       id="g24" /><g
       id="g26" /><g
       id="g28" /><g
       id="g30" /><g
       id="g32" /><g
       id="g34"><g
         id="g36"><path
           d="m 23.71,20.59 h 5.6 v 0.42 h -5.6 z"
           style="fill:#cccccc;fill-opacity:1;fill-rule:nonzero;stroke:none"
           id="path42" /><path
           d="m 29.93,20.59 h 5.6 v 0.5 h -5.6 z"
           style="fill:#cccccc;fill-opacity:1;fill-rule:nonzero;stroke:none"
           id="path44" /><path
           d="m 36.15,20.59 h 5.6 v 0.59 h -5.6 z"
           style="fill:#cccccc;fill-opacity:1;fill-rule:nonzero;stroke:none"
           id="path46" /><path
           d="m 42.38,20.59 h 5.6 v 0.66 h -5.6 z"
           style="fill:#cccccc;fill-opacity:1;fill-rule:nonzero;stroke:none"
           id="path48" /><path
           d="m 48.6,20.59 h 5.6 v 0.88 h -5.6 z"
           style="fill:#cccccc;fill-opacity:1;fill-rule:nonzero;stroke:none"
           id="path50" /><path
           d="m 54.82,20.59 h 5.6 v 1.07 h -5.6 z"
           style="fill:#cccccc;fill-opacity:1;fill-rule:nonzero;stroke:none"
           id="path52" /><path
           d="m 61.04,20.59 h 5.6 v 1.44 h -5.6 z"
           style="fill:#cccccc;fill-opacity:1;fill-rule:nonzero;stroke:none"
           id="path54" /><path
           d="m 67.27,20.59 h 5.6 v 1.9 h -5.6 z"
           style="fill:#cccccc;fill-opacity:1;fill-rule:nonzero;stroke:none"
           id="path56" /><path
           d="m 73.49,20.59 h 5.6 v 2.67 h -5.6 z"
           style="fill:#cccccc;fill-opacity:1;fill-rule:nonzero;stroke:none"
           id="path58" /><path
           d="m 79.71,20.59 h 5.6 v 3.92 h -5.6 z"
           style="fill:#cccccc;fill-opacity:1;fill-rule:nonzero;stroke:none"
           id="path60" /><path
           d="m 85.93,20.59 h 5.6 v 6.73 h -5.6 z"
           style="fill:#cccccc;fill-opacity:1;fill-rule:nonzero;stroke:none"
           id="path62" /><path
           d="m 92.16,20.59 h 5.6 v 10.34 h -5.6 z"
           style="fill:#cccccc;fill-opacity:1;fill-rule:nonzero;stroke:none"
           id="path64" /><path
           d="m 98.38,20.59 h 5.6 v 18.55 h -5.6 z"
           style="fill:#cccccc;fill-opacity:1;fill-rule:nonzero;stroke:none"
           id="path66" /><path
           d="m 104.6,20.59 h 5.6 v 39.6 h -5.6 z"
           style="fill:#cccccc;fill-opacity:1;fill-rule:nonzero;stroke:none"
           id="path68" /><path
           d="m 110.82,20.59 h 5.6 v 71.98 h -5.6 z"
           style="fill:#cccccc;fill-opacity:1;fill-rule:nonzero;stroke:none"
           id="path70" /><path
           d="m 117.05,20.59 h 5.6 v 136.29 h -5.6 z"
           style="fill:#cccccc;fill-opacity:1;fill-rule:nonzero;stroke:none"
           id="path72" /><path
           d="m 123.27,20.59 h 5.6 v 89.03 h -5.6 z"
           style="fill:#cccccc;fill-opacity:1;fill-rule:nonzero;stroke:none"
           id="path74" /><path
           d="m 129.49,20.59 h 5.6 v 38.98 h -5.6 z"
           style="fill:#cccccc;fill-opacity:1;fill-rule:nonzero;stroke:none"
           id="path76" /><path
           d="m 135.72,20.59 h 5.6 v 11.67 h -5.6 z"
           style="fill:#cccccc;fill-opacity:1;fill-rule:nonzero;stroke:none"
           id="path78" /><path
           d="m 141.94,20.59 h 5.6 v 5.94 h -5.6 z"
           style="fill:#cccccc;fill-opacity:1;fill-rule:nonzero;stroke:none"
           id="path80" /><path
           d="m 148.16,20.59 h 5.6 v 3.12 h -5.6 z"
           style="fill:#cccccc;fill-opacity:1;fill-rule:nonzero;stroke:none"
           id="path82" /><path
           d="m 154.38,20.59 h 5.6 v 1.66 h -5.6 z"
           style="fill:#cccccc;fill-opacity:1;fill-rule:nonzero;stroke:none"
           id="path84" /><path
           d="m 160.61,20.59 h 5.6 v 0.91 h -5.6 z"
           style="fill:#cccccc;fill-opacity:1;fill-rule:nonzero;stroke:none"
           id="path86" /><path
           d="m 166.83,20.59 h 5.6 v 0.61 h -5.6 z"
           style="fill:#cccccc;fill-opacity:1;fill-rule:nonzero;stroke:none"
           id="path88" /><path
           d="m 173.05,20.59 h 5.6 v 0 z"
           style="fill:#cccccc;fill-opacity:1;fill-rule:nonzero;stroke:none"
           id="path90" /><path
           d="m 179.27,20.59 h 5.6 v 0 z"
           style="fill:#cccccc;fill-opacity:1;fill-rule:nonzero;stroke:none"
           id="path92" /><path
           d="m 185.5,20.59 h 5.6 v 0 z"
           style="fill:#cccccc;fill-opacity:1;fill-rule:nonzero;stroke:none"
           id="path94" /><path
           d="m 191.72,20.59 h 5.6 v 0 z"
           style="fill:#cccccc;fill-opacity:1;fill-rule:nonzero;stroke:none"
           id="path96" /><path
           d="m 197.94,20.59 h 5.6 v 0 z"
           style="fill:#cccccc;fill-opacity:1;fill-rule:nonzero;stroke:none"
           id="path98" /><path
           d="m 204.16,20.59 h 5.6 v 0 z"
           style="fill:#cccccc;fill-opacity:1;fill-rule:nonzero;stroke:none"
           id="path100" /><path
           d="m 210.39,20.59 h 5.6 v 0 z"
           style="fill:#cccccc;fill-opacity:1;fill-rule:nonzero;stroke:none"
           id="path102" /><path
           d="m 216.61,20.59 h 5.6 v 0 z"
           style="fill:#cccccc;fill-opacity:1;fill-rule:nonzero;stroke:none"
           id="path104" /><path
           d="m 222.83,20.59 h 5.6 v 0 z"
           style="fill:#cccccc;fill-opacity:1;fill-rule:nonzero;stroke:none"
           id="path106" /><path
           d="m 229.05,20.59 h 5.6 v 0 z"
           style="fill:#cccccc;fill-opacity:1;fill-rule:nonzero;stroke:none"
           id="path108" /><path
           d="m 235.28,20.59 h 5.6 v 0 z"
           style="fill:#cccccc;fill-opacity:1;fill-rule:nonzero;stroke:none"
           id="path110" /><path
           d="m 241.5,20.59 h 5.6 v 0 z"
           style="fill:#cccccc;fill-opacity:1;fill-rule:nonzero;stroke:none"
           id="path112" /><path
           d="m 247.72,20.59 h 5.6 v 0 z"
           style="fill:#cccccc;fill-opacity:1;fill-rule:nonzero;stroke:none"
           id="path114" /><path
           d="m 253.95,20.59 h 5.6 v 0 z"
           style="fill:#cccccc;fill-opacity:1;fill-rule:nonzero;stroke:none"
           id="path116" /><path
           d="m 260.17,20.59 h 5.6 v 0 z"
           style="fill:#cccccc;fill-opacity:1;fill-rule:nonzero;stroke:none"
           id="path118" /><path
           d="m 266.39,20.59 h 5.6 v 0 z"
           style="fill:#cccccc;fill-opacity:1;fill-rule:nonzero;stroke:none"
           id="path120" /><path
           d="m 272.61,20.59 h 5.6 v 0 z"
           style="fill:#cccccc;fill-opacity:1;fill-rule:nonzero;stroke:none"
           id="path122" /><path
           d="m 278.84,20.59 h 5.6 v 0 z"
           style="fill:#cccccc;fill-opacity:1;fill-rule:nonzero;stroke:none"
           id="path124" /><path
           d="m 285.06,20.59 h 5.6 v 0 z"
           style="fill:#cccccc;fill-opacity:1;fill-rule:nonzero;stroke:none"
           id="path126" /><path
           d="m 291.28,20.59 h 5.6 v 0 z"
           style="fill:#cccccc;fill-opacity:1;fill-rule:nonzero;stroke:none"
           id="path128" /><path
           d="m 297.5,20.59 h 5.6 v 0 z"
           style="fill:#cccccc;fill-opacity:1;fill-rule:nonzero;stroke:none"
           id="path130" /><path
           d="m 303.73,20.59 h 5.6 v 0 z"
           style="fill:#cccccc;fill-opacity:1;fill-rule:nonzero;stroke:none"
           id="path132" /><path
           d="m 309.95,20.59 h 5.6 v 0 z"
           style="fill:#cccccc;fill-opacity:1;fill-rule:nonzero;stroke:none"
           id="path134" /><path
           d="m 316.17,20.59 h 5.6 v 0 z"
           style="fill:#cccccc;fill-opacity:1;fill-rule:nonzero;stroke:none"
           id="path136" /><path
           d="m 322.39,20.59 h 5.6 v 0 z"
           style="fill:#cccccc;fill-opacity:1;fill-rule:nonzero;stroke:none"
           id="path138" /><path
           d="m 328.62,20.59 h 5.6 v 0 z"
           style="fill:#cccccc;fill-opacity:1;fill-rule:nonzero;stroke:none"
           id="path140" /><path
           d="m 334.84,20.59 h 5.6 v 0 z"
           style="fill:#cccccc;fill-opacity:1;fill-rule:nonzero;stroke:none"
           id="path142" /><path
           d="m 341.06,20.59 h 5.6 v 0 z"
           style="fill:#cccccc;fill-opacity:1;fill-rule:nonzero;stroke:none"
           id="path144" /><path
           d="m 347.29,20.59 h 5.6 v 0 z"
           style="fill:#cccccc;fill-opacity:1;fill-rule:nonzero;stroke:none"
           id="path146" /><path
           d="m 23.4,173.76 h 6.22 v -22.54 h 6.22 v -1.47 h 6.22 v -14.1 h 6.23 v -5.98 h 6.22 v -13.28 h 6.22 v -1.41 h 6.22 v 2.14 h 6.23 v 2.15 h 6.22 v -0.39 h 6.22 v 7.41 h 6.23 v 9.55 h 6.22 v 9.22 h 6.22 v 15.43 h 6.22 v 9.16 h 6.23 v -6.49 h 6.22 v -29.73 h 6.22 v -34.1 h 6.22 V 77.72 h 6.23 V 63.85 h 6.22 v -6.81 h 6.22 V 51.5 h 6.22 v 2.65 h 6.23 V 48.7 h 6.22 v -1.28 h 6.22 v -2.21 h 6.23 v -0.59 h 6.22 v -2.05 h 6.22 v 0.34 h 6.22 v -3.06 h 6.23 v 0.85 h 6.22 v -0.42 h 6.22 v -3.16 h 6.22 v -1.44 h 6.23 v -0.43 h 6.22 v -1.02 h 6.22 v -1.79 h 6.22 v 0.68 h 6.23 v -2.05 h 6.22 v 1.03 h 6.22 v -2.13 h 6.23 v -0.43 h 6.22 v 0.26 h 6.22 v -1.45 h 6.22 v -0.69 h 6.23 v -0.25 h 6.22 V 26.9 h 6.22 v -0.77 h 6.22 v -1.28 h 6.23 v 1.62 h 6.22 v -1.19 h 6.22 v 0.17 h 6.22 v -0.38"
           style="fill:none;stroke:#7f7f7f;stroke-width:1.07;stroke-linecap:butt;stroke-linejoin:miter;stroke-miterlimit:10;stroke-dasharray:none;stroke-opacity:1"
           id="path148" /><path
           d="m 23.4,169.16 0.33,-0.53 0.33,-0.53 0.33,-0.53 0.33,-0.53 0.33,-0.53 0.33,-0.52 0.33,-0.52 0.33,-0.52 0.33,-0.52 0.33,-0.52 0.33,-0.51 0.33,-0.52 0.33,-0.51 0.33,-0.51 0.33,-0.5 0.33,-0.51 0.33,-0.5 0.33,-0.5 0.33,-0.5 0.33,-0.5 0.33,-0.5 0.33,-0.49 0.33,-0.5 0.33,-0.49 0.33,-0.49 0.33,-0.48 0.33,-0.49 0.33,-0.48 0.33,-0.48 0.33,-0.48 0.33,-0.48 0.33,-0.48 0.33,-0.47 0.33,-0.47 0.33,-0.48 0.33,-0.47 0.33,-0.46 0.33,-0.47 0.33,-0.46 0.33,-0.46 0.33,-0.46 0.33,-0.46 0.33,-0.46 0.33,-0.46 0.33,-0.45 0.33,-0.45 0.33,-0.45 0.33,-0.45 0.33,-0.44 0.33,-0.45 0.33,-0.44 0.33,-0.44 0.33,-0.44 0.33,-0.44 0.33,-0.43 0.33,-0.44 0.33,-0.43 0.33,-0.43 0.33,-0.43 0.33,-0.42 0.33,-0.43 0.33,-0.42 0.33,-0.42 0.33,-0.42 0.33,-0.41 0.34,-0.42 0.33,-0.41 0.33,-0.41 0.33,-0.41 0.33,-0.41 0.33,-0.4 0.33,-0.4 0.33,-0.41 0.33,-0.39 0.33,-0.4 0.33,-0.39 0.33,-0.4 0.33,-0.39 0.33,-0.38 0.33,-0.39 0.33,-0.38 0.33,-0.38 0.33,-0.38 0.33,-0.38 0.33,-0.37 0.33,-0.37 0.33,-0.37 0.33,-0.37 0.33,-0.36 0.33,-0.36 0.33,-0.36 0.33,-0.35 0.33,-0.35 0.33,-0.35 0.33,-0.35 0.33,-0.34 0.33,-0.35 0.33,-0.33 0.33,-0.34 0.33,-0.33 0.33,-0.33 0.33,-0.32 0.33,-0.32 0.33,-0.32 0.33,-0.31 0.33,-0.31 0.33,-0.31 0.33,-0.3 0.33,-0.3 0.33,-0.29 0.33,-0.3 0.33,-0.28 0.33,-0.28 0.33,-0.28 0.33,-0.27 0.33,-0.27 0.33,-0.27 0.33,-0.26 0.33,-0.25 0.33,-0.25 0.33,-0.24 0.33,-0.24 0.33,-0.23 0.33,-0.23 0.33,-0.22 0.33,-0.22 0.33,-0.21 0.33,-0.2 0.33,-0.2 0.33,-0.19 0.33,-0.19 0.33,-0.18 0.33,-0.17 0.33,-0.17 0.33,-0.16 0.33,-0.15 0.33,-0.14 0.33,-0.14 0.33,-0.13 0.33,-0.12 0.33,-0.11 0.33,-0.11 0.34,-0.09 0.33,-0.09 0.33,-0.08 0.33,-0.08 0.33,-0.06 0.33,-0.05 0.33,-0.05 0.33,-0.03 0.33,-0.03 0.33,-0.02 0.33,-0.01 0.33,0.01 0.33,0.01 0.33,0.02 0.33,0.03 0.33,0.04 0.33,0.06 0.33,0.06 0.33,0.07 0.33,0.09 0.33,0.1 0.33,0.1 0.33,0.12 0.33,0.13 0.33,0.14 0.33,0.15 0.33,0.17 0.33,0.17 0.33,0.19 0.33,0.2 0.33,0.21 0.33,0.22 0.33,0.24 0.33,0.24 0.33,0.26 0.33,0.27 0.33,0.29 0.33,0.29 0.33,0.31 0.33,0.32 0.33,0.33 0.33,0.34 0.33,0.36 0.33,0.37 0.33,0.38 0.33,0.39 0.33,0.4 0.33,0.42 0.33,0.42 0.33,0.44 0.33,0.45 0.33,0.46 0.33,0.47 0.33,0.49 0.33,0.49 0.33,0.5 0.33,0.52 0.33,0.52 0.33,0.54 0.33,0.54 0.33,0.56 0.33,0.56 0.33,0.57 0.33,0.59 0.33,0.59 0.33,0.59 0.33,0.61 0.33,0.61 0.33,0.62 0.33,0.63 0.33,0.64 0.33,0.64 0.33,0.64 0.33,0.66 0.33,0.65 0.33,0.66 0.33,0.67 0.34,0.67 0.33,0.67 0.33,0.67 0.33,0.68 0.33,0.68 0.33,0.68 0.33,0.68 0.33,0.68 0.33,0.68 0.33,0.68 0.33,0.68 0.33,0.68 0.33,0.68 0.33,0.67 0.33,0.67 0.33,0.66 0.33,0.66 0.33,0.66 0.33,0.65 0.33,0.64 0.33,0.64 0.33,0.63 0.33,0.62 0.33,0.61 0.33,0.6 0.33,0.6 0.33,0.58 0.33,0.58 0.33,0.56 0.33,0.55 0.33,0.54 0.33,0.52 0.33,0.51 0.33,0.5 0.33,0.48 0.33,0.47 0.33,0.46 0.33,0.43 0.33,0.42 0.33,0.4 0.33,0.39 0.33,0.37 0.33,0.35 0.33,0.33 0.33,0.31 0.33,0.29 0.33,0.27 0.33,0.25 0.33,0.23 0.33,0.21 0.33,0.19 0.33,0.17 0.33,0.14 0.33,0.12 0.33,0.1 0.33,0.08 0.33,0.05 0.33,0.03 0.33,0.01 0.33,-0.02 0.33,-0.04 0.33,-0.06 0.33,-0.09 0.33,-0.11 0.33,-0.14 0.33,-0.16 0.33,-0.19 0.33,-0.26 0.33,-0.35 0.33,-0.44 0.33,-0.53 0.33,-0.62 0.33,-0.71 0.33,-0.79 0.33,-0.88 0.33,-0.96 0.34,-1.04 0.33,-1.12 0.33,-1.2 0.33,-1.27 0.33,-1.33 0.33,-1.4 0.33,-1.47 0.33,-1.52 0.33,-1.58 0.33,-1.63 0.33,-1.67 0.33,-1.73 0.33,-1.76 0.33,-1.79 0.33,-1.83 0.33,-1.86 0.33,-1.88 0.33,-1.9 0.33,-1.91 0.33,-1.93 0.33,-1.93 0.33,-1.94 0.33,-1.94 0.33,-1.94 0.33,-1.93 0.33,-1.92 0.33,-1.9 0.33,-1.9 0.33,-1.87 0.33,-1.85 0.33,-1.83 0.33,-1.81 0.33,-1.77 0.33,-1.74 0.33,-1.72 0.33,-1.67 0.33,-1.65 0.33,-1.6 0.33,-1.57 0.33,-1.53 0.33,-1.49 0.33,-1.45 0.33,-1.4 0.33,-1.37 0.33,-1.33 0.33,-1.28 0.33,-1.24 0.33,-1.2 0.33,-1.16 0.33,-1.12 0.33,-1.07 0.33,-1.04 0.33,-1 0.33,-0.96 0.33,-0.92 0.33,-0.88 0.33,-0.85 0.33,-0.81 0.33,-0.78 0.33,-0.74 0.33,-0.71 0.33,-0.68 0.33,-0.65 0.33,-0.62 0.33,-0.6 0.33,-0.56 0.33,-0.54 0.33,-0.52 0.33,-0.49 0.33,-0.47 0.33,-0.45 0.33,-0.42 0.33,-0.41 0.33,-0.39 0.33,-0.37 0.33,-0.36 0.33,-0.34 0.34,-0.32 0.33,-0.31 0.33,-0.3 0.33,-0.29 0.33,-0.27 0.33,-0.26 0.33,-0.25 0.33,-0.25 0.33,-0.23 0.33,-0.22 0.33,-0.22 0.33,-0.21 0.33,-0.2 0.33,-0.2 0.33,-0.19 0.33,-0.19 0.33,-0.18 0.33,-0.17 0.33,-0.17 0.33,-0.17 0.33,-0.16 0.33,-0.16 0.33,-0.16 0.33,-0.15 0.33,-0.15 0.33,-0.15 0.33,-0.14 0.33,-0.15 0.33,-0.14 0.33,-0.14 0.33,-0.13 0.33,-0.14 0.33,-0.13 0.33,-0.14 0.33,-0.13 0.33,-0.13 0.33,-0.13 0.33,-0.12 0.33,-0.13 0.33,-0.13 0.33,-0.12 0.33,-0.13 0.33,-0.12 0.33,-0.12 0.33,-0.12 0.33,-0.12 0.33,-0.12 0.33,-0.12 0.33,-0.12 0.33,-0.12 0.33,-0.12 0.33,-0.12 0.33,-0.11 0.33,-0.12 0.33,-0.12 0.33,-0.11 0.33,-0.12 0.33,-0.11 0.33,-0.11 0.33,-0.12 0.33,-0.11 0.33,-0.11 0.33,-0.12 0.33,-0.11 0.33,-0.11 0.33,-0.11 0.33,-0.11 0.33,-0.11 0.33,-0.11 0.33,-0.11 0.33,-0.11 0.33,-0.11 0.33,-0.1 0.33,-0.11 0.33,-0.11 0.33,-0.11 0.34,-0.1 0.33,-0.11 0.33,-0.1 0.33,-0.11 0.33,-0.1 0.33,-0.11 0.33,-0.1 0.33,-0.11 0.33,-0.1 0.33,-0.1 0.33,-0.11 0.33,-0.1 0.33,-0.1 0.33,-0.1 0.33,-0.1 0.33,-0.1 0.33,-0.1 0.33,-0.1 0.33,-0.1 0.33,-0.1 0.33,-0.1 0.33,-0.1 0.33,-0.1 0.33,-0.1 0.33,-0.1 0.33,-0.09 0.33,-0.1 0.33,-0.1 0.33,-0.09 0.33,-0.1 0.33,-0.09 0.33,-0.1 0.33,-0.09 0.33,-0.1 0.33,-0.09 0.33,-0.1 0.33,-0.09 0.33,-0.09 0.33,-0.1 0.33,-0.09 0.33,-0.09 0.33,-0.09 0.33,-0.09 0.33,-0.1 0.33,-0.09 0.33,-0.09 0.33,-0.09 0.33,-0.09 0.33,-0.09 0.33,-0.09 0.33,-0.08 0.33,-0.09 0.33,-0.09 0.33,-0.09 0.33,-0.09 0.33,-0.08 0.33,-0.09 0.33,-0.09 0.33,-0.08 0.33,-0.09 0.33,-0.09 0.33,-0.08 0.33,-0.09 0.33,-0.08 0.33,-0.09 0.33,-0.08 0.33,-0.08 0.33,-0.09 0.33,-0.08 0.33,-0.08 0.33,-0.09 0.33,-0.08 0.33,-0.08 0.33,-0.08 0.33,-0.09 0.33,-0.08 0.33,-0.08 0.34,-0.08 0.33,-0.08 0.33,-0.08 0.33,-0.08 0.33,-0.08 0.33,-0.08 0.33,-0.08 0.33,-0.07 0.33,-0.08 0.33,-0.08 0.33,-0.08 0.33,-0.08 0.33,-0.07 0.33,-0.08 0.33,-0.08 0.33,-0.07 0.33,-0.08 0.33,-0.08 0.33,-0.07 0.33,-0.08 0.33,-0.07 0.33,-0.08 0.33,-0.07 0.33,-0.08 0.33,-0.07 0.33,-0.07 0.33,-0.08 0.33,-0.07 0.33,-0.07 0.33,-0.08 0.33,-0.07 0.33,-0.07 0.33,-0.07 0.33,-0.07 0.33,-0.08 0.33,-0.07 0.33,-0.07 0.33,-0.07 0.33,-0.07 0.33,-0.07 0.33,-0.07 0.33,-0.07 0.33,-0.07 0.33,-0.07 0.33,-0.07 0.33,-0.06 0.33,-0.07 0.33,-0.07 0.33,-0.07 0.33,-0.07 0.33,-0.06 0.33,-0.07 0.33,-0.07 0.33,-0.06 0.33,-0.07 0.33,-0.07 0.33,-0.06 0.33,-0.07 0.33,-0.06 0.33,-0.07 0.33,-0.06 0.33,-0.07 0.33,-0.06 0.33,-0.07 0.33,-0.06 0.33,-0.07 0.33,-0.06 0.33,-0.06 0.33,-0.07 0.33,-0.06 0.33,-0.06 0.33,-0.06 0.33,-0.07 0.33,-0.06 0.33,-0.06 0.33,-0.06 0.34,-0.06 0.33,-0.06 0.33,-0.06 0.33,-0.07 0.33,-0.06 0.33,-0.06 0.33,-0.06 0.33,-0.06 0.33,-0.06 0.33,-0.06 0.33,-0.05 0.33,-0.06 0.33,-0.06 0.33,-0.06 0.33,-0.06 0.33,-0.06 0.33,-0.06 0.33,-0.05 0.33,-0.06 0.33,-0.06 0.33,-0.05 0.33,-0.06 0.33,-0.06 0.33,-0.05 0.33,-0.06 0.33,-0.06 0.33,-0.05 0.33,-0.06 0.33,-0.05 0.33,-0.06 0.33,-0.05 0.33,-0.06 0.33,-0.05 0.33,-0.06 0.33,-0.05 0.33,-0.06 0.33,-0.05 0.33,-0.05 0.33,-0.06 0.33,-0.05 0.33,-0.05 0.33,-0.06 0.33,-0.05 0.33,-0.05 0.33,-0.06 0.33,-0.05 0.33,-0.05 0.33,-0.05 0.33,-0.05 0.33,-0.05 0.33,-0.06 0.33,-0.05 0.33,-0.05 0.33,-0.05 0.33,-0.05 0.33,-0.05 0.33,-0.05 0.33,-0.05 0.33,-0.05 0.33,-0.05 0.33,-0.05 0.33,-0.05 0.33,-0.05 0.33,-0.05 0.33,-0.04 0.33,-0.05 0.33,-0.05 0.33,-0.05 0.33,-0.05 0.33,-0.05 0.33,-0.04 0.33,-0.05 0.33,-0.05 0.33,-0.05 0.33,-0.04 0.33,-0.05 0.33,-0.05 0.34,-0.04 0.33,-0.05 0.33,-0.04 0.33,-0.05 0.33,-0.05 0.33,-0.04 0.33,-0.05 0.33,-0.04 0.33,-0.05 0.33,-0.04 0.33,-0.05 0.33,-0.04 0.33,-0.05 0.33,-0.04 0.33,-0.05 0.33,-0.04 0.33,-0.04 0.33,-0.05 0.33,-0.04 0.33,-0.05 0.33,-0.04 0.33,-0.04 0.33,-0.04 0.33,-0.05 0.33,-0.04 0.33,-0.04 0.33,-0.04 0.33,-0.05 0.33,-0.04 0.33,-0.04 0.33,-0.04 0.33,-0.04 0.33,-0.05 0.33,-0.04 0.33,-0.04 0.33,-0.04 0.33,-0.04 0.33,-0.04 0.33,-0.04 0.33,-0.04 0.33,-0.04 0.33,-0.04 0.33,-0.04 0.33,-0.04 0.33,-0.04 0.33,-0.04 0.33,-0.04 0.33,-0.04 0.33,-0.04 0.33,-0.04 0.33,-0.04 0.33,-0.04 0.33,-0.03 0.33,-0.04 0.33,-0.04 0.33,-0.04 0.33,-0.04 0.33,-0.04 0.33,-0.03 0.33,-0.04 0.33,-0.04 0.33,-0.04 0.33,-0.03 0.33,-0.04 0.33,-0.04 0.33,-0.03 0.33,-0.04 0.33,-0.04 0.33,-0.03 0.33,-0.04 0.33,-0.04 0.33,-0.03 0.33,-0.04 0.33,-0.03 0.33,-0.04 0.33,-0.03 0.33,-0.04 0.34,-0.03 0.33,-0.04 0.33,-0.04 0.33,-0.03 0.33,-0.03 0.33,-0.04 0.33,-0.03 0.33,-0.04 0.33,-0.03 0.33,-0.04 0.33,-0.03 0.33,-0.03 0.33,-0.04 0.33,-0.03 0.33,-0.04 0.33,-0.03 0.33,-0.03 0.33,-0.04 0.33,-0.03 0.33,-0.03 0.33,-0.03 0.33,-0.04 0.33,-0.03 0.33,-0.03 0.33,-0.03 0.33,-0.04 0.33,-0.03 0.33,-0.03 0.33,-0.03 0.33,-0.03 0.33,-0.04 0.33,-0.03 0.33,-0.03 0.33,-0.03 0.33,-0.03 0.33,-0.03 0.33,-0.03 0.33,-0.03 0.33,-0.03 0.33,-0.04 0.33,-0.03 0.33,-0.03 0.33,-0.03 0.33,-0.03 0.33,-0.03 0.33,-0.03 0.33,-0.03 0.33,-0.03 0.33,-0.03 0.33,-0.03 0.33,-0.03 0.33,-0.02 0.33,-0.03 0.33,-0.03 0.33,-0.03 0.33,-0.03 0.33,-0.03 0.33,-0.03 0.33,-0.03 0.33,-0.03 0.33,-0.02 0.33,-0.03 0.33,-0.03 0.33,-0.03 0.33,-0.03 0.33,-0.02 0.33,-0.03 0.33,-0.03 0.33,-0.03 0.33,-0.03 0.33,-0.02 0.33,-0.03 0.33,-0.03 0.33,-0.02 0.33,-0.03 0.33,-0.03 0.34,-0.02 0.33,-0.03 0.33,-0.03 0.33,-0.02 0.33,-0.03 0.33,-0.03 0.33,-0.02 0.33,-0.03 0.33,-0.03 0.33,-0.02 0.33,-0.03 0.33,-0.02 0.33,-0.03 0.33,-0.02 0.33,-0.03 0.33,-0.03 0.33,-0.02 0.33,-0.03 0.33,-0.02 0.33,-0.03 0.33,-0.02 0.33,-0.03 0.33,-0.02 0.33,-0.03 0.33,-0.02 0.33,-0.02 0.33,-0.03 0.33,-0.02 0.33,-0.03 0.33,-0.02 0.33,-0.03 0.33,-0.02 0.33,-0.02 0.33,-0.03 0.33,-0.02 0.33,-0.03 0.33,-0.02 0.33,-0.02 0.33,-0.03 0.33,-0.02 0.33,-0.02 0.33,-0.03 0.33,-0.02 0.33,-0.02 0.33,-0.02 0.33,-0.03 0.33,-0.02 0.33,-0.02 0.33,-0.02 0.33,-0.03 0.33,-0.02 0.33,-0.02 0.33,-0.02 0.33,-0.03 0.33,-0.02 0.33,-0.02 0.33,-0.02 0.33,-0.02 0.33,-0.03 0.33,-0.02 0.33,-0.02 0.33,-0.02 0.33,-0.02 0.33,-0.02 0.33,-0.03 0.33,-0.02 0.33,-0.02 0.33,-0.02 0.33,-0.02 0.33,-0.02 0.33,-0.02 0.33,-0.02 0.33,-0.02 0.33,-0.02 0.33,-0.02 0.33,-0.02 0.33,-0.02 0.34,-0.03 0.33,-0.02 0.33,-0.02 0.33,-0.02 0.33,-0.02 0.33,-0.02 0.33,-0.02 0.33,-0.02 0.33,-0.02 0.33,-0.01 0.33,-0.02 0.33,-0.02 0.33,-0.02 0.33,-0.02 0.33,-0.02 0.33,-0.02 0.33,-0.02 0.33,-0.02 0.33,-0.02 0.33,-0.02 0.33,-0.02 0.33,-0.02 0.33,-0.01 0.33,-0.02 0.33,-0.02 0.33,-0.02 0.33,-0.02 0.33,-0.02 0.33,-0.02 0.33,-0.01 0.33,-0.02 0.33,-0.02 0.33,-0.02 0.33,-0.02 0.33,-0.01 0.33,-0.02 0.33,-0.02 0.33,-0.02 0.33,-0.02 0.33,-0.01 0.33,-0.02 0.33,-0.02 0.33,-0.02 0.33,-0.01 0.33,-0.02 0.33,-0.02 0.33,-0.02 0.33,-0.01 0.33,-0.02 0.33,-0.02 0.33,-0.01 0.33,-0.02 0.33,-0.02 0.33,-0.01 0.33,-0.02 0.33,-0.02 0.33,-0.01 0.33,-0.02 0.33,-0.02 0.33,-0.01 0.33,-0.02 0.33,-0.02 0.33,-0.01 0.33,-0.02 0.33,-0.02 0.33,-0.01 0.33,-0.02 0.33,-0.01 0.33,-0.02 0.33,-0.01 0.33,-0.02 0.33,-0.02 0.33,-0.01 0.33,-0.02 0.33,-0.01 0.33,-0.02 0.34,-0.01 0.33,-0.02 0.33,-0.02 0.33,-0.01 0.33,-0.02 0.33,-0.01 0.33,-0.02 0.33,-0.01 0.33,-0.02 0.33,-0.01 0.33,-0.02 0.33,-0.01 0.33,-0.02 0.33,-0.01 0.33,-0.02"
           style="fill:none;stroke:#000000;stroke-width:1.59525004;stroke-linecap:butt;stroke-linejoin:round;stroke-miterlimit:10;stroke-dasharray:none;stroke-opacity:1"
           id="path150" /><path
           d="m 23.4,20.59 h 0.33 0.33 0.33 0.33 0.33 0.33 0.33 0.33 0.33 0.33 0.33 0.33 0.33 0.33 0.33 0.33 0.33 0.33 0.33 0.33 0.33 0.33 l 0.33,0.01 h 0.33 0.33 0.33 0.33 0.33 0.33 0.33 0.33 0.33 0.33 0.33 l 0.33,0.01 h 0.33 0.33 0.33 0.33 0.33 l 0.33,0.01 h 0.33 0.33 0.33 0.33 l 0.33,0.01 h 0.33 0.33 0.33 l 0.33,0.01 h 0.33 0.33 l 0.33,0.01 h 0.33 l 0.33,0.01 h 0.33 l 0.33,0.01 h 0.33 l 0.33,0.01 h 0.33 l 0.33,0.01 h 0.33 l 0.33,0.01 0.33,0.01 h 0.33 l 0.34,0.01 0.33,0.01 0.33,0.01 0.33,0.01 0.33,0.01 0.33,0.01 0.33,0.01 0.33,0.01 0.33,0.01 0.33,0.02 0.33,0.01 0.33,0.01 0.33,0.02 0.33,0.01 0.33,0.02 0.33,0.02 0.33,0.01 0.33,0.02 0.33,0.02 0.33,0.02 0.33,0.03 0.33,0.02 0.33,0.02 0.33,0.03 0.33,0.03 0.33,0.02 0.33,0.03 0.33,0.04 0.33,0.03 0.33,0.03 0.33,0.04 0.33,0.03 0.33,0.04 0.33,0.04 0.33,0.05 0.33,0.04 0.33,0.05 0.33,0.05 0.33,0.05 0.33,0.05 0.33,0.06 0.33,0.06 0.33,0.06 0.33,0.06 0.33,0.07 0.33,0.06 0.33,0.08 0.33,0.07 0.33,0.08 0.33,0.08 0.33,0.08 0.33,0.09 0.33,0.09 0.33,0.1 0.33,0.1 0.33,0.1 0.33,0.11 0.33,0.11 0.33,0.11 0.33,0.12 0.33,0.13 0.33,0.12 0.33,0.14 0.33,0.14 0.33,0.14 0.33,0.15 0.33,0.15 0.33,0.16 0.33,0.17 0.33,0.17 0.33,0.18 0.33,0.18 0.33,0.19 0.33,0.19 0.33,0.21 0.33,0.21 0.33,0.21 0.34,0.22 0.33,0.23 0.33,0.24 0.33,0.25 0.33,0.25 0.33,0.26 0.33,0.27 0.33,0.27 0.33,0.29 0.33,0.29 0.33,0.3 0.33,0.31 0.33,0.32 0.33,0.33 0.33,0.33 0.33,0.35 0.33,0.35 0.33,0.37 0.33,0.37 0.33,0.39 0.33,0.39 0.33,0.41 0.33,0.41 0.33,0.42 0.33,0.44 0.33,0.44 0.33,0.46 0.33,0.47 0.33,0.47 0.33,0.49 0.33,0.5 0.33,0.51 0.33,0.52 0.33,0.53 0.33,0.54 0.33,0.55 0.33,0.57 0.33,0.57 0.33,0.59 0.33,0.6 0.33,0.61 0.33,0.62 0.33,0.63 0.33,0.64 0.33,0.65 0.33,0.66 0.33,0.68 0.33,0.68 0.33,0.7 0.33,0.71 0.33,0.71 0.33,0.73 0.33,0.74 0.33,0.75 0.33,0.75 0.33,0.77 0.33,0.78 0.33,0.78 0.33,0.8 0.33,0.8 0.33,0.81 0.33,0.82 0.33,0.83 0.33,0.84 0.33,0.84 0.33,0.86 0.33,0.85 0.33,0.87 0.33,0.87 0.33,0.88 0.33,0.88 0.33,0.89 0.33,0.89 0.33,0.9 0.33,0.9 0.33,0.91 0.33,0.91 0.34,0.91 0.33,0.91 0.33,0.92 0.33,0.92 0.33,0.91 0.33,0.92 0.33,0.92 0.33,0.92 0.33,0.92 0.33,0.91 0.33,0.91 0.33,0.92 0.33,0.9 0.33,0.91 0.33,0.9 0.33,0.89 0.33,0.89 0.33,0.88 0.33,0.88 0.33,0.87 0.33,0.86 0.33,0.86 0.33,0.84 0.33,0.84 0.33,0.83 0.33,0.81 0.33,0.81 0.33,0.79 0.33,0.78 0.33,0.77 0.33,0.76 0.33,0.74 0.33,0.73 0.33,0.71 0.33,0.7 0.33,0.68 0.33,0.67 0.33,0.65 0.33,0.63 0.33,0.61 0.33,0.6 0.33,0.57 0.33,0.56 0.33,0.54 0.33,0.52 0.33,0.5 0.33,0.47 0.33,0.46 0.33,0.44 0.33,0.41 0.33,0.39 0.33,0.37 0.33,0.34 0.33,0.32 0.33,0.3 0.33,0.28 0.33,0.25 0.33,0.23 0.33,0.2 0.33,0.18 0.33,0.16 0.33,0.13 0.33,0.1 0.33,0.09 0.33,0.05 0.33,0.03 0.33,0.01 0.33,-0.07 0.33,-0.16 0.33,-0.25 0.33,-0.35 0.33,-0.43 0.33,-0.52 0.33,-0.61 0.33,-0.69 0.33,-0.78 0.34,-0.85 0.33,-0.94 0.33,-1.01 0.33,-1.09 0.33,-1.15 0.33,-1.22 0.33,-1.28 0.33,-1.35 0.33,-1.39 0.33,-1.46 0.33,-1.49 0.33,-1.55 0.33,-1.58 0.33,-1.62 0.33,-1.65 0.33,-1.69 0.33,-1.7 0.33,-1.73 0.33,-1.74 0.33,-1.75 0.33,-1.76 0.33,-1.77 0.33,-1.77 0.33,-1.77 0.33,-1.76 0.33,-1.75 0.33,-1.74 0.33,-1.73 0.33,-1.7 0.33,-1.69 0.33,-1.66 0.33,-1.64 0.33,-1.61 0.33,-1.58 0.33,-1.55 0.33,-1.51 0.33,-1.48 0.33,-1.45 0.33,-1.4 0.33,-1.37 0.33,-1.33 0.33,-1.29 0.33,-1.25 0.33,-1.21 0.33,-1.17 0.33,-1.12 0.33,-1.09 0.33,-1.04 0.33,-1.01 0.33,-0.96 0.33,-0.92 0.33,-0.88 0.33,-0.85 0.33,-0.8 0.33,-0.77 0.33,-0.73 0.33,-0.7 0.33,-0.66 0.33,-0.63 0.33,-0.59 0.33,-0.57 0.33,-0.53 0.33,-0.5 0.33,-0.48 0.33,-0.44 0.33,-0.42 0.33,-0.4 0.33,-0.37 0.33,-0.35 0.33,-0.32 0.33,-0.3 0.33,-0.29 0.33,-0.26 0.33,-0.25 0.33,-0.23 0.33,-0.22 0.33,-0.2 0.34,-0.18 0.33,-0.17 0.33,-0.16 0.33,-0.15 0.33,-0.13 0.33,-0.13 0.33,-0.11 0.33,-0.11 0.33,-0.09 0.33,-0.09 0.33,-0.09 0.33,-0.07 0.33,-0.07 0.33,-0.06 0.33,-0.06 0.33,-0.05 0.33,-0.05 0.33,-0.05 0.33,-0.03 0.33,-0.04 0.33,-0.03 0.33,-0.03 0.33,-0.03 0.33,-0.02 0.33,-0.03 0.33,-0.02 0.33,-0.01 0.33,-0.02 0.33,-0.01 0.33,-0.02 0.33,-0.01 0.33,-0.01 0.33,-0.01 0.33,-0.01 h 0.33 l 0.33,-0.01 0.33,-0.01 h 0.33 l 0.33,-0.01 h 0.33 l 0.33,-0.01 h 0.33 0.33 0.33 l 0.33,-0.01 h 0.33 0.33 0.33 0.33 0.33 l 0.33,-0.01 h 0.33 0.33 0.33 0.33 0.33 0.33 0.33 0.33 0.33 0.33 0.33 0.33 0.33 0.33 0.33 0.33 0.33 0.33 0.33 0.33 0.33 0.33 0.33 0.33 0.33 0.34 0.33 0.33 0.33 0.33 0.33 0.33 0.33 0.33 0.33 0.33 0.33 0.33 0.33 0.33 0.33 0.33 0.33 0.33 0.33 0.33 0.33 0.33 0.33 0.33 0.33 0.33 0.33 0.33 0.33 0.33 0.33 0.33 0.33 0.33 0.33 0.33 0.33 0.33 0.33 0.33 0.33 0.33 0.33 0.33 0.33 0.33 0.33 0.33 0.33 0.33 0.33 0.33 0.33 0.33 0.33 0.33 0.33 0.33 0.33 0.33 0.33 0.33 0.33 0.33 0.33 0.33 0.33 0.33 0.33 0.33 0.33 0.33 0.33 0.33 0.33 0.33 0.34 0.33 0.33 0.33 0.33 0.33 0.33 0.33 0.33 0.33 0.33 0.33 0.33 0.33 0.33 0.33 0.33 0.33 0.33 0.33 0.33 0.33 0.33 0.33 0.33 0.33 0.33 0.33 0.33 0.33 0.33 0.33 0.33 0.33 0.33 0.33 0.33 0.33 0.33 0.33 0.33 0.33 0.33 0.33 0.33 0.33 0.33 0.33 0.33 0.33 0.33 0.33 0.33 0.33 0.33 0.33 0.33 0.33 0.33 0.33 0.33 0.33 0.33 0.33 0.33 0.33 0.33 0.33 0.33 0.33 0.33 0.33 0.33 0.33 0.33 0.33 0.34 0.33 0.33 0.33 0.33 0.33 0.33 0.33 0.33 0.33 0.33 0.33 0.33 0.33 0.33 0.33 0.33 0.33 0.33 0.33 0.33 0.33 0.33 0.33 0.33 0.33 0.33 0.33 0.33 0.33 0.33 0.33 0.33 0.33 0.33 0.33 0.33 0.33 0.33 0.33 0.33 0.33 0.33 0.33 0.33 0.33 0.33 0.33 0.33 0.33 0.33 0.33 0.33 0.33 0.33 0.33 0.33 0.33 0.33 0.33 0.33 0.33 0.33 0.33 0.33 0.33 0.33 0.33 0.33 0.33 0.33 0.33 0.33 0.33 0.33 0.33 0.33 0.34 0.33 0.33 0.33 0.33 0.33 0.33 0.33 0.33 0.33 0.33 0.33 0.33 0.33 0.33 0.33 0.33 0.33 0.33 0.33 0.33 0.33 0.33 0.33 0.33 0.33 0.33 0.33 0.33 0.33 0.33 0.33 0.33 0.33 0.33 0.33 0.33 0.33 0.33 0.33 0.33 0.33 0.33 0.33 0.33 0.33 0.33 0.33 0.33 0.33 0.33 0.33 0.33 0.33 0.33 0.33 0.33 0.33 0.33 0.33 0.33 0.33 0.33 0.33 0.33 0.33 0.33 0.33 0.33 0.33 0.33 0.33 0.33 0.33 0.33 0.33 0.33 0.34 0.33 0.33 0.33 0.33 0.33 0.33 0.33 0.33 0.33 0.33 0.33 0.33 0.33 0.33 0.33 0.33 0.33 0.33 0.33 0.33 0.33 0.33 0.33 0.33 0.33 0.33 0.33 0.33 0.33 0.33 0.33 0.33 0.33 0.33 0.33 0.33 0.33 0.33 0.33 0.33 0.33 0.33 0.33 0.33 0.33 0.33 0.33 0.33 0.33 0.33 0.33 0.33 0.33 0.33 0.33 0.33 0.33 0.33 0.33 0.33 0.33 0.33 0.33 0.33 0.33 0.33 0.33 0.33 0.33 0.33 0.33 0.33 0.33 0.33 0.33 0.34 0.33 0.33 0.33 0.33 0.33 0.33 0.33 0.33 0.33 0.33 0.33 0.33 0.33 0.33 0.33 0.33 0.33 0.33 0.33 0.33 0.33 0.33 0.33 0.33 0.33 0.33 0.33 0.33 0.33 0.33 0.33 0.33 0.33 0.33 0.33 0.33 0.33 0.33 0.33 0.33 0.33 0.33 0.33 0.33 0.33 0.33 0.33 0.33 0.33 0.33 0.33 0.33 0.33 0.33 0.33 0.33 0.33 0.33 0.33 0.33 0.33 0.33 0.33 0.33 0.33 0.33 0.33 0.33 0.33 0.33 0.33 0.33 0.33 0.33 0.33 0.33 0.34 0.33 0.33 0.33 0.33 0.33 0.33 0.33 0.33 0.33 0.33 0.33 0.33 0.33 0.33 0.33 0.33 0.33 0.33 0.33 0.33 0.33 0.33 0.33 0.33 0.33 0.33 0.33 0.33 0.33 0.33 0.33 0.33 0.33 0.33 0.33 0.33 0.33 0.33 0.33 0.33 0.33 0.33 0.33 0.33 0.33 0.33 0.33 0.33 0.33 0.33 0.33 0.33 0.33 0.33 0.33 0.33 0.33 0.33 0.33 0.33 0.33 0.33 0.33 0.33 0.33 0.33 0.33 0.33 0.33 0.33 0.33 0.33 0.33 0.33 0.33 0.34 0.33 0.33 0.33 0.33 0.33 0.33 0.33 0.33 0.33 0.33 0.33 0.33 0.33 0.33"
           style="fill:none;stroke:#276e8e;stroke-width:1.07;stroke-linecap:butt;stroke-linejoin:round;stroke-miterlimit:10;stroke-dasharray:none;stroke-opacity:1"
           id="path152" /><path
           d="m 23.4,169.16 0.33,-0.53 0.33,-0.54 0.33,-0.53 0.33,-0.52 0.33,-0.53 0.33,-0.52 0.33,-0.53 0.33,-0.52 0.33,-0.52 0.33,-0.51 0.33,-0.52 0.33,-0.51 0.33,-0.51 0.33,-0.51 0.33,-0.51 0.33,-0.5 0.33,-0.51 0.33,-0.5 0.33,-0.5 0.33,-0.5 0.33,-0.5 0.33,-0.49 0.33,-0.49 0.33,-0.49 0.33,-0.49 0.33,-0.49 0.33,-0.49 0.33,-0.48 0.33,-0.49 0.33,-0.48 0.33,-0.48 0.33,-0.47 0.33,-0.48 0.33,-0.47 0.33,-0.47 0.33,-0.48 0.33,-0.46 0.33,-0.47 0.33,-0.47 0.33,-0.46 0.33,-0.46 0.33,-0.46 0.33,-0.46 0.33,-0.46 0.33,-0.46 0.33,-0.45 0.33,-0.45 0.33,-0.45 0.33,-0.45 0.33,-0.45 0.33,-0.44 0.33,-0.45 0.33,-0.44 0.33,-0.44 0.33,-0.44 0.33,-0.44 0.33,-0.44 0.33,-0.43 0.33,-0.43 0.33,-0.44 0.33,-0.43 0.33,-0.42 0.33,-0.43 0.33,-0.43 0.33,-0.42 0.34,-0.42 0.33,-0.42 0.33,-0.42 0.33,-0.42 0.33,-0.42 0.33,-0.41 0.33,-0.42 0.33,-0.41 0.33,-0.41 0.33,-0.41 0.33,-0.41 0.33,-0.4 0.33,-0.41 0.33,-0.4 0.33,-0.4 0.33,-0.4 0.33,-0.4 0.33,-0.4 0.33,-0.39 0.33,-0.4 0.33,-0.39 0.33,-0.39 0.33,-0.39 0.33,-0.39 0.33,-0.39 0.33,-0.39 0.33,-0.38 0.33,-0.38 0.33,-0.39 0.33,-0.38 0.33,-0.37 0.33,-0.38 0.33,-0.38 0.33,-0.37 0.33,-0.38 0.33,-0.37 0.33,-0.37 0.33,-0.37 0.33,-0.37 0.33,-0.37 0.33,-0.36 0.33,-0.37 0.33,-0.36 0.33,-0.36 0.33,-0.36 0.33,-0.36 0.33,-0.36 0.33,-0.36 0.33,-0.35 0.33,-0.36 0.33,-0.35 0.33,-0.35 0.33,-0.35 0.33,-0.35 0.33,-0.35 0.33,-0.34 0.33,-0.35 0.33,-0.34 0.33,-0.35 0.33,-0.34 0.33,-0.34 0.33,-0.34 0.33,-0.34 0.33,-0.33 0.33,-0.34 0.33,-0.33 0.33,-0.34 0.33,-0.33 0.33,-0.33 0.33,-0.33 0.33,-0.33 0.33,-0.32 0.33,-0.33 0.33,-0.32 0.33,-0.33 0.33,-0.32 0.33,-0.32 0.34,-0.32 0.33,-0.32 0.33,-0.32 0.33,-0.32 0.33,-0.31 0.33,-0.32 0.33,-0.31 0.33,-0.31 0.33,-0.31 0.33,-0.31 0.33,-0.31 0.33,-0.31 0.33,-0.31 0.33,-0.3 0.33,-0.31 0.33,-0.3 0.33,-0.3 0.33,-0.3 0.33,-0.3 0.33,-0.3 0.33,-0.3 0.33,-0.3 0.33,-0.29 0.33,-0.3 0.33,-0.29 0.33,-0.29 0.33,-0.29 0.33,-0.29 0.33,-0.29 0.33,-0.29 0.33,-0.29 0.33,-0.29 0.33,-0.28 0.33,-0.29 0.33,-0.28 0.33,-0.28 0.33,-0.28 0.33,-0.28 0.33,-0.28 0.33,-0.28 0.33,-0.28 0.33,-0.27 0.33,-0.28 0.33,-0.27 0.33,-0.28 0.33,-0.27 0.33,-0.27 0.33,-0.27 0.33,-0.27 0.33,-0.27 0.33,-0.27 0.33,-0.26 0.33,-0.27 0.33,-0.26 0.33,-0.27 0.33,-0.26 0.33,-0.26 0.33,-0.26 0.33,-0.26 0.33,-0.26 0.33,-0.26 0.33,-0.26 0.33,-0.25 0.33,-0.26 0.33,-0.25 0.33,-0.25 0.33,-0.26 0.33,-0.25 0.33,-0.25 0.33,-0.25 0.33,-0.25 0.33,-0.25 0.33,-0.24 0.33,-0.25 0.33,-0.24 0.33,-0.25 0.33,-0.24 0.34,-0.25 0.33,-0.24 0.33,-0.24 0.33,-0.24 0.33,-0.24 0.33,-0.24 0.33,-0.23 0.33,-0.24 0.33,-0.24 0.33,-0.23 0.33,-0.23 0.33,-0.24 0.33,-0.23 0.33,-0.23 0.33,-0.23 0.33,-0.23 0.33,-0.23 0.33,-0.23 0.33,-0.23 0.33,-0.22 0.33,-0.23 0.33,-0.23 0.33,-0.22 0.33,-0.22 0.33,-0.23 0.33,-0.22 0.33,-0.22 0.33,-0.22 0.33,-0.22 0.33,-0.22 0.33,-0.21 0.33,-0.22 0.33,-0.22 0.33,-0.21 0.33,-0.22 0.33,-0.21 0.33,-0.22 0.33,-0.21 0.33,-0.21 0.33,-0.21 0.33,-0.21 0.33,-0.21 0.33,-0.21 0.33,-0.21 0.33,-0.2 0.33,-0.21 0.33,-0.21 0.33,-0.2 0.33,-0.2 0.33,-0.21 0.33,-0.2 0.33,-0.2 0.33,-0.2 0.33,-0.2 0.33,-0.2 0.33,-0.2 0.33,-0.2 0.33,-0.2 0.33,-0.2 0.33,-0.19 0.33,-0.2 0.33,-0.19 0.33,-0.2 0.33,-0.19 0.33,-0.19 0.33,-0.2 0.33,-0.19 0.33,-0.19 0.33,-0.19 0.33,-0.19 0.33,-0.19 0.33,-0.18 0.33,-0.19 0.33,-0.19 0.33,-0.18 0.33,-0.19 0.34,-0.18 0.33,-0.19 0.33,-0.18 0.33,-0.18 0.33,-0.18 0.33,-0.19 0.33,-0.18 0.33,-0.18 0.33,-0.18 0.33,-0.18 0.33,-0.17 0.33,-0.18 0.33,-0.18 0.33,-0.17 0.33,-0.18 0.33,-0.17 0.33,-0.18 0.33,-0.17 0.33,-0.17 0.33,-0.18 0.33,-0.17 0.33,-0.17 0.33,-0.17 0.33,-0.17 0.33,-0.17 0.33,-0.17 0.33,-0.17 0.33,-0.16 0.33,-0.17 0.33,-0.17 0.33,-0.16 0.33,-0.17 0.33,-0.16 0.33,-0.17 0.33,-0.16 0.33,-0.16 0.33,-0.17 0.33,-0.16 0.33,-0.16 0.33,-0.16 0.33,-0.16 0.33,-0.16 0.33,-0.16 0.33,-0.15 0.33,-0.16 0.33,-0.16 0.33,-0.16 0.33,-0.15 0.33,-0.16 0.33,-0.15 0.33,-0.16 0.33,-0.15 0.33,-0.15 0.33,-0.15 0.33,-0.16 0.33,-0.15 0.33,-0.15 0.33,-0.15 0.33,-0.15 0.33,-0.15 0.33,-0.15 0.33,-0.15 0.33,-0.14 0.33,-0.15 0.33,-0.15 0.33,-0.14 0.33,-0.15 0.33,-0.14 0.33,-0.15 0.33,-0.14 0.33,-0.15 0.33,-0.14 0.33,-0.14 0.33,-0.14 0.33,-0.14 0.33,-0.15 0.33,-0.14 0.34,-0.14 0.33,-0.14 0.33,-0.13 0.33,-0.14 0.33,-0.14 0.33,-0.14 0.33,-0.13 0.33,-0.14 0.33,-0.14 0.33,-0.13 0.33,-0.14 0.33,-0.13 0.33,-0.14 0.33,-0.13 0.33,-0.13 0.33,-0.14 0.33,-0.13 0.33,-0.13 0.33,-0.13 0.33,-0.13 0.33,-0.13 0.33,-0.13 0.33,-0.13 0.33,-0.13 0.33,-0.13 0.33,-0.13 0.33,-0.12 0.33,-0.13 0.33,-0.13 0.33,-0.12 0.33,-0.13 0.33,-0.12 0.33,-0.13 0.33,-0.12 0.33,-0.13 0.33,-0.12 0.33,-0.12 0.33,-0.12 0.33,-0.13 0.33,-0.12 0.33,-0.12 0.33,-0.12 0.33,-0.12 0.33,-0.12 0.33,-0.12 0.33,-0.12 0.33,-0.12 0.33,-0.12 0.33,-0.11 0.33,-0.12 0.33,-0.12 0.33,-0.11 0.33,-0.12 0.33,-0.12 0.33,-0.11 0.33,-0.12 0.33,-0.11 0.33,-0.11 0.33,-0.12 0.33,-0.11 0.33,-0.11 0.33,-0.12 0.33,-0.11 0.33,-0.11 0.33,-0.11 0.33,-0.11 0.33,-0.11 0.33,-0.11 0.33,-0.11 0.33,-0.11 0.33,-0.11 0.33,-0.11 0.33,-0.1 0.33,-0.11 0.33,-0.11 0.33,-0.11 0.34,-0.1 0.33,-0.11 0.33,-0.1 0.33,-0.11 0.33,-0.1 0.33,-0.11 0.33,-0.1 0.33,-0.11 0.33,-0.1 0.33,-0.1 0.33,-0.11 0.33,-0.1 0.33,-0.1 0.33,-0.1 0.33,-0.1 0.33,-0.1 0.33,-0.1 0.33,-0.1 0.33,-0.1 0.33,-0.1 0.33,-0.1 0.33,-0.1 0.33,-0.1 0.33,-0.1 0.33,-0.1 0.33,-0.09 0.33,-0.1 0.33,-0.1 0.33,-0.09 0.33,-0.1 0.33,-0.09 0.33,-0.1 0.33,-0.09 0.33,-0.1 0.33,-0.09 0.33,-0.1 0.33,-0.09 0.33,-0.09 0.33,-0.1 0.33,-0.09 0.33,-0.09 0.33,-0.09 0.33,-0.09 0.33,-0.1 0.33,-0.09 0.33,-0.09 0.33,-0.09 0.33,-0.09 0.33,-0.09 0.33,-0.09 0.33,-0.08 0.33,-0.09 0.33,-0.09 0.33,-0.09 0.33,-0.09 0.33,-0.08 0.33,-0.09 0.33,-0.09 0.33,-0.08 0.33,-0.09 0.33,-0.09 0.33,-0.08 0.33,-0.09 0.33,-0.08 0.33,-0.09 0.33,-0.08 0.33,-0.08 0.33,-0.09 0.33,-0.08 0.33,-0.08 0.33,-0.09 0.33,-0.08 0.33,-0.08 0.33,-0.08 0.33,-0.09 0.33,-0.08 0.33,-0.08 0.34,-0.08 0.33,-0.08 0.33,-0.08 0.33,-0.08 0.33,-0.08 0.33,-0.08 0.33,-0.08 0.33,-0.07 0.33,-0.08 0.33,-0.08 0.33,-0.08 0.33,-0.08 0.33,-0.07 0.33,-0.08 0.33,-0.08 0.33,-0.07 0.33,-0.08 0.33,-0.08 0.33,-0.07 0.33,-0.08 0.33,-0.07 0.33,-0.08 0.33,-0.07 0.33,-0.08 0.33,-0.07 0.33,-0.07 0.33,-0.08 0.33,-0.07 0.33,-0.07 0.33,-0.08 0.33,-0.07 0.33,-0.07 0.33,-0.07 0.33,-0.07 0.33,-0.08 0.33,-0.07 0.33,-0.07 0.33,-0.07 0.33,-0.07 0.33,-0.07 0.33,-0.07 0.33,-0.07 0.33,-0.07 0.33,-0.07 0.33,-0.07 0.33,-0.06 0.33,-0.07 0.33,-0.07 0.33,-0.07 0.33,-0.07 0.33,-0.06 0.33,-0.07 0.33,-0.07 0.33,-0.06 0.33,-0.07 0.33,-0.07 0.33,-0.06 0.33,-0.07 0.33,-0.06 0.33,-0.07 0.33,-0.06 0.33,-0.07 0.33,-0.06 0.33,-0.07 0.33,-0.06 0.33,-0.07 0.33,-0.06 0.33,-0.06 0.33,-0.07 0.33,-0.06 0.33,-0.06 0.33,-0.06 0.33,-0.07 0.33,-0.06 0.33,-0.06 0.33,-0.06 0.34,-0.06 0.33,-0.06 0.33,-0.06 0.33,-0.07 0.33,-0.06 0.33,-0.06 0.33,-0.06 0.33,-0.06 0.33,-0.06 0.33,-0.06 0.33,-0.05 0.33,-0.06 0.33,-0.06 0.33,-0.06 0.33,-0.06 0.33,-0.06 0.33,-0.06 0.33,-0.05 0.33,-0.06 0.33,-0.06 0.33,-0.05 0.33,-0.06 0.33,-0.06 0.33,-0.05 0.33,-0.06 0.33,-0.06 0.33,-0.05 0.33,-0.06 0.33,-0.05 0.33,-0.06 0.33,-0.05 0.33,-0.06 0.33,-0.05 0.33,-0.06 0.33,-0.05 0.33,-0.06 0.33,-0.05 0.33,-0.05 0.33,-0.06 0.33,-0.05 0.33,-0.05 0.33,-0.06 0.33,-0.05 0.33,-0.05 0.33,-0.06 0.33,-0.05 0.33,-0.05 0.33,-0.05 0.33,-0.05 0.33,-0.05 0.33,-0.06 0.33,-0.05 0.33,-0.05 0.33,-0.05 0.33,-0.05 0.33,-0.05 0.33,-0.05 0.33,-0.05 0.33,-0.05 0.33,-0.05 0.33,-0.05 0.33,-0.05 0.33,-0.05 0.33,-0.05 0.33,-0.04 0.33,-0.05 0.33,-0.05 0.33,-0.05 0.33,-0.05 0.33,-0.05 0.33,-0.04 0.33,-0.05 0.33,-0.05 0.33,-0.05 0.33,-0.04 0.33,-0.05 0.33,-0.05 0.34,-0.04 0.33,-0.05 0.33,-0.04 0.33,-0.05 0.33,-0.05 0.33,-0.04 0.33,-0.05 0.33,-0.04 0.33,-0.05 0.33,-0.04 0.33,-0.05 0.33,-0.04 0.33,-0.05 0.33,-0.04 0.33,-0.05 0.33,-0.04 0.33,-0.04 0.33,-0.05 0.33,-0.04 0.33,-0.05 0.33,-0.04 0.33,-0.04 0.33,-0.04 0.33,-0.05 0.33,-0.04 0.33,-0.04 0.33,-0.04 0.33,-0.05 0.33,-0.04 0.33,-0.04 0.33,-0.04 0.33,-0.04 0.33,-0.05 0.33,-0.04 0.33,-0.04 0.33,-0.04 0.33,-0.04 0.33,-0.04 0.33,-0.04 0.33,-0.04 0.33,-0.04 0.33,-0.04 0.33,-0.04 0.33,-0.04 0.33,-0.04 0.33,-0.04 0.33,-0.04 0.33,-0.04 0.33,-0.04 0.33,-0.04 0.33,-0.04 0.33,-0.04 0.33,-0.03 0.33,-0.04 0.33,-0.04 0.33,-0.04 0.33,-0.04 0.33,-0.04 0.33,-0.03 0.33,-0.04 0.33,-0.04 0.33,-0.04 0.33,-0.03 0.33,-0.04 0.33,-0.04 0.33,-0.03 0.33,-0.04 0.33,-0.04 0.33,-0.03 0.33,-0.04 0.33,-0.04 0.33,-0.03 0.33,-0.04 0.33,-0.03 0.33,-0.04 0.33,-0.03 0.33,-0.04 0.34,-0.03 0.33,-0.04 0.33,-0.04 0.33,-0.03 0.33,-0.03 0.33,-0.04 0.33,-0.03 0.33,-0.04 0.33,-0.03 0.33,-0.04 0.33,-0.03 0.33,-0.03 0.33,-0.04 0.33,-0.03 0.33,-0.04 0.33,-0.03 0.33,-0.03 0.33,-0.04 0.33,-0.03 0.33,-0.03 0.33,-0.03 0.33,-0.04 0.33,-0.03 0.33,-0.03 0.33,-0.03 0.33,-0.04 0.33,-0.03 0.33,-0.03 0.33,-0.03 0.33,-0.03 0.33,-0.04 0.33,-0.03 0.33,-0.03 0.33,-0.03 0.33,-0.03 0.33,-0.03 0.33,-0.03 0.33,-0.03 0.33,-0.03 0.33,-0.04 0.33,-0.03 0.33,-0.03 0.33,-0.03 0.33,-0.03 0.33,-0.03 0.33,-0.03 0.33,-0.03 0.33,-0.03 0.33,-0.03 0.33,-0.03 0.33,-0.03 0.33,-0.02 0.33,-0.03 0.33,-0.03 0.33,-0.03 0.33,-0.03 0.33,-0.03 0.33,-0.03 0.33,-0.03 0.33,-0.03 0.33,-0.02 0.33,-0.03 0.33,-0.03 0.33,-0.03 0.33,-0.03 0.33,-0.02 0.33,-0.03 0.33,-0.03 0.33,-0.03 0.33,-0.03 0.33,-0.02 0.33,-0.03 0.33,-0.03 0.33,-0.02 0.33,-0.03 0.33,-0.03 0.34,-0.02 0.33,-0.03 0.33,-0.03 0.33,-0.02 0.33,-0.03 0.33,-0.03 0.33,-0.02 0.33,-0.03 0.33,-0.03 0.33,-0.02 0.33,-0.03 0.33,-0.02 0.33,-0.03 0.33,-0.02 0.33,-0.03 0.33,-0.03 0.33,-0.02 0.33,-0.03 0.33,-0.02 0.33,-0.03 0.33,-0.02 0.33,-0.03 0.33,-0.02 0.33,-0.03 0.33,-0.02 0.33,-0.02 0.33,-0.03 0.33,-0.02 0.33,-0.03 0.33,-0.02 0.33,-0.03 0.33,-0.02 0.33,-0.02 0.33,-0.03 0.33,-0.02 0.33,-0.03 0.33,-0.02 0.33,-0.02 0.33,-0.03 0.33,-0.02 0.33,-0.02 0.33,-0.03 0.33,-0.02 0.33,-0.02 0.33,-0.02 0.33,-0.03 0.33,-0.02 0.33,-0.02 0.33,-0.02 0.33,-0.03 0.33,-0.02 0.33,-0.02 0.33,-0.02 0.33,-0.03 0.33,-0.02 0.33,-0.02 0.33,-0.02 0.33,-0.02 0.33,-0.03 0.33,-0.02 0.33,-0.02 0.33,-0.02 0.33,-0.02 0.33,-0.02 0.33,-0.03 0.33,-0.02 0.33,-0.02 0.33,-0.02 0.33,-0.02 0.33,-0.02 0.33,-0.02 0.33,-0.02 0.33,-0.02 0.33,-0.02 0.33,-0.02 0.33,-0.02 0.33,-0.02 0.34,-0.03 0.33,-0.02 0.33,-0.02 0.33,-0.02 0.33,-0.02 0.33,-0.02 0.33,-0.02 0.33,-0.02 0.33,-0.02 0.33,-0.01 0.33,-0.02 0.33,-0.02 0.33,-0.02 0.33,-0.02 0.33,-0.02 0.33,-0.02 0.33,-0.02 0.33,-0.02 0.33,-0.02 0.33,-0.02 0.33,-0.02 0.33,-0.02 0.33,-0.01 0.33,-0.02 0.33,-0.02 0.33,-0.02 0.33,-0.02 0.33,-0.02 0.33,-0.02 0.33,-0.01 0.33,-0.02 0.33,-0.02 0.33,-0.02 0.33,-0.02 0.33,-0.01 0.33,-0.02 0.33,-0.02 0.33,-0.02 0.33,-0.02 0.33,-0.01 0.33,-0.02 0.33,-0.02 0.33,-0.02 0.33,-0.01 0.33,-0.02 0.33,-0.02 0.33,-0.02 0.33,-0.01 0.33,-0.02 0.33,-0.02 0.33,-0.01 0.33,-0.02 0.33,-0.02 0.33,-0.01 0.33,-0.02 0.33,-0.02 0.33,-0.01 0.33,-0.02 0.33,-0.02 0.33,-0.01 0.33,-0.02 0.33,-0.02 0.33,-0.01 0.33,-0.02 0.33,-0.02 0.33,-0.01 0.33,-0.02 0.33,-0.01 0.33,-0.02 0.33,-0.01 0.33,-0.02 0.33,-0.02 0.33,-0.01 0.33,-0.02 0.33,-0.01 0.33,-0.02 0.34,-0.01 0.33,-0.02 0.33,-0.02 0.33,-0.01 0.33,-0.02 0.33,-0.01 0.33,-0.02 0.33,-0.01 0.33,-0.02 0.33,-0.01 0.33,-0.02 0.33,-0.01 0.33,-0.02 0.33,-0.01 0.33,-0.02"
           style="fill:none;stroke:#ff0000;stroke-width:1.07;stroke-linecap:butt;stroke-linejoin:round;stroke-miterlimit:10;stroke-dasharray:4.27, 4.27;stroke-dashoffset:0;stroke-opacity:1"
           id="path154" /></g></g><g
       id="g156" /><g
       id="g158" /><g
       id="g160" /><g
       id="g162" /><g
       id="g164" /><g
       id="g166" /><g
       id="g168" /><g
       id="g170" /><g
       id="g172" /><g
       id="g174" /><g
       id="g176" /><g
       id="g178" /><g
       id="g180"><path
         d="M 23.4,20.59 V 173.76"
         style="fill:none;stroke:#000000;stroke-width:0.64;stroke-linecap:square;stroke-linejoin:round;stroke-miterlimit:10;stroke-dasharray:none;stroke-opacity:1"
         id="path182" /></g><g
       id="g184" /><g
       id="g186" /><g
       id="g188"><text
         transform="matrix(1,0,0,-1,15.36,17.72)"
         style="font-variant:normal;font-weight:normal;font-size:8px;font-family:Helvetica;-inkscape-font-specification:Helvetica;writing-mode:lr-tb;fill:#000000;fill-opacity:1;fill-rule:nonzero;stroke:none"
         id="text192"><tspan
           x="0"
           y="0"
           id="tspan190">0</tspan></text><text
         transform="matrix(1,0,0,-1,10.91,51.56)"
         style="font-variant:normal;font-weight:normal;font-size:8px;font-family:Helvetica;-inkscape-font-specification:Helvetica;writing-mode:lr-tb;fill:#000000;fill-opacity:1;fill-rule:nonzero;stroke:none"
         id="text196"><tspan
           x="0 4.448"
           y="0"
           sodipodi:role="line"
           id="tspan194">10</tspan></text><text
         transform="matrix(1,0,0,-1,10.91,85.4)"
         style="font-variant:normal;font-weight:normal;font-size:8px;font-family:Helvetica;-inkscape-font-specification:Helvetica;writing-mode:lr-tb;fill:#000000;fill-opacity:1;fill-rule:nonzero;stroke:none"
         id="text200"><tspan
           x="0 4.448"
           y="0"
           sodipodi:role="line"
           id="tspan198">20</tspan></text><text
         transform="matrix(1,0,0,-1,10.91,119.25)"
         style="font-variant:normal;font-weight:normal;font-size:8px;font-family:Helvetica;-inkscape-font-specification:Helvetica;writing-mode:lr-tb;fill:#000000;fill-opacity:1;fill-rule:nonzero;stroke:none"
         id="text204"><tspan
           x="0 4.448"
           y="0"
           sodipodi:role="line"
           id="tspan202">30</tspan></text><text
         transform="matrix(1,0,0,-1,10.91,153.09)"
         style="font-variant:normal;font-weight:normal;font-size:8px;font-family:Helvetica;-inkscape-font-specification:Helvetica;writing-mode:lr-tb;fill:#000000;fill-opacity:1;fill-rule:nonzero;stroke:none"
         id="text208"><tspan
           x="0 4.448"
           y="0"
           sodipodi:role="line"
           id="tspan206">40</tspan></text></g><g
       id="g210" /><g
       id="g212" /><g
       id="g214"><path
         d="m 21.4,20.59 h 2"
         style="fill:none;stroke:#000000;stroke-width:0.32;stroke-linecap:square;stroke-linejoin:round;stroke-miterlimit:10;stroke-dasharray:none;stroke-opacity:1"
         id="path216" /><path
         d="m 21.4,54.43 h 2"
         style="fill:none;stroke:#000000;stroke-width:0.32;stroke-linecap:square;stroke-linejoin:round;stroke-miterlimit:10;stroke-dasharray:none;stroke-opacity:1"
         id="path218" /><path
         d="m 21.4,88.27 h 2"
         style="fill:none;stroke:#000000;stroke-width:0.32;stroke-linecap:square;stroke-linejoin:round;stroke-miterlimit:10;stroke-dasharray:none;stroke-opacity:1"
         id="path220" /><path
         d="m 21.4,122.12 h 2"
         style="fill:none;stroke:#000000;stroke-width:0.32;stroke-linecap:square;stroke-linejoin:round;stroke-miterlimit:10;stroke-dasharray:none;stroke-opacity:1"
         id="path222" /><path
         d="m 21.4,155.96 h 2"
         style="fill:none;stroke:#000000;stroke-width:0.32;stroke-linecap:square;stroke-linejoin:round;stroke-miterlimit:10;stroke-dasharray:none;stroke-opacity:1"
         id="path224" /></g><g
       id="g226" /><g
       id="g228" /><g
       id="g230" /><g
       id="g232" /><g
       id="g234" /><g
       id="g236" /><g
       id="g238" /><g
       id="g240"><path
         d="M 23.4,20.59 H 353.2"
         style="fill:none;stroke:#000000;stroke-width:0.64;stroke-linecap:square;stroke-linejoin:round;stroke-miterlimit:10;stroke-dasharray:none;stroke-opacity:1"
         id="path242" /></g><g
       id="g244" /><g
       id="g246" /><g
       id="g248"><path
         d="m 23.4,18.59 v 2"
         style="fill:none;stroke:#000000;stroke-width:0.32;stroke-linecap:square;stroke-linejoin:round;stroke-miterlimit:10;stroke-dasharray:none;stroke-opacity:1"
         id="path250" /><path
         d="m 35.84,18.59 v 2"
         style="fill:none;stroke:#000000;stroke-width:0.32;stroke-linecap:square;stroke-linejoin:round;stroke-miterlimit:10;stroke-dasharray:none;stroke-opacity:1"
         id="path252" /><path
         d="m 48.29,18.59 v 2"
         style="fill:none;stroke:#000000;stroke-width:0.32;stroke-linecap:square;stroke-linejoin:round;stroke-miterlimit:10;stroke-dasharray:none;stroke-opacity:1"
         id="path254" /><path
         d="m 60.73,18.59 v 2"
         style="fill:none;stroke:#000000;stroke-width:0.32;stroke-linecap:square;stroke-linejoin:round;stroke-miterlimit:10;stroke-dasharray:none;stroke-opacity:1"
         id="path256" /><path
         d="m 73.18,18.59 v 2"
         style="fill:none;stroke:#000000;stroke-width:0.32;stroke-linecap:square;stroke-linejoin:round;stroke-miterlimit:10;stroke-dasharray:none;stroke-opacity:1"
         id="path258" /><path
         d="m 85.62,18.59 v 2"
         style="fill:none;stroke:#000000;stroke-width:0.32;stroke-linecap:square;stroke-linejoin:round;stroke-miterlimit:10;stroke-dasharray:none;stroke-opacity:1"
         id="path260" /><path
         d="m 98.07,18.59 v 2"
         style="fill:none;stroke:#000000;stroke-width:0.32;stroke-linecap:square;stroke-linejoin:round;stroke-miterlimit:10;stroke-dasharray:none;stroke-opacity:1"
         id="path262" /><path
         d="m 110.51,18.59 v 2"
         style="fill:none;stroke:#000000;stroke-width:0.32;stroke-linecap:square;stroke-linejoin:round;stroke-miterlimit:10;stroke-dasharray:none;stroke-opacity:1"
         id="path264" /><path
         d="m 122.96,18.59 v 2"
         style="fill:none;stroke:#000000;stroke-width:0.32;stroke-linecap:square;stroke-linejoin:round;stroke-miterlimit:10;stroke-dasharray:none;stroke-opacity:1"
         id="path266" /><path
         d="m 135.4,18.59 v 2"
         style="fill:none;stroke:#000000;stroke-width:0.32;stroke-linecap:square;stroke-linejoin:round;stroke-miterlimit:10;stroke-dasharray:none;stroke-opacity:1"
         id="path268" /><path
         d="m 147.85,18.59 v 2"
         style="fill:none;stroke:#000000;stroke-width:0.32;stroke-linecap:square;stroke-linejoin:round;stroke-miterlimit:10;stroke-dasharray:none;stroke-opacity:1"
         id="path270" /><path
         d="m 160.29,18.59 v 2"
         style="fill:none;stroke:#000000;stroke-width:0.32;stroke-linecap:square;stroke-linejoin:round;stroke-miterlimit:10;stroke-dasharray:none;stroke-opacity:1"
         id="path272" /><path
         d="m 172.74,18.59 v 2"
         style="fill:none;stroke:#000000;stroke-width:0.32;stroke-linecap:square;stroke-linejoin:round;stroke-miterlimit:10;stroke-dasharray:none;stroke-opacity:1"
         id="path274" /><path
         d="m 185.19,18.59 v 2"
         style="fill:none;stroke:#000000;stroke-width:0.32;stroke-linecap:square;stroke-linejoin:round;stroke-miterlimit:10;stroke-dasharray:none;stroke-opacity:1"
         id="path276" /><path
         d="m 197.63,18.59 v 2"
         style="fill:none;stroke:#000000;stroke-width:0.32;stroke-linecap:square;stroke-linejoin:round;stroke-miterlimit:10;stroke-dasharray:none;stroke-opacity:1"
         id="path278" /><path
         d="m 210.08,18.59 v 2"
         style="fill:none;stroke:#000000;stroke-width:0.32;stroke-linecap:square;stroke-linejoin:round;stroke-miterlimit:10;stroke-dasharray:none;stroke-opacity:1"
         id="path280" /><path
         d="m 222.52,18.59 v 2"
         style="fill:none;stroke:#000000;stroke-width:0.32;stroke-linecap:square;stroke-linejoin:round;stroke-miterlimit:10;stroke-dasharray:none;stroke-opacity:1"
         id="path282" /><path
         d="m 234.97,18.59 v 2"
         style="fill:none;stroke:#000000;stroke-width:0.32;stroke-linecap:square;stroke-linejoin:round;stroke-miterlimit:10;stroke-dasharray:none;stroke-opacity:1"
         id="path284" /><path
         d="m 247.41,18.59 v 2"
         style="fill:none;stroke:#000000;stroke-width:0.32;stroke-linecap:square;stroke-linejoin:round;stroke-miterlimit:10;stroke-dasharray:none;stroke-opacity:1"
         id="path286" /><path
         d="m 259.86,18.59 v 2"
         style="fill:none;stroke:#000000;stroke-width:0.32;stroke-linecap:square;stroke-linejoin:round;stroke-miterlimit:10;stroke-dasharray:none;stroke-opacity:1"
         id="path288" /><path
         d="m 272.3,18.59 v 2"
         style="fill:none;stroke:#000000;stroke-width:0.32;stroke-linecap:square;stroke-linejoin:round;stroke-miterlimit:10;stroke-dasharray:none;stroke-opacity:1"
         id="path290" /><path
         d="m 284.75,18.59 v 2"
         style="fill:none;stroke:#000000;stroke-width:0.32;stroke-linecap:square;stroke-linejoin:round;stroke-miterlimit:10;stroke-dasharray:none;stroke-opacity:1"
         id="path292" /><path
         d="m 297.19,18.59 v 2"
         style="fill:none;stroke:#000000;stroke-width:0.32;stroke-linecap:square;stroke-linejoin:round;stroke-miterlimit:10;stroke-dasharray:none;stroke-opacity:1"
         id="path294" /><path
         d="m 309.64,18.59 v 2"
         style="fill:none;stroke:#000000;stroke-width:0.32;stroke-linecap:square;stroke-linejoin:round;stroke-miterlimit:10;stroke-dasharray:none;stroke-opacity:1"
         id="path296" /><path
         d="m 322.08,18.59 v 2"
         style="fill:none;stroke:#000000;stroke-width:0.32;stroke-linecap:square;stroke-linejoin:round;stroke-miterlimit:10;stroke-dasharray:none;stroke-opacity:1"
         id="path298" /><path
         d="m 334.53,18.59 v 2"
         style="fill:none;stroke:#000000;stroke-width:0.32;stroke-linecap:square;stroke-linejoin:round;stroke-miterlimit:10;stroke-dasharray:none;stroke-opacity:1"
         id="path300" /><path
         d="m 346.97,18.59 v 2"
         style="fill:none;stroke:#000000;stroke-width:0.32;stroke-linecap:square;stroke-linejoin:round;stroke-miterlimit:10;stroke-dasharray:none;stroke-opacity:1"
         id="path302" /></g><g
       id="g304" /><g
       id="g306"><text
         transform="matrix(1,0,0,-1,18.95,11.26)"
         style="font-variant:normal;font-weight:normal;font-size:8px;font-family:Helvetica;-inkscape-font-specification:Helvetica;writing-mode:lr-tb;fill:#000000;fill-opacity:1;fill-rule:nonzero;stroke:none"
         id="text310"><tspan
           x="0 4.448"
           y="0"
           sodipodi:role="line"
           id="tspan308">24</tspan></text><text
         transform="matrix(1,0,0,-1,43.84,11.26)"
         style="font-variant:normal;font-weight:normal;font-size:8px;font-family:Helvetica;-inkscape-font-specification:Helvetica;writing-mode:lr-tb;fill:#000000;fill-opacity:1;fill-rule:nonzero;stroke:none"
         id="text318"><tspan
           x="0 4.448"
           y="0"
           sodipodi:role="line"
           id="tspan316">28</tspan></text><text
         transform="matrix(1,0,0,-1,68.73,11.26)"
         style="font-variant:normal;font-weight:normal;font-size:8px;font-family:Helvetica;-inkscape-font-specification:Helvetica;writing-mode:lr-tb;fill:#000000;fill-opacity:1;fill-rule:nonzero;stroke:none"
         id="text326"><tspan
           x="0 4.448"
           y="0"
           sodipodi:role="line"
           id="tspan324">32</tspan></text><text
         transform="matrix(1,0,0,-1,93.62,11.26)"
         style="font-variant:normal;font-weight:normal;font-size:8px;font-family:Helvetica;-inkscape-font-specification:Helvetica;writing-mode:lr-tb;fill:#000000;fill-opacity:1;fill-rule:nonzero;stroke:none"
         id="text334"><tspan
           x="0 4.448"
           y="0"
           sodipodi:role="line"
           id="tspan332">36</tspan></text><text
         transform="matrix(1,0,0,-1,118.51,11.26)"
         style="font-variant:normal;font-weight:normal;font-size:8px;font-family:Helvetica;-inkscape-font-specification:Helvetica;writing-mode:lr-tb;fill:#000000;fill-opacity:1;fill-rule:nonzero;stroke:none"
         id="text342"><tspan
           x="0 4.448"
           y="0"
           sodipodi:role="line"
           id="tspan340">40</tspan></text><text
         transform="matrix(1,0,0,-1,143.4,11.26)"
         style="font-variant:normal;font-weight:normal;font-size:8px;font-family:Helvetica;-inkscape-font-specification:Helvetica;writing-mode:lr-tb;fill:#000000;fill-opacity:1;fill-rule:nonzero;stroke:none"
         id="text350"><tspan
           x="0 4.448"
           y="0"
           sodipodi:role="line"
           id="tspan348">44</tspan></text><text
         transform="matrix(1,0,0,-1,168.29,11.26)"
         style="font-variant:normal;font-weight:normal;font-size:8px;font-family:Helvetica;-inkscape-font-specification:Helvetica;writing-mode:lr-tb;fill:#000000;fill-opacity:1;fill-rule:nonzero;stroke:none"
         id="text358"><tspan
           x="0 4.448"
           y="0"
           sodipodi:role="line"
           id="tspan356">48</tspan></text><text
         transform="matrix(1,0,0,-1,193.18,11.26)"
         style="font-variant:normal;font-weight:normal;font-size:8px;font-family:Helvetica;-inkscape-font-specification:Helvetica;writing-mode:lr-tb;fill:#000000;fill-opacity:1;fill-rule:nonzero;stroke:none"
         id="text366"><tspan
           x="0 4.448"
           y="0"
           sodipodi:role="line"
           id="tspan364">52</tspan></text><text
         transform="matrix(1,0,0,-1,218.07,11.26)"
         style="font-variant:normal;font-weight:normal;font-size:8px;font-family:Helvetica;-inkscape-font-specification:Helvetica;writing-mode:lr-tb;fill:#000000;fill-opacity:1;fill-rule:nonzero;stroke:none"
         id="text374"><tspan
           x="0 4.448"
           y="0"
           sodipodi:role="line"
           id="tspan372">56</tspan></text><text
         transform="matrix(1,0,0,-1,242.96,11.26)"
         style="font-variant:normal;font-weight:normal;font-size:8px;font-family:Helvetica;-inkscape-font-specification:Helvetica;writing-mode:lr-tb;fill:#000000;fill-opacity:1;fill-rule:nonzero;stroke:none"
         id="text382"><tspan
           x="0 4.448"
           y="0"
           sodipodi:role="line"
           id="tspan380">60</tspan></text><text
         transform="matrix(1,0,0,-1,267.85,11.26)"
         style="font-variant:normal;font-weight:normal;font-size:8px;font-family:Helvetica;-inkscape-font-specification:Helvetica;writing-mode:lr-tb;fill:#000000;fill-opacity:1;fill-rule:nonzero;stroke:none"
         id="text390"><tspan
           x="0 4.448"
           y="0"
           sodipodi:role="line"
           id="tspan388">64</tspan></text><text
         transform="matrix(1,0,0,-1,292.75,11.26)"
         style="font-variant:normal;font-weight:normal;font-size:8px;font-family:Helvetica;-inkscape-font-specification:Helvetica;writing-mode:lr-tb;fill:#000000;fill-opacity:1;fill-rule:nonzero;stroke:none"
         id="text398"><tspan
           x="0 4.448"
           y="0"
           sodipodi:role="line"
           id="tspan396">68</tspan></text><text
         transform="matrix(1,0,0,-1,317.64,11.26)"
         style="font-variant:normal;font-weight:normal;font-size:8px;font-family:Helvetica;-inkscape-font-specification:Helvetica;writing-mode:lr-tb;fill:#000000;fill-opacity:1;fill-rule:nonzero;stroke:none"
         id="text406"><tspan
           x="0 4.448"
           y="0"
           sodipodi:role="line"
           id="tspan404">72</tspan></text><text
         transform="matrix(1,0,0,-1,342.53,11.26)"
         style="font-variant:normal;font-weight:normal;font-size:8px;font-family:Helvetica;-inkscape-font-specification:Helvetica;writing-mode:lr-tb;fill:#000000;fill-opacity:1;fill-rule:nonzero;stroke:none"
         id="text414"><tspan
           x="0 4.448"
           y="0"
           sodipodi:role="line"
           id="tspan412">76</tspan></text></g><g
       id="g416" /><g
       id="g418" /><g
       id="g420" /><g
       id="g422" /><g
       id="g424" /><g
       id="g426" /><g
       id="g428" /><g
       id="g430"><text
         transform="matrix(1,0,0,-1,154.17,1.76)"
         style="font-variant:normal;font-weight:bold;font-size:8px;font-family:Helvetica;-inkscape-font-specification:Helvetica-Bold;writing-mode:lr-tb;fill:#000000;fill-opacity:1;fill-rule:nonzero;stroke:none"
         id="text434"><tspan
           x="0 7.2719998 11.72 16.167999 20.615999 22.84 27.728001 30.392 32.616001 37.584 42.032001 46.48 49.144001 53.591999 56.256001 58.48 63.368"
           y="0"
           sodipodi:role="line"
           id="tspan432">Week of gestation</tspan></text></g><g
       id="g436" /><g
       id="g438" /><g
       id="g446" /><g
       id="g448" /><g
       id="g450" /><g
       id="g452" /><g
       id="g454" /><g
       id="g456" /><g
       id="g458" /><g
       id="g460" /><g
       id="g462" /><g
       id="g464" /><g
       id="g466" /><g
       id="g468" /><g
       id="g470" /><g
       id="g392"
       transform="translate(-13.782749,13.717177)"><text
         transform="matrix(0,1,1,0,10.11,36.51)"
         style="font-style:normal;font-variant:normal;font-weight:normal;font-stretch:normal;font-size:8px;font-family:Roboto;-inkscape-font-specification:Roboto;writing-mode:lr-tb;fill:#000000;fill-opacity:1;fill-rule:nonzero;stroke:none"
         id="text396"><tspan
           x="0"
           y="0"
           sodipodi:role="line"
           id="tspan394"
           style="font-style:normal;font-variant:normal;font-weight:bold;font-stretch:normal;font-family:Roboto;-inkscape-font-specification:'Roboto Bold'">Feto−infant deaths per</tspan></text><text
         transform="matrix(0,1,1,0,18.75,23.43)"
         style="font-style:normal;font-variant:normal;font-weight:normal;font-stretch:normal;font-size:8px;font-family:Roboto;-inkscape-font-specification:Roboto;writing-mode:lr-tb;fill:#000000;fill-opacity:1;fill-rule:nonzero;stroke:none"
         id="text400"><tspan
           x="0"
           y="0"
           sodipodi:role="line"
           id="tspan398"
           style="font-style:normal;font-variant:normal;font-weight:bold;font-stretch:normal;font-family:Roboto;-inkscape-font-specification:'Roboto Bold'">100,000 person−weeks at risk</tspan></text></g><text
       xml:space="preserve"
       style="font-size:8px;line-height:1.25;font-family:Roboto;-inkscape-font-specification:Roboto;fill:#ff5555;fill-opacity:1;stroke-width:0.75"
       x="138.08754"
       y="-135.58923"
       id="text11067"
       transform="matrix(0.99999935,0.00114297,0.00114297,-0.99999935,0,0)"><tspan
         sodipodi:role="line"
         id="tspan11065"
         style="font-style:normal;font-variant:normal;font-weight:normal;font-stretch:normal;font-size:8px;font-family:Roboto;-inkscape-font-specification:Roboto;fill:#ff5555;fill-opacity:1;stroke-width:0.75"
         x="138.08754"
         y="-135.58923">Ontogenescent hazard</tspan></text><text
       xml:space="preserve"
       style="font-size:8px;line-height:1.05;font-family:Roboto;-inkscape-font-specification:Roboto;fill:#276e8e;fill-opacity:0.996078;stroke:none;stroke-width:0.75;stroke-opacity:1"
       x="178.63435"
       y="-120.18938"
       id="text16891"
       transform="scale(1,-1)"><tspan
         sodipodi:role="line"
         id="tspan16889"
         style="font-style:normal;font-variant:normal;font-weight:normal;font-stretch:normal;font-size:8px;font-family:Roboto;-inkscape-font-specification:Roboto;text-align:center;text-anchor:middle;fill:#276e8e;fill-opacity:0.996078;stroke:none;stroke-width:0.75;stroke-opacity:1"
         x="178.63435"
         y="-120.18938">Transitional hazard</tspan><tspan
         sodipodi:role="line"
         style="font-style:normal;font-variant:normal;font-weight:normal;font-stretch:normal;font-size:8px;font-family:Roboto;-inkscape-font-specification:Roboto;text-align:center;text-anchor:middle;fill:#276e8e;fill-opacity:0.996078;stroke:none;stroke-width:0.75;stroke-opacity:1"
         x="178.63435"
         y="-111.78938"
         id="tspan24313">&quot;birth hump&quot;</tspan></text><text
       xml:space="preserve"
       style="font-size:8px;line-height:1.05;font-family:Roboto;-inkscape-font-specification:Roboto;fill:#276e8e;fill-opacity:0.996078;stroke:none;stroke-width:0.75;stroke-opacity:1"
       x="167.8031"
       y="-152.37961"
       id="text16891-3"
       transform="scale(1,-1)"><tspan
         sodipodi:role="line"
         style="font-style:normal;font-variant:normal;font-weight:normal;font-stretch:normal;font-size:8px;font-family:Roboto;-inkscape-font-specification:Roboto;text-align:center;text-anchor:middle;fill:#000000;fill-opacity:0.996078;stroke:none;stroke-width:0.75;stroke-opacity:1"
         x="167.8031"
         y="-152.37961"
         id="tspan24313-8">Total feto-infant hazard</tspan></text><text
       xml:space="preserve"
       style="font-size:8px;line-height:1.05;font-family:Roboto;-inkscape-font-specification:Roboto;fill:#999999;fill-opacity:1;stroke:none;stroke-width:0.75;stroke-opacity:1"
       x="185.6656"
       y="-28.29883"
       id="text16891-3-3"
       transform="scale(1,-1)"><tspan
         sodipodi:role="line"
         style="font-style:normal;font-variant:normal;font-weight:normal;font-stretch:normal;font-size:8px;font-family:Roboto;-inkscape-font-specification:Roboto;text-align:center;text-anchor:middle;fill:#999999;fill-opacity:1;stroke:none;stroke-width:0.75;stroke-opacity:1"
         x="185.6656"
         y="-28.29883"
         id="tspan24313-8-7">Distribution of live-births</tspan></text><text
       xml:space="preserve"
       style="font-size:8.00003px;line-height:1.25;font-family:Roboto;-inkscape-font-specification:Roboto;stroke-width:0.75"
       x="168.87849"
       y="-144.60034"
       id="text99521"
       transform="scale(1,-1)"><tspan
         sodipodi:role="line"
         id="tspan99519"
         style="stroke-width:0.75"
         x="168.87849"
         y="-144.60034">=</tspan></text><text
       xml:space="preserve"
       style="font-size:8.00003px;line-height:1.25;font-family:Roboto;-inkscape-font-specification:Roboto;stroke-width:0.75"
       x="169.25594"
       y="-128.11652"
       id="text103761"
       transform="scale(1,-1)"><tspan
         sodipodi:role="line"
         id="tspan103759"
         style="stroke-width:0.75"
         x="169.25594"
         y="-128.11652">+</tspan></text></g></svg>
